<svg xmlns="http://www.w3.org/2000/svg" xmlns:xlink="http://www.w3.org/1999/xlink" width="500" zoomAndPan="magnify" viewBox="0 0 375 374.999991" height="500" preserveAspectRatio="xMidYMid meet" version="1.0"><defs><clipPath id="c01c58cc56"><path d="M 1 18.621094 L 374 18.621094 L 374 345.621094 L 1 345.621094 Z M 1 18.621094 " clip-rule="nonzero"/></clipPath></defs><g clip-path="url(#c01c58cc56)"><path fill="#2979ff" d="M 270.71875 18.621094 L 104.28125 18.621094 C 97.414062 18.621094 91.070312 22.285156 87.640625 28.238281 L 4.421875 172.503906 C 0.992188 178.457031 0.992188 185.785156 4.421875 191.738281 L 87.640625 336.003906 C 91.070312 341.957031 97.421875 345.621094 104.28125 345.621094 L 270.71875 345.621094 C 277.585938 345.621094 283.929688 341.957031 287.359375 336.003906 L 370.578125 191.738281 C 374.007812 185.785156 374.007812 178.457031 370.578125 172.503906 L 287.359375 28.238281 C 283.929688 22.285156 277.585938 18.621094 270.71875 18.621094 Z M 270.71875 18.621094 " fill-opacity="1" fill-rule="nonzero"/></g><path fill="#ffffff" d="M 302.8125 251.367188 L 215.367188 98.457031 L 181.253906 167.214844 L 241.3125 236.882812 L 129.84375 249.550781 Z M 130.324219 136.910156 L 72.1875 235.074219 L 121.675781 230.105469 L 208.640625 71.308594 Z M 130.324219 136.910156 " fill-opacity="1" fill-rule="nonzero"/></svg>