<svg xmlns="http://www.w3.org/2000/svg" xmlns:xlink="http://www.w3.org/1999/xlink" width="500" zoomAndPan="magnify" viewBox="0 0 375 374.999991" height="500" preserveAspectRatio="xMidYMid meet" version="1.0"><defs><clipPath id="90baf535a7"><path d="M 50.816406 8 L 369.53125 8 L 369.53125 357 L 50.816406 357 Z M 50.816406 8 " clip-rule="nonzero"/></clipPath><clipPath id="44745f7f0b"><path d="M 75 1 L 369.558594 1 L 369.558594 297 L 75 297 Z M 75 1 " clip-rule="nonzero"/></clipPath><clipPath id="859f490ea2"><path d="M 149.289062 317.078125 L 189.292969 317.078125 L 189.292969 375 L 149.289062 375 Z M 149.289062 317.078125 " clip-rule="nonzero"/></clipPath><clipPath id="b2a84bd0cb"><path d="M 150.496094 337.695312 L 149.78125 332.042969 C 153.96875 332.402344 158.457031 331.03125 163.246094 327.917969 L 163.246094 328.09375 C 164.230469 327.425781 165.542969 326.5625 167.191406 325.496094 C 169.878906 323.734375 173.46875 321.433594 177.964844 318.589844 C 178.566406 318.226562 179.28125 317.929688 180.121094 317.691406 L 181.464844 328.542969 L 183.621094 345.773438 L 189.097656 390.539062 L 171.679688 376.902344 L 157.675781 394.484375 L 150.496094 337.695312 " clip-rule="nonzero"/></clipPath><clipPath id="fb9640da1f"><path d="M 188.507812 312.917969 L 140.445312 318.84375 L 150.367188 399.257812 L 198.429688 393.335938 Z M 188.507812 312.917969 " clip-rule="nonzero"/></clipPath><linearGradient x1="0.074203" gradientTransform="matrix(10.592539, 85.845114, -85.897474, 10.586081, 163.080689, 309.58581)" y1="0" x2="0.787377" gradientUnits="userSpaceOnUse" y2="0" id="59aef55c30"><stop stop-opacity="1" stop-color="rgb(32.899475%, 7.099915%, 8.599854%)" offset="0"/><stop stop-opacity="1" stop-color="rgb(32.899475%, 7.099915%, 8.599854%)" offset="0.125"/><stop stop-opacity="1" stop-color="rgb(32.899475%, 7.099915%, 8.599854%)" offset="0.15625"/><stop stop-opacity="1" stop-color="rgb(33.108521%, 7.099915%, 8.599854%)" offset="0.160156"/><stop stop-opacity="1" stop-color="rgb(33.317566%, 7.099915%, 8.599854%)" offset="0.164063"/><stop stop-opacity="1" stop-color="rgb(33.810425%, 7.099915%, 8.599854%)" offset="0.167969"/><stop stop-opacity="1" stop-color="rgb(34.303284%, 7.099915%, 8.599854%)" offset="0.171875"/><stop stop-opacity="1" stop-color="rgb(34.799194%, 7.099915%, 8.599854%)" offset="0.175781"/><stop stop-opacity="1" stop-color="rgb(35.295105%, 7.099915%, 8.599854%)" offset="0.179688"/><stop stop-opacity="1" stop-color="rgb(35.592651%, 7.099915%, 8.599854%)" offset="0.183594"/><stop stop-opacity="1" stop-color="rgb(35.891724%, 7.099915%, 8.599854%)" offset="0.1875"/><stop stop-opacity="1" stop-color="rgb(36.439514%, 7.142639%, 8.599854%)" offset="0.191406"/><stop stop-opacity="1" stop-color="rgb(36.987305%, 7.18689%, 8.599854%)" offset="0.195312"/><stop stop-opacity="1" stop-color="rgb(37.24823%, 7.342529%, 8.599854%)" offset="0.199219"/><stop stop-opacity="1" stop-color="rgb(37.510681%, 7.499695%, 8.599854%)" offset="0.203125"/><stop stop-opacity="1" stop-color="rgb(37.992859%, 7.499695%, 8.599854%)" offset="0.207031"/><stop stop-opacity="1" stop-color="rgb(38.476562%, 7.499695%, 8.599854%)" offset="0.210938"/><stop stop-opacity="1" stop-color="rgb(38.772583%, 7.499695%, 8.599854%)" offset="0.214844"/><stop stop-opacity="1" stop-color="rgb(39.070129%, 7.499695%, 8.599854%)" offset="0.21875"/><stop stop-opacity="1" stop-color="rgb(39.567566%, 7.499695%, 8.599854%)" offset="0.222656"/><stop stop-opacity="1" stop-color="rgb(40.065002%, 7.499695%, 8.599854%)" offset="0.226562"/><stop stop-opacity="1" stop-color="rgb(40.362549%, 7.499695%, 8.599854%)" offset="0.230469"/><stop stop-opacity="1" stop-color="rgb(40.660095%, 7.499695%, 8.599854%)" offset="0.234375"/><stop stop-opacity="1" stop-color="rgb(41.157532%, 7.519531%, 8.799744%)" offset="0.238281"/><stop stop-opacity="1" stop-color="rgb(41.654968%, 7.540894%, 8.999634%)" offset="0.242188"/><stop stop-opacity="1" stop-color="rgb(42.118835%, 7.669067%, 8.999634%)" offset="0.246094"/><stop stop-opacity="1" stop-color="rgb(42.582703%, 7.798767%, 8.999634%)" offset="0.25"/><stop stop-opacity="1" stop-color="rgb(42.912292%, 7.798767%, 9.199524%)" offset="0.253906"/><stop stop-opacity="1" stop-color="rgb(43.243408%, 7.798767%, 9.399414%)" offset="0.257812"/><stop stop-opacity="1" stop-color="rgb(43.710327%, 7.798767%, 9.399414%)" offset="0.261719"/><stop stop-opacity="1" stop-color="rgb(44.177246%, 7.798767%, 9.399414%)" offset="0.265625"/><stop stop-opacity="1" stop-color="rgb(44.50531%, 7.998657%, 9.465027%)" offset="0.269531"/><stop stop-opacity="1" stop-color="rgb(44.833374%, 8.198547%, 9.532166%)" offset="0.273438"/><stop stop-opacity="1" stop-color="rgb(45.294189%, 8.198547%, 9.664917%)" offset="0.277344"/><stop stop-opacity="1" stop-color="rgb(45.756531%, 8.198547%, 9.799194%)" offset="0.28125"/><stop stop-opacity="1" stop-color="rgb(46.150208%, 8.198547%, 9.799194%)" offset="0.285156"/><stop stop-opacity="1" stop-color="rgb(46.54541%, 8.198547%, 9.799194%)" offset="0.289062"/><stop stop-opacity="1" stop-color="rgb(46.980286%, 8.357239%, 9.957886%)" offset="0.292969"/><stop stop-opacity="1" stop-color="rgb(47.416687%, 8.517456%, 10.116577%)" offset="0.296875"/><stop stop-opacity="1" stop-color="rgb(47.819519%, 8.558655%, 10.157776%)" offset="0.300781"/><stop stop-opacity="1" stop-color="rgb(48.223877%, 8.599854%, 10.198975%)" offset="0.304688"/><stop stop-opacity="1" stop-color="rgb(48.617554%, 8.602905%, 10.202026%)" offset="0.308594"/><stop stop-opacity="1" stop-color="rgb(49.012756%, 8.605957%, 10.206604%)" offset="0.3125"/><stop stop-opacity="1" stop-color="rgb(49.505615%, 8.802795%, 10.401917%)" offset="0.316406"/><stop stop-opacity="1" stop-color="rgb(50%, 8.999634%, 10.598755%)" offset="0.320312"/><stop stop-opacity="1" stop-color="rgb(50.297546%, 8.999634%, 10.598755%)" offset="0.324219"/><stop stop-opacity="1" stop-color="rgb(50.595093%, 8.999634%, 10.598755%)" offset="0.328125"/><stop stop-opacity="1" stop-color="rgb(51.092529%, 8.999634%, 10.693359%)" offset="0.332031"/><stop stop-opacity="1" stop-color="rgb(51.589966%, 8.999634%, 10.78949%)" offset="0.335938"/><stop stop-opacity="1" stop-color="rgb(51.887512%, 9.191895%, 10.89325%)" offset="0.339844"/><stop stop-opacity="1" stop-color="rgb(52.185059%, 9.384155%, 10.998535%)" offset="0.34375"/><stop stop-opacity="1" stop-color="rgb(52.632141%, 9.391785%, 10.998535%)" offset="0.347656"/><stop stop-opacity="1" stop-color="rgb(53.079224%, 9.399414%, 10.998535%)" offset="0.351562"/><stop stop-opacity="1" stop-color="rgb(53.425598%, 9.399414%, 11.198425%)" offset="0.355469"/><stop stop-opacity="1" stop-color="rgb(53.773499%, 9.399414%, 11.399841%)" offset="0.359375"/><stop stop-opacity="1" stop-color="rgb(54.205322%, 9.399414%, 11.399841%)" offset="0.363281"/><stop stop-opacity="1" stop-color="rgb(54.637146%, 9.399414%, 11.399841%)" offset="0.367188"/><stop stop-opacity="1" stop-color="rgb(55.032349%, 9.599304%, 11.430359%)" offset="0.371094"/><stop stop-opacity="1" stop-color="rgb(55.427551%, 9.799194%, 11.462402%)" offset="0.375"/><stop stop-opacity="1" stop-color="rgb(55.892944%, 9.799194%, 11.630249%)" offset="0.378906"/><stop stop-opacity="1" stop-color="rgb(56.358337%, 9.799194%, 11.799622%)" offset="0.382812"/><stop stop-opacity="1" stop-color="rgb(56.674194%, 9.799194%, 11.799622%)" offset="0.386719"/><stop stop-opacity="1" stop-color="rgb(56.991577%, 9.799194%, 11.799622%)" offset="0.390625"/><stop stop-opacity="1" stop-color="rgb(57.418823%, 9.799194%, 11.799622%)" offset="0.394531"/><stop stop-opacity="1" stop-color="rgb(57.847595%, 9.799194%, 11.799622%)" offset="0.398438"/><stop stop-opacity="1" stop-color="rgb(58.164978%, 9.999084%, 11.999512%)" offset="0.402344"/><stop stop-opacity="1" stop-color="rgb(58.483887%, 10.198975%, 12.199402%)" offset="0.40625"/><stop stop-opacity="1" stop-color="rgb(58.999634%, 10.198975%, 12.199402%)" offset="0.410156"/><stop stop-opacity="1" stop-color="rgb(59.515381%, 10.198975%, 12.199402%)" offset="0.414062"/><stop stop-opacity="1" stop-color="rgb(59.822083%, 10.198975%, 12.24823%)" offset="0.417969"/><stop stop-opacity="1" stop-color="rgb(60.13031%, 10.198975%, 12.298584%)" offset="0.421875"/><stop stop-opacity="1" stop-color="rgb(60.591125%, 10.198975%, 12.399292%)" offset="0.425781"/><stop stop-opacity="1" stop-color="rgb(61.051941%, 10.198975%, 12.5%)" offset="0.429688"/><stop stop-opacity="1" stop-color="rgb(61.386108%, 10.398865%, 12.5%)" offset="0.433594"/><stop stop-opacity="1" stop-color="rgb(61.720276%, 10.598755%, 12.5%)" offset="0.4375"/><stop stop-opacity="1" stop-color="rgb(62.017822%, 10.598755%, 12.5%)" offset="0.441406"/><stop stop-opacity="1" stop-color="rgb(62.315369%, 10.598755%, 12.5%)" offset="0.445312"/><stop stop-opacity="1" stop-color="rgb(62.562561%, 10.598755%, 12.69989%)" offset="0.449219"/><stop stop-opacity="1" stop-color="rgb(62.809753%, 10.598755%, 12.89978%)" offset="0.453125"/><stop stop-opacity="1" stop-color="rgb(63.258362%, 10.598755%, 12.89978%)" offset="0.457031"/><stop stop-opacity="1" stop-color="rgb(63.708496%, 10.598755%, 12.89978%)" offset="0.460938"/><stop stop-opacity="1" stop-color="rgb(64.202881%, 10.798645%, 12.89978%)" offset="0.464844"/><stop stop-opacity="1" stop-color="rgb(64.698792%, 10.998535%, 12.89978%)" offset="0.46875"/><stop stop-opacity="1" stop-color="rgb(65.09552%, 10.998535%, 13.096619%)" offset="0.472656"/><stop stop-opacity="1" stop-color="rgb(65.493774%, 10.998535%, 13.293457%)" offset="0.476562"/><stop stop-opacity="1" stop-color="rgb(65.884399%, 10.998535%, 13.296509%)" offset="0.480469"/><stop stop-opacity="1" stop-color="rgb(66.27655%, 10.998535%, 13.299561%)" offset="0.484375"/><stop stop-opacity="1" stop-color="rgb(66.679382%, 10.998535%, 13.299561%)" offset="0.488281"/><stop stop-opacity="1" stop-color="rgb(67.082214%, 10.998535%, 13.299561%)" offset="0.492188"/><stop stop-opacity="1" stop-color="rgb(67.529297%, 10.998535%, 13.299561%)" offset="0.496094"/><stop stop-opacity="1" stop-color="rgb(67.977905%, 10.998535%, 13.299561%)" offset="0.5"/><stop stop-opacity="1" stop-color="rgb(68.273926%, 11.184692%, 13.299561%)" offset="0.503906"/><stop stop-opacity="1" stop-color="rgb(68.571472%, 11.372375%, 13.299561%)" offset="0.507812"/><stop stop-opacity="1" stop-color="rgb(68.951416%, 11.386108%, 13.499451%)" offset="0.511719"/><stop stop-opacity="1" stop-color="rgb(69.332886%, 11.399841%, 13.699341%)" offset="0.515625"/><stop stop-opacity="1" stop-color="rgb(69.827271%, 11.399841%, 13.699341%)" offset="0.519531"/><stop stop-opacity="1" stop-color="rgb(70.323181%, 11.399841%, 13.699341%)" offset="0.523438"/><stop stop-opacity="1" stop-color="rgb(70.788574%, 11.399841%, 13.699341%)" offset="0.527344"/><stop stop-opacity="1" stop-color="rgb(71.255493%, 11.399841%, 13.699341%)" offset="0.53125"/><stop stop-opacity="1" stop-color="rgb(71.55304%, 11.399841%, 13.723755%)" offset="0.535156"/><stop stop-opacity="1" stop-color="rgb(71.850586%, 11.399841%, 13.749695%)" offset="0.539062"/><stop stop-opacity="1" stop-color="rgb(72.239685%, 11.399841%, 13.923645%)" offset="0.542969"/><stop stop-opacity="1" stop-color="rgb(72.628784%, 11.399841%, 14.099121%)" offset="0.546875"/><stop stop-opacity="1" stop-color="rgb(73.00415%, 11.399841%, 14.099121%)" offset="0.550781"/><stop stop-opacity="1" stop-color="rgb(73.379517%, 11.399841%, 14.099121%)" offset="0.554688"/><stop stop-opacity="1" stop-color="rgb(73.857117%, 11.399841%, 14.099121%)" offset="0.558594"/><stop stop-opacity="1" stop-color="rgb(74.334717%, 11.399841%, 14.099121%)" offset="0.5625"/><stop stop-opacity="1" stop-color="rgb(74.645996%, 11.599731%, 14.099121%)" offset="0.566406"/><stop stop-opacity="1" stop-color="rgb(74.958801%, 11.799622%, 14.099121%)" offset="0.570312"/><stop stop-opacity="1" stop-color="rgb(75.4776%, 11.799622%, 14.099121%)" offset="0.574219"/><stop stop-opacity="1" stop-color="rgb(75.997925%, 11.799622%, 14.099121%)" offset="0.578125"/><stop stop-opacity="1" stop-color="rgb(76.307678%, 11.799622%, 14.299011%)" offset="0.582031"/><stop stop-opacity="1" stop-color="rgb(76.617432%, 11.799622%, 14.498901%)" offset="0.585938"/><stop stop-opacity="1" stop-color="rgb(76.914978%, 11.799622%, 14.498901%)" offset="0.589844"/><stop stop-opacity="1" stop-color="rgb(77.212524%, 11.799622%, 14.498901%)" offset="0.59375"/><stop stop-opacity="1" stop-color="rgb(77.713013%, 11.799622%, 14.498901%)" offset="0.597656"/><stop stop-opacity="1" stop-color="rgb(78.215027%, 11.799622%, 14.498901%)" offset="0.601562"/><stop stop-opacity="1" stop-color="rgb(78.657532%, 11.799622%, 14.498901%)" offset="0.605469"/><stop stop-opacity="1" stop-color="rgb(79.101562%, 11.799622%, 14.498901%)" offset="0.609375"/><stop stop-opacity="1" stop-color="rgb(79.447937%, 11.799622%, 14.498901%)" offset="0.613281"/><stop stop-opacity="1" stop-color="rgb(79.794312%, 11.799622%, 14.498901%)" offset="0.617188"/><stop stop-opacity="1" stop-color="rgb(80.24292%, 11.799622%, 14.498901%)" offset="0.621094"/><stop stop-opacity="1" stop-color="rgb(80.691528%, 11.799622%, 14.498901%)" offset="0.625"/><stop stop-opacity="1" stop-color="rgb(81.237793%, 11.799622%, 14.498901%)" offset="0.628906"/><stop stop-opacity="1" stop-color="rgb(81.785583%, 11.799622%, 14.498901%)" offset="0.632812"/><stop stop-opacity="1" stop-color="rgb(82.08313%, 11.799622%, 14.498901%)" offset="0.636719"/><stop stop-opacity="1" stop-color="rgb(82.380676%, 11.799622%, 14.498901%)" offset="0.640625"/><stop stop-opacity="1" stop-color="rgb(82.827759%, 11.799622%, 14.498901%)" offset="0.644531"/><stop stop-opacity="1" stop-color="rgb(83.274841%, 11.799622%, 14.498901%)" offset="0.648438"/><stop stop-opacity="1" stop-color="rgb(83.572388%, 11.799622%, 14.498901%)" offset="0.652344"/><stop stop-opacity="1" stop-color="rgb(83.869934%, 11.799622%, 14.498901%)" offset="0.65625"/><stop stop-opacity="1" stop-color="rgb(84.16748%, 11.799622%, 14.498901%)" offset="0.660156"/><stop stop-opacity="1" stop-color="rgb(84.465027%, 11.799622%, 14.498901%)" offset="0.664062"/><stop stop-opacity="1" stop-color="rgb(84.941101%, 11.799622%, 14.498901%)" offset="0.667969"/><stop stop-opacity="1" stop-color="rgb(85.418701%, 11.799622%, 14.498901%)" offset="0.671875"/><stop stop-opacity="1" stop-color="rgb(85.736084%, 11.799622%, 14.498901%)" offset="0.675781"/><stop stop-opacity="1" stop-color="rgb(86.053467%, 11.799622%, 14.498901%)" offset="0.679688"/><stop stop-opacity="1" stop-color="rgb(86.399841%, 11.599731%, 14.498901%)" offset="0.683594"/><stop stop-opacity="1" stop-color="rgb(86.747742%, 11.399841%, 14.498901%)" offset="0.6875"/><stop stop-opacity="1" stop-color="rgb(87.136841%, 11.399841%, 14.498901%)" offset="0.691406"/><stop stop-opacity="1" stop-color="rgb(87.52594%, 11.399841%, 14.498901%)" offset="0.695312"/><stop stop-opacity="1" stop-color="rgb(87.88147%, 11.399841%, 14.498901%)" offset="0.699219"/><stop stop-opacity="1" stop-color="rgb(88.237%, 11.399841%, 14.498901%)" offset="0.703125"/><stop stop-opacity="1" stop-color="rgb(88.534546%, 11.399841%, 14.498901%)" offset="0.707031"/><stop stop-opacity="1" stop-color="rgb(88.832092%, 11.399841%, 14.498901%)" offset="0.710938"/><stop stop-opacity="1" stop-color="rgb(89.129639%, 11.399841%, 14.498901%)" offset="0.714844"/><stop stop-opacity="1" stop-color="rgb(89.427185%, 11.399841%, 14.498901%)" offset="0.71875"/><stop stop-opacity="1" stop-color="rgb(89.723206%, 11.399841%, 14.498901%)" offset="0.722656"/><stop stop-opacity="1" stop-color="rgb(90.020752%, 11.399841%, 14.498901%)" offset="0.726562"/><stop stop-opacity="1" stop-color="rgb(90.318298%, 11.399841%, 14.299011%)" offset="0.730469"/><stop stop-opacity="1" stop-color="rgb(90.615845%, 11.399841%, 14.099121%)" offset="0.734375"/><stop stop-opacity="1" stop-color="rgb(91.088867%, 11.257935%, 14.099121%)" offset="0.738281"/><stop stop-opacity="1" stop-color="rgb(91.563416%, 11.117554%, 14.099121%)" offset="0.742188"/><stop stop-opacity="1" stop-color="rgb(91.920471%, 11.058044%, 14.099121%)" offset="0.746094"/><stop stop-opacity="1" stop-color="rgb(92.279053%, 10.998535%, 14.099121%)" offset="0.75"/><stop stop-opacity="1" stop-color="rgb(92.449951%, 10.998535%, 14.099121%)" offset="0.765625"/><stop stop-opacity="1" stop-color="rgb(92.759705%, 10.998535%, 14.099121%)" offset="0.78125"/><stop stop-opacity="1" stop-color="rgb(92.89856%, 10.998535%, 14.099121%)" offset="0.8125"/><stop stop-opacity="1" stop-color="rgb(92.89856%, 10.998535%, 14.099121%)" offset="0.820312"/><stop stop-opacity="1" stop-color="rgb(92.89856%, 11.274719%, 14.099121%)" offset="0.824219"/><stop stop-opacity="1" stop-color="rgb(92.89856%, 11.550903%, 14.099121%)" offset="0.828125"/><stop stop-opacity="1" stop-color="rgb(92.89856%, 11.6745%, 14.099121%)" offset="0.84375"/><stop stop-opacity="1" stop-color="rgb(92.89856%, 11.799622%, 14.099121%)" offset="0.875"/><stop stop-opacity="1" stop-color="rgb(92.89856%, 11.799622%, 14.099121%)" offset="1"/></linearGradient><clipPath id="86b97f4581"><path d="M 82 313 L 143 313 L 143 375 L 82 375 Z M 82 313 " clip-rule="nonzero"/></clipPath><clipPath id="259bb23e12"><path d="M 140.261719 335.007812 L 109.5625 386.230469 L 104.175781 364.519531 L 82.09375 369.726562 L 108.039062 326.664062 L 116.207031 313.027344 C 118.71875 316.375 122.789062 318.648438 128.414062 319.84375 C 130.207031 320.203125 132.78125 322.234375 136.132812 325.945312 C 138.167969 327.859375 140.441406 329.355469 142.953125 330.429688 L 140.261719 335.007812 " clip-rule="nonzero"/></clipPath><clipPath id="1ed2a1837f"><path d="M 175.296875 332.449219 L 98.242188 286.171875 L 49.753906 366.804688 L 126.804688 413.085938 Z M 175.296875 332.449219 " clip-rule="nonzero"/></clipPath><linearGradient x1="0.0410167" gradientTransform="matrix(-44.513137, 74.021292, -74.066442, -44.486003, 138.853227, 306.431361)" y1="0" x2="1.018882" gradientUnits="userSpaceOnUse" y2="0" id="83c8e670cf"><stop stop-opacity="1" stop-color="rgb(32.899475%, 7.099915%, 8.599854%)" offset="0"/><stop stop-opacity="1" stop-color="rgb(32.899475%, 7.099915%, 8.599854%)" offset="0.125"/><stop stop-opacity="1" stop-color="rgb(32.899475%, 7.099915%, 8.599854%)" offset="0.140625"/><stop stop-opacity="1" stop-color="rgb(32.914734%, 7.099915%, 8.599854%)" offset="0.148438"/><stop stop-opacity="1" stop-color="rgb(33.280945%, 7.099915%, 8.599854%)" offset="0.152344"/><stop stop-opacity="1" stop-color="rgb(33.631897%, 7.099915%, 8.599854%)" offset="0.15625"/><stop stop-opacity="1" stop-color="rgb(34.376526%, 7.099915%, 8.599854%)" offset="0.160156"/><stop stop-opacity="1" stop-color="rgb(35.121155%, 7.099915%, 8.599854%)" offset="0.164062"/><stop stop-opacity="1" stop-color="rgb(35.644531%, 7.099915%, 8.599854%)" offset="0.167969"/><stop stop-opacity="1" stop-color="rgb(36.169434%, 7.099915%, 8.599854%)" offset="0.171875"/><stop stop-opacity="1" stop-color="rgb(36.653137%, 7.167053%, 8.599854%)" offset="0.175781"/><stop stop-opacity="1" stop-color="rgb(37.138367%, 7.235718%, 8.599854%)" offset="0.179688"/><stop stop-opacity="1" stop-color="rgb(37.606812%, 7.366943%, 8.599854%)" offset="0.183594"/><stop stop-opacity="1" stop-color="rgb(38.075256%, 7.499695%, 8.599854%)" offset="0.1875"/><stop stop-opacity="1" stop-color="rgb(38.777161%, 7.499695%, 8.599854%)" offset="0.191406"/><stop stop-opacity="1" stop-color="rgb(39.479065%, 7.499695%, 8.599854%)" offset="0.195312"/><stop stop-opacity="1" stop-color="rgb(39.979553%, 7.499695%, 8.599854%)" offset="0.199219"/><stop stop-opacity="1" stop-color="rgb(40.481567%, 7.499695%, 8.599854%)" offset="0.203125"/><stop stop-opacity="1" stop-color="rgb(41.030884%, 7.569885%, 8.799744%)" offset="0.207031"/><stop stop-opacity="1" stop-color="rgb(41.5802%, 7.641602%, 8.999634%)" offset="0.210938"/><stop stop-opacity="1" stop-color="rgb(42.211914%, 7.719421%, 9.07135%)" offset="0.214844"/><stop stop-opacity="1" stop-color="rgb(42.843628%, 7.798767%, 9.143066%)" offset="0.21875"/><stop stop-opacity="1" stop-color="rgb(43.39447%, 7.798767%, 9.27124%)" offset="0.222656"/><stop stop-opacity="1" stop-color="rgb(43.945312%, 7.798767%, 9.399414%)" offset="0.226562"/><stop stop-opacity="1" stop-color="rgb(44.468689%, 7.972717%, 9.399414%)" offset="0.230469"/><stop stop-opacity="1" stop-color="rgb(44.993591%, 8.146667%, 9.399414%)" offset="0.234375"/><stop stop-opacity="1" stop-color="rgb(45.570374%, 8.172607%, 9.599304%)" offset="0.238281"/><stop stop-opacity="1" stop-color="rgb(46.148682%, 8.198547%, 9.799194%)" offset="0.242188"/><stop stop-opacity="1" stop-color="rgb(46.754456%, 8.273315%, 9.873962%)" offset="0.246094"/><stop stop-opacity="1" stop-color="rgb(47.361755%, 8.349609%, 9.94873%)" offset="0.25"/><stop stop-opacity="1" stop-color="rgb(47.932434%, 8.474731%, 10.073853%)" offset="0.253906"/><stop stop-opacity="1" stop-color="rgb(48.503113%, 8.599854%, 10.198975%)" offset="0.257812"/><stop stop-opacity="1" stop-color="rgb(49.177551%, 8.625793%, 10.398865%)" offset="0.261719"/><stop stop-opacity="1" stop-color="rgb(49.85199%, 8.653259%, 10.598755%)" offset="0.265625"/><stop stop-opacity="1" stop-color="rgb(50.379944%, 8.825684%, 10.598755%)" offset="0.269531"/><stop stop-opacity="1" stop-color="rgb(50.909424%, 8.999634%, 10.598755%)" offset="0.273438"/><stop stop-opacity="1" stop-color="rgb(51.409912%, 8.999634%, 10.798645%)" offset="0.277344"/><stop stop-opacity="1" stop-color="rgb(51.911926%, 8.999634%, 10.998535%)" offset="0.28125"/><stop stop-opacity="1" stop-color="rgb(52.363586%, 9.199524%, 10.998535%)" offset="0.285156"/><stop stop-opacity="1" stop-color="rgb(52.815247%, 9.399414%, 10.998535%)" offset="0.289062"/><stop stop-opacity="1" stop-color="rgb(53.315735%, 9.399414%, 11.198425%)" offset="0.292969"/><stop stop-opacity="1" stop-color="rgb(53.817749%, 9.399414%, 11.399841%)" offset="0.296875"/><stop stop-opacity="1" stop-color="rgb(54.588318%, 9.429932%, 11.399841%)" offset="0.300781"/><stop stop-opacity="1" stop-color="rgb(55.360413%, 9.460449%, 11.399841%)" offset="0.304688"/><stop stop-opacity="1" stop-color="rgb(55.891418%, 9.629822%, 11.579895%)" offset="0.308594"/><stop stop-opacity="1" stop-color="rgb(56.42395%, 9.799194%, 11.761475%)" offset="0.3125"/><stop stop-opacity="1" stop-color="rgb(56.892395%, 9.799194%, 11.779785%)" offset="0.316406"/><stop stop-opacity="1" stop-color="rgb(57.36084%, 9.799194%, 11.799622%)" offset="0.320313"/><stop stop-opacity="1" stop-color="rgb(57.844543%, 9.881592%, 11.882019%)" offset="0.324219"/><stop stop-opacity="1" stop-color="rgb(58.329773%, 9.963989%, 11.964417%)" offset="0.328125"/><stop stop-opacity="1" stop-color="rgb(58.831787%, 10.081482%, 12.081909%)" offset="0.332031"/><stop stop-opacity="1" stop-color="rgb(59.333801%, 10.198975%, 12.199402%)" offset="0.335938"/><stop stop-opacity="1" stop-color="rgb(59.851074%, 10.198975%, 12.199402%)" offset="0.339844"/><stop stop-opacity="1" stop-color="rgb(60.368347%, 10.198975%, 12.199402%)" offset="0.34375"/><stop stop-opacity="1" stop-color="rgb(60.96344%, 10.379028%, 12.348938%)" offset="0.347656"/><stop stop-opacity="1" stop-color="rgb(61.558533%, 10.559082%, 12.5%)" offset="0.351562"/><stop stop-opacity="1" stop-color="rgb(61.914062%, 10.578918%, 12.5%)" offset="0.355469"/><stop stop-opacity="1" stop-color="rgb(62.271118%, 10.598755%, 12.5%)" offset="0.359375"/><stop stop-opacity="1" stop-color="rgb(62.771606%, 10.598755%, 12.69989%)" offset="0.363281"/><stop stop-opacity="1" stop-color="rgb(63.272095%, 10.598755%, 12.89978%)" offset="0.367188"/><stop stop-opacity="1" stop-color="rgb(63.859558%, 10.798645%, 12.89978%)" offset="0.371094"/><stop stop-opacity="1" stop-color="rgb(64.448547%, 10.998535%, 12.89978%)" offset="0.375"/><stop stop-opacity="1" stop-color="rgb(64.961243%, 10.998535%, 13.087463%)" offset="0.378906"/><stop stop-opacity="1" stop-color="rgb(65.475464%, 10.998535%, 13.275146%)" offset="0.382812"/><stop stop-opacity="1" stop-color="rgb(66.165161%, 10.998535%, 13.287354%)" offset="0.386719"/><stop stop-opacity="1" stop-color="rgb(66.854858%, 10.998535%, 13.299561%)" offset="0.390625"/><stop stop-opacity="1" stop-color="rgb(67.420959%, 10.998535%, 13.299561%)" offset="0.394531"/><stop stop-opacity="1" stop-color="rgb(67.987061%, 10.998535%, 13.299561%)" offset="0.398438"/><stop stop-opacity="1" stop-color="rgb(68.473816%, 11.198425%, 13.499451%)" offset="0.402344"/><stop stop-opacity="1" stop-color="rgb(68.960571%, 11.399841%, 13.699341%)" offset="0.40625"/><stop stop-opacity="1" stop-color="rgb(69.46106%, 11.399841%, 13.699341%)" offset="0.410156"/><stop stop-opacity="1" stop-color="rgb(69.963074%, 11.399841%, 13.699341%)" offset="0.414062"/><stop stop-opacity="1" stop-color="rgb(70.664978%, 11.399841%, 13.699341%)" offset="0.417969"/><stop stop-opacity="1" stop-color="rgb(71.366882%, 11.399841%, 13.699341%)" offset="0.421875"/><stop stop-opacity="1" stop-color="rgb(71.832275%, 11.399841%, 13.841248%)" offset="0.425781"/><stop stop-opacity="1" stop-color="rgb(72.297668%, 11.399841%, 13.98468%)" offset="0.429688"/><stop stop-opacity="1" stop-color="rgb(72.784424%, 11.399841%, 14.041138%)" offset="0.433594"/><stop stop-opacity="1" stop-color="rgb(73.272705%, 11.399841%, 14.099121%)" offset="0.4375"/><stop stop-opacity="1" stop-color="rgb(73.873901%, 11.49292%, 14.099121%)" offset="0.441406"/><stop stop-opacity="1" stop-color="rgb(74.475098%, 11.587524%, 14.099121%)" offset="0.445312"/><stop stop-opacity="1" stop-color="rgb(75.131226%, 11.69281%, 14.099121%)" offset="0.449219"/><stop stop-opacity="1" stop-color="rgb(75.788879%, 11.799622%, 14.099121%)" offset="0.453125"/><stop stop-opacity="1" stop-color="rgb(76.335144%, 11.799622%, 14.294434%)" offset="0.457031"/><stop stop-opacity="1" stop-color="rgb(76.881409%, 11.799622%, 14.491272%)" offset="0.460938"/><stop stop-opacity="1" stop-color="rgb(77.200317%, 11.799622%, 14.494324%)" offset="0.464844"/><stop stop-opacity="1" stop-color="rgb(77.519226%, 11.799622%, 14.498901%)" offset="0.46875"/><stop stop-opacity="1" stop-color="rgb(78.152466%, 11.799622%, 14.498901%)" offset="0.472656"/><stop stop-opacity="1" stop-color="rgb(78.787231%, 11.799622%, 14.498901%)" offset="0.476562"/><stop stop-opacity="1" stop-color="rgb(79.289246%, 11.799622%, 14.498901%)" offset="0.480469"/><stop stop-opacity="1" stop-color="rgb(79.79126%, 11.799622%, 14.498901%)" offset="0.484375"/><stop stop-opacity="1" stop-color="rgb(80.543518%, 11.799622%, 14.498901%)" offset="0.488281"/><stop stop-opacity="1" stop-color="rgb(81.297302%, 11.799622%, 14.498901%)" offset="0.492188"/><stop stop-opacity="1" stop-color="rgb(81.846619%, 11.799622%, 14.498901%)" offset="0.496094"/><stop stop-opacity="1" stop-color="rgb(82.397461%, 11.799622%, 14.498901%)" offset="0.5"/><stop stop-opacity="1" stop-color="rgb(82.849121%, 11.799622%, 14.498901%)" offset="0.503906"/><stop stop-opacity="1" stop-color="rgb(83.300781%, 11.799622%, 14.498901%)" offset="0.507812"/><stop stop-opacity="1" stop-color="rgb(83.80127%, 11.799622%, 14.498901%)" offset="0.511719"/><stop stop-opacity="1" stop-color="rgb(84.303284%, 11.799622%, 14.498901%)" offset="0.515625"/><stop stop-opacity="1" stop-color="rgb(84.751892%, 11.799622%, 14.498901%)" offset="0.519531"/><stop stop-opacity="1" stop-color="rgb(85.202026%, 11.799622%, 14.498901%)" offset="0.523438"/><stop stop-opacity="1" stop-color="rgb(85.752869%, 11.795044%, 14.498901%)" offset="0.527344"/><stop stop-opacity="1" stop-color="rgb(86.305237%, 11.791992%, 14.498901%)" offset="0.53125"/><stop stop-opacity="1" stop-color="rgb(86.904907%, 11.595154%, 14.498901%)" offset="0.535156"/><stop stop-opacity="1" stop-color="rgb(87.504578%, 11.399841%, 14.498901%)" offset="0.539062"/><stop stop-opacity="1" stop-color="rgb(87.805176%, 11.399841%, 14.498901%)" offset="0.542969"/><stop stop-opacity="1" stop-color="rgb(88.1073%, 11.399841%, 14.498901%)" offset="0.546875"/><stop stop-opacity="1" stop-color="rgb(88.658142%, 11.399841%, 14.498901%)" offset="0.550781"/><stop stop-opacity="1" stop-color="rgb(89.208984%, 11.399841%, 14.498901%)" offset="0.554688"/><stop stop-opacity="1" stop-color="rgb(89.559937%, 11.399841%, 14.498901%)" offset="0.558594"/><stop stop-opacity="1" stop-color="rgb(89.910889%, 11.399841%, 14.498901%)" offset="0.5625"/><stop stop-opacity="1" stop-color="rgb(90.461731%, 11.392212%, 14.299011%)" offset="0.566406"/><stop stop-opacity="1" stop-color="rgb(91.012573%, 11.386108%, 14.099121%)" offset="0.570313"/><stop stop-opacity="1" stop-color="rgb(91.362%, 11.192322%, 14.099121%)" offset="0.574219"/><stop stop-opacity="1" stop-color="rgb(91.712952%, 10.998535%, 14.099121%)" offset="0.578125"/><stop stop-opacity="1" stop-color="rgb(92.105103%, 10.998535%, 14.099121%)" offset="0.582031"/><stop stop-opacity="1" stop-color="rgb(92.498779%, 10.998535%, 14.099121%)" offset="0.585938"/><stop stop-opacity="1" stop-color="rgb(92.698669%, 10.998535%, 14.099121%)" offset="0.589844"/><stop stop-opacity="1" stop-color="rgb(92.89856%, 10.998535%, 14.099121%)" offset="0.59375"/><stop stop-opacity="1" stop-color="rgb(92.89856%, 10.998535%, 14.099121%)" offset="0.625"/><stop stop-opacity="1" stop-color="rgb(92.89856%, 10.998535%, 14.099121%)" offset="0.632812"/><stop stop-opacity="1" stop-color="rgb(92.89856%, 11.260986%, 14.099121%)" offset="0.636719"/><stop stop-opacity="1" stop-color="rgb(92.89856%, 11.524963%, 14.099121%)" offset="0.640625"/><stop stop-opacity="1" stop-color="rgb(92.89856%, 11.662292%, 14.099121%)" offset="0.65625"/><stop stop-opacity="1" stop-color="rgb(92.89856%, 11.799622%, 14.099121%)" offset="0.6875"/><stop stop-opacity="1" stop-color="rgb(92.89856%, 11.799622%, 14.099121%)" offset="0.75"/><stop stop-opacity="1" stop-color="rgb(92.89856%, 11.799622%, 14.099121%)" offset="1"/></linearGradient></defs><g clip-path="url(#90baf535a7)"><path fill="#be9359" d="M 120.066406 267.363281 C 103.832031 264.308594 91.472656 262.789062 82.988281 262.789062 C 82.871094 262.789062 82.75 262.789062 82.632812 262.789062 L 82.453125 262.789062 C 81.734375 262.789062 81.136719 262.847656 80.65625 262.964844 C 78.742188 262.964844 77.003906 263.140625 75.449219 263.5 C 64.199219 265.539062 57.976562 272.773438 56.777344 285.214844 L 56.597656 288.441406 C 56.597656 288.5625 56.597656 288.6875 56.597656 288.800781 C 56.597656 289.042969 56.597656 289.28125 56.597656 289.515625 C 56.597656 289.761719 56.597656 290.058594 56.597656 290.414062 C 56.839844 292.808594 57.613281 296.339844 58.929688 301.003906 C 59.171875 301.839844 59.410156 302.617188 59.652344 303.339844 C 54.980469 298.074219 52.230469 293.648438 51.390625 290.058594 C 50.429688 286.46875 50.671875 281.085938 52.109375 273.910156 C 53.425781 266.613281 58.574219 260.75 67.550781 256.324219 C 76.40625 251.777344 85.324219 250.761719 94.300781 253.277344 C 96.214844 253.511719 98.191406 253.816406 100.222656 254.171875 C 104.746094 254.863281 113.242188 256.507812 125.71875 259.105469 C 124.882812 260.726562 124.464844 262.308594 124.464844 263.863281 L 124.464844 264.039062 C 124.464844 264.640625 123.625 265.414062 121.953125 266.375 C 121.285156 266.695312 120.660156 267.023438 120.066406 267.363281 Z M 242.957031 323.792969 C 243.914062 323.550781 245.234375 323.609375 246.910156 323.972656 C 248.824219 324.328125 251.757812 325.105469 255.707031 326.300781 C 255.8125 326.414062 255.933594 326.589844 256.0625 326.839844 C 255.695312 326.097656 255.335938 325.320312 254.988281 324.507812 L 253.195312 314.820312 C 253.195312 312.90625 254.148438 310.929688 256.0625 308.898438 C 254.511719 308.421875 252.894531 308 251.214844 307.644531 C 248.34375 306.925781 245.953125 306.207031 244.035156 305.488281 L 244.035156 305.308594 C 242.480469 309.253906 242.003906 313.5625 242.597656 318.226562 C 242.597656 320.140625 242.722656 322 242.957031 323.792969 Z M 246.367188 301.183594 C 246.5 301.054688 246.617188 300.933594 246.730469 300.824219 C 247.328125 300.941406 247.984375 301.0625 248.703125 301.183594 C 251.335938 301.660156 256.0625 303.039062 262.886719 305.308594 C 265.039062 305.308594 266.058594 305.550781 265.9375 306.03125 C 266.179688 306.386719 266.535156 306.628906 267.019531 306.746094 C 267.253906 307.105469 267.375 308 267.375 309.4375 C 267.375 311.113281 266.117188 312.605469 263.605469 313.921875 C 263.003906 314.28125 262.46875 314.636719 261.988281 315 C 260.554688 316.074219 259.835938 317.03125 259.835938 317.867188 C 259.835938 319.902344 260.734375 322 262.527344 324.148438 C 264.441406 326.417969 266.179688 327.5625 267.734375 327.5625 C 271.085938 327.5625 273.777344 324.089844 275.8125 317.152344 C 276.175781 315.839844 276.53125 314.398438 276.894531 312.84375 C 276.894531 308.421875 276.53125 305.011719 275.8125 302.617188 C 274.140625 296.636719 270.488281 293.648438 264.863281 293.648438 C 256.203125 293.648438 250.039062 296.160156 246.367188 301.183594 Z M 297.898438 335.632812 C 298.613281 334.675781 299.390625 333.660156 300.230469 332.582031 L 300.410156 332.582031 C 301.007812 331.746094 301.605469 330.90625 302.207031 330.070312 C 301.726562 330.550781 301.308594 331.089844 300.949219 331.683594 C 303.105469 325.105469 304.898438 317.570312 306.335938 309.078125 C 306.695312 307.046875 307.113281 304.710938 307.59375 302.078125 C 307.949219 298.96875 308.429688 295.441406 309.027344 291.492188 C 309.265625 288.863281 309.566406 286.113281 309.925781 283.238281 C 310.402344 279.648438 313.394531 263.324219 318.902344 234.257812 C 319.140625 232.9375 319.382812 231.683594 319.621094 230.488281 C 323.808594 208.121094 325.902344 191.972656 325.902344 182.042969 C 325.902344 167.089844 330.152344 145.378906 338.652344 116.910156 C 338.890625 114.039062 339.007812 111.882812 339.007812 110.453125 C 339.007812 97.410156 343.859375 76.242188 353.554688 46.929688 C 358.105469 33.175781 362.289062 22.410156 366.121094 14.632812 C 367.199219 12.359375 368.21875 10.386719 369.171875 8.710938 C 369.414062 9.550781 369.53125 10.507812 369.53125 11.585938 C 369.53125 13.257812 366.183594 27.015625 359.480469 52.855469 C 352.058594 81.203125 347.507812 99.863281 345.835938 108.832031 C 334.941406 169.003906 329.496094 200.765625 329.496094 204.113281 C 329.496094 207.941406 328.300781 216.730469 325.902344 230.488281 C 325.066406 235.269531 324.050781 240.65625 322.855469 246.640625 L 321.417969 254.527344 C 317.824219 272.71875 316.027344 282.105469 316.027344 282.703125 C 315.792969 290.238281 315.011719 297.234375 313.695312 303.695312 C 310.582031 318.648438 304.660156 330.667969 295.921875 339.757812 C 285.269531 350.886719 271.625 356.445312 254.988281 356.445312 C 254.390625 356.445312 253.792969 356.445312 253.195312 356.445312 C 246.96875 353.335938 242.179688 348.3125 238.828125 341.375 L 238.828125 341.195312 C 238.707031 340.957031 238.589844 340.71875 238.472656 340.476562 L 235.0625 328.09375 C 234.578125 325.105469 234.34375 322 234.34375 318.765625 C 234.34375 310.152344 235.179688 303.753906 236.855469 299.570312 C 237.210938 298.609375 237.628906 297.710938 238.109375 296.878906 C 239.667969 293.886719 241.640625 291.492188 244.035156 289.699219 C 237.332031 288.503906 229.316406 287.007812 219.976562 285.214844 C 208.101562 282.96875 198.796875 281.203125 192.058594 279.921875 C 192.003906 279.214844 192.03125 278.464844 192.148438 277.679688 C 192.5 275.9375 192.765625 274.472656 192.957031 273.28125 C 215.324219 277.871094 236.300781 281.90625 255.886719 285.394531 C 257.203125 285.152344 258.640625 285.035156 260.195312 285.035156 C 265.101562 285.035156 269.289062 286.046875 272.761719 288.085938 C 273.121094 288.085938 273.480469 288.144531 273.839844 288.265625 C 273.71875 288.386719 273.660156 288.5625 273.660156 288.800781 C 275.335938 289.882812 276.832031 291.253906 278.148438 292.929688 C 279.226562 294.363281 280.183594 295.980469 281.023438 297.773438 C 282.816406 301.960938 283.714844 306.628906 283.714844 311.769531 C 283.714844 312.726562 283.59375 313.742188 283.355469 314.820312 L 281.558594 320.203125 C 280.839844 321.636719 280.003906 323.195312 279.046875 324.871094 C 278.808594 325.34375 278.507812 325.824219 278.148438 326.300781 C 275.632812 330.25 273.0625 332.761719 270.429688 333.839844 C 269.589844 334.078125 268.691406 334.199219 267.734375 334.199219 C 266.535156 334.199219 265.402344 334.078125 264.324219 333.839844 C 261.332031 333.839844 256.84375 333.121094 250.859375 331.683594 C 247.984375 330.96875 245.652344 330.367188 243.855469 329.886719 C 244.453125 332.523438 245.289062 334.855469 246.367188 336.890625 C 250.558594 344.902344 257.679688 348.910156 267.734375 348.910156 C 267.972656 348.910156 268.214844 348.910156 268.453125 348.910156 C 268.570312 348.910156 268.75 348.910156 268.992188 348.910156 C 269.109375 348.910156 269.289062 348.910156 269.53125 348.910156 C 269.648438 348.910156 269.832031 348.910156 270.066406 348.910156 C 270.1875 348.910156 270.367188 348.910156 270.609375 348.910156 C 270.847656 348.910156 271.148438 348.910156 271.503906 348.910156 C 271.625 348.792969 271.800781 348.726562 272.046875 348.726562 C 272.28125 348.726562 272.582031 348.726562 272.941406 348.726562 C 273.300781 348.609375 273.597656 348.550781 273.839844 348.550781 C 274.195312 348.550781 274.558594 348.492188 274.914062 348.371094 C 275.753906 348.253906 276.652344 348.074219 277.609375 347.832031 C 277.726562 347.832031 277.910156 347.832031 278.148438 347.832031 C 278.269531 347.714844 278.386719 347.652344 278.507812 347.652344 C 278.867188 347.535156 279.285156 347.414062 279.761719 347.300781 C 279.882812 347.300781 280.0625 347.234375 280.304688 347.117188 C 280.421875 347.117188 280.539062 347.117188 280.660156 347.117188 C 280.78125 347 280.960938 346.933594 281.199219 346.933594 C 281.558594 346.699219 281.976562 346.519531 282.457031 346.402344 C 283.175781 346.15625 283.890625 345.859375 284.609375 345.503906 C 284.730469 345.382812 284.910156 345.324219 285.152344 345.324219 C 285.152344 345.207031 285.210938 345.140625 285.332031 345.140625 C 289.878906 342.871094 294.066406 339.699219 297.898438 335.632812 " fill-opacity="1" fill-rule="evenodd"/></g><g clip-path="url(#44745f7f0b)"><path fill="#fef4de" d="M 120.066406 267.363281 C 117.902344 268.695312 116.132812 270.3125 114.769531 272.207031 C 99.308594 268.882812 86.199219 265.984375 75.449219 263.5 C 77.003906 263.140625 78.742188 262.964844 80.65625 262.964844 C 81.136719 262.847656 81.734375 262.789062 82.453125 262.789062 L 82.632812 262.789062 C 82.75 262.789062 82.871094 262.789062 82.988281 262.789062 C 91.472656 262.789062 103.832031 264.308594 120.066406 267.363281 Z M 195.023438 288.535156 C 194.402344 287.15625 193.800781 285.691406 193.226562 284.136719 C 192.503906 282.851562 192.113281 281.449219 192.058594 279.921875 C 198.796875 281.203125 208.101562 282.96875 219.976562 285.214844 C 229.316406 287.007812 237.332031 288.503906 244.035156 289.699219 C 241.640625 291.492188 239.667969 293.886719 238.109375 296.878906 C 223.726562 294.121094 209.363281 291.339844 195.023438 288.535156 Z M 369.171875 8.710938 C 368.21875 10.386719 367.199219 12.359375 366.121094 14.632812 C 365.042969 14.394531 364.203125 14.277344 363.605469 14.277344 C 358.460938 14.277344 346.3125 16.605469 327.164062 21.269531 C 307.050781 26.058594 296.460938 28.507812 295.382812 28.632812 C 280.78125 31.859375 268.515625 34.3125 258.578125 35.988281 C 240.382812 39.097656 201.066406 41.726562 140.621094 43.882812 C 137.273438 55.960938 134.277344 73.429688 131.644531 96.273438 C 129.011719 119.957031 126.199219 137.542969 123.203125 149.027344 C 122.726562 151.058594 119.675781 168.523438 114.050781 201.421875 C 112.253906 212.066406 109.980469 221.757812 107.230469 230.488281 C 105.191406 236.707031 102.976562 242.449219 100.585938 247.714844 C 98.671875 247.59375 96.933594 247.472656 95.378906 247.355469 L 99.148438 225.820312 C 100.34375 218.644531 101.722656 210.269531 103.277344 200.703125 C 107.230469 176.898438 111.597656 157.820312 116.382812 143.464844 C 118.65625 136.765625 120.273438 126.058594 121.230469 111.347656 C 122.546875 91.371094 123.503906 79.109375 124.101562 74.566406 C 128.171875 45.734375 139.90625 31.324219 159.292969 31.324219 C 170.664062 31.324219 194.902344 29.347656 232.007812 25.402344 C 270.1875 21.332031 294.308594 17.984375 304.359375 15.355469 C 307.113281 14.632812 318.964844 10.867188 339.90625 4.046875 C 357.382812 -0.015625 367.140625 1.535156 369.171875 8.710938 " fill-opacity="1" fill-rule="evenodd"/></g><path fill="#f4ddb1" d="M 113.601562 309.976562 C 108.09375 308.097656 102.140625 306.0625 95.738281 303.875 C 76.226562 297.175781 63.183594 292.6875 56.597656 290.414062 C 56.597656 290.058594 56.597656 289.761719 56.597656 289.515625 C 56.597656 289.28125 56.597656 289.042969 56.597656 288.800781 C 56.597656 288.6875 56.597656 288.5625 56.597656 288.441406 L 56.777344 285.214844 C 57.976562 272.773438 64.199219 265.539062 75.449219 263.5 C 86.199219 265.984375 99.308594 268.882812 114.769531 272.207031 C 114.636719 272.347656 114.515625 272.496094 114.410156 272.652344 L 114.410156 272.832031 C 113.09375 274.867188 112.3125 276.839844 112.078125 278.753906 C 111.835938 280.667969 111.953125 282.523438 112.433594 284.320312 C 112.914062 286.46875 113.152344 288.800781 113.152344 291.3125 C 113.152344 292.390625 112.613281 295.144531 111.535156 299.570312 L 111.535156 299.75 C 111.003906 303.835938 111.6875 307.25 113.601562 309.976562 Z M 300.230469 332.582031 C 299.875 332.105469 299.511719 331.625 299.15625 331.148438 C 299.511719 331.503906 299.875 331.925781 300.230469 332.402344 L 300.410156 332.582031 Z M 242.957031 323.792969 C 242.722656 322 242.597656 320.140625 242.597656 318.226562 C 242.003906 313.5625 242.480469 309.253906 244.035156 305.308594 L 244.035156 305.488281 C 245.953125 306.207031 248.34375 306.925781 251.214844 307.644531 C 252.894531 308 254.511719 308.421875 256.0625 308.898438 C 254.148438 310.929688 253.195312 312.90625 253.195312 314.820312 L 254.988281 324.507812 C 255.335938 325.320312 255.695312 326.097656 256.0625 326.839844 C 255.933594 326.589844 255.8125 326.414062 255.707031 326.300781 C 251.757812 325.105469 248.824219 324.328125 246.910156 323.972656 C 245.234375 323.609375 243.914062 323.550781 242.957031 323.792969 Z M 238.828125 341.195312 C 223.867188 337.773438 204.746094 333.554688 181.464844 328.542969 L 180.121094 317.691406 C 182.394531 316.734375 185.445312 315.71875 189.277344 314.636719 L 189.457031 314.460938 C 193.765625 312.066406 196.339844 306.925781 197.175781 299.027344 C 197.535156 296.160156 197.476562 294.066406 196.996094 292.75 L 196.996094 292.570312 C 196.316406 291.332031 195.652344 289.984375 195.023438 288.535156 C 209.363281 291.339844 223.726562 294.121094 238.109375 296.878906 C 237.628906 297.710938 237.210938 298.609375 236.855469 299.570312 C 235.179688 303.753906 234.34375 310.152344 234.34375 318.765625 C 234.34375 322 234.578125 325.105469 235.0625 328.09375 L 238.472656 340.476562 C 238.589844 340.71875 238.707031 340.957031 238.828125 341.195312 Z M 131.375 251.574219 C 128.574219 251.160156 125.792969 250.773438 123.027344 250.40625 C 113.929688 249.210938 106.449219 248.3125 100.585938 247.714844 C 102.976562 242.449219 105.191406 236.707031 107.230469 230.488281 C 109.980469 221.757812 112.253906 212.066406 114.050781 201.421875 C 119.675781 168.523438 122.726562 151.058594 123.203125 149.027344 C 126.199219 137.542969 129.011719 119.957031 131.644531 96.273438 C 134.277344 73.429688 137.273438 55.960938 140.621094 43.882812 C 201.066406 41.726562 240.382812 39.097656 258.578125 35.988281 C 268.515625 34.3125 280.78125 31.859375 295.382812 28.632812 C 296.460938 28.507812 307.050781 26.058594 327.164062 21.269531 C 346.3125 16.605469 358.460938 14.277344 363.605469 14.277344 C 364.203125 14.277344 365.042969 14.394531 366.121094 14.632812 C 362.289062 22.410156 358.105469 33.175781 353.554688 46.929688 C 343.859375 76.242188 339.007812 97.410156 339.007812 110.453125 C 339.007812 111.882812 338.890625 114.039062 338.652344 116.910156 C 330.152344 145.378906 325.902344 167.089844 325.902344 182.042969 C 325.902344 191.972656 323.808594 208.121094 319.621094 230.488281 C 319.382812 231.683594 319.140625 232.9375 318.902344 234.257812 C 313.394531 263.324219 310.402344 279.648438 309.925781 283.238281 C 309.566406 286.113281 309.265625 288.863281 309.027344 291.492188 C 288.199219 283.238281 254.988281 274.449219 209.382812 265.117188 C 203.675781 263.953125 198.019531 262.847656 192.421875 261.796875 C 191.679688 259.78125 190.511719 258.140625 188.917969 256.863281 C 186.765625 253.394531 182.933594 251.242188 177.425781 250.40625 C 174.4375 250.042969 170.847656 250.226562 166.652344 250.941406 L 166.652344 250.761719 C 162.585938 251.125 160.488281 251.304688 160.371094 251.304688 C 159.292969 251.183594 156.839844 250.40625 153.011719 248.96875 C 148.941406 247.171875 146.308594 246.21875 145.109375 246.097656 C 140.203125 245.621094 135.714844 247.355469 131.644531 251.304688 C 131.554688 251.382812 131.464844 251.472656 131.375 251.574219 " fill-opacity="1" fill-rule="evenodd"/><path fill="#8f6535" d="M 278.148438 326.300781 C 287.367188 329.171875 293.945312 332.28125 297.898438 335.632812 C 294.066406 339.699219 289.878906 342.871094 285.332031 345.140625 C 285.210938 345.140625 285.152344 345.207031 285.152344 345.324219 C 284.910156 345.324219 284.730469 345.382812 284.609375 345.503906 C 283.890625 345.859375 283.175781 346.15625 282.457031 346.402344 C 281.976562 346.519531 281.558594 346.699219 281.199219 346.933594 C 280.960938 346.933594 280.78125 347 280.660156 347.117188 C 280.539062 347.117188 280.421875 347.117188 280.304688 347.117188 C 280.0625 347.234375 279.882812 347.300781 279.761719 347.300781 C 279.285156 347.414062 278.867188 347.535156 278.507812 347.652344 C 278.386719 347.652344 278.269531 347.714844 278.148438 347.832031 C 277.910156 347.832031 277.726562 347.832031 277.609375 347.832031 C 276.652344 348.074219 275.753906 348.253906 274.914062 348.371094 C 274.558594 348.492188 274.195312 348.550781 273.839844 348.550781 C 273.597656 348.550781 273.300781 348.609375 272.941406 348.726562 C 272.582031 348.726562 272.28125 348.726562 272.046875 348.726562 C 271.800781 348.726562 271.625 348.792969 271.503906 348.910156 C 271.148438 348.910156 270.847656 348.910156 270.609375 348.910156 C 270.367188 348.910156 270.1875 348.910156 270.066406 348.910156 C 269.832031 348.910156 269.648438 348.910156 269.53125 348.910156 C 269.289062 348.910156 269.109375 348.910156 268.992188 348.910156 C 268.75 348.910156 268.570312 348.910156 268.453125 348.910156 C 268.214844 348.910156 267.972656 348.910156 267.734375 348.910156 C 257.679688 348.910156 250.558594 344.902344 246.367188 336.890625 C 245.289062 334.855469 244.453125 332.523438 243.855469 329.886719 C 245.652344 330.367188 247.984375 330.96875 250.859375 331.683594 C 256.84375 333.121094 261.332031 333.839844 264.324219 333.839844 C 265.402344 334.078125 266.535156 334.199219 267.734375 334.199219 C 268.691406 334.199219 269.589844 334.078125 270.429688 333.839844 C 273.0625 332.761719 275.632812 330.25 278.148438 326.300781 Z M 246.367188 301.183594 C 250.039062 296.160156 256.203125 293.648438 264.863281 293.648438 C 270.488281 293.648438 274.140625 296.636719 275.8125 302.617188 C 276.53125 305.011719 276.894531 308.421875 276.894531 312.84375 C 276.53125 314.398438 276.175781 315.839844 275.8125 317.152344 C 273.777344 324.089844 271.085938 327.5625 267.734375 327.5625 C 266.179688 327.5625 264.441406 326.417969 262.527344 324.148438 C 260.734375 322 259.835938 319.902344 259.835938 317.867188 C 259.835938 317.03125 260.554688 316.074219 261.988281 315 C 262.46875 314.636719 263.003906 314.28125 263.605469 313.921875 C 266.117188 312.605469 267.375 311.113281 267.375 309.4375 C 267.375 308 267.253906 307.105469 267.019531 306.746094 C 266.535156 306.628906 266.179688 306.386719 265.9375 306.03125 C 266.058594 305.550781 265.039062 305.308594 262.886719 305.308594 C 256.0625 303.039062 251.335938 301.660156 248.703125 301.183594 C 247.984375 301.0625 247.328125 300.941406 246.730469 300.824219 C 246.617188 300.933594 246.5 301.054688 246.367188 301.183594 " fill-opacity="1" fill-rule="evenodd"/><path fill="#dbaf75" d="M 150.496094 337.695312 L 140.261719 335.007812 L 142.953125 330.429688 C 144.871094 331.265625 146.964844 331.804688 149.238281 332.042969 C 149.480469 332.042969 149.660156 332.042969 149.78125 332.042969 Z M 253.195312 356.445312 C 237.066406 356.148438 213.878906 352.585938 183.621094 345.773438 L 181.464844 328.542969 C 204.746094 333.554688 223.867188 337.773438 238.828125 341.195312 L 238.828125 341.375 C 242.179688 348.3125 246.96875 353.335938 253.195312 356.445312 Z M 297.898438 335.632812 C 293.945312 332.28125 287.367188 329.171875 278.148438 326.300781 C 278.507812 325.824219 278.808594 325.34375 279.046875 324.871094 C 280.003906 323.195312 280.839844 321.636719 281.558594 320.203125 L 283.355469 314.820312 C 283.59375 313.742188 283.714844 312.726562 283.714844 311.769531 C 283.714844 306.628906 282.816406 301.960938 281.023438 297.773438 C 280.183594 295.980469 279.226562 294.363281 278.148438 292.929688 C 276.832031 291.253906 275.335938 289.882812 273.660156 288.800781 C 273.660156 288.5625 273.71875 288.386719 273.839844 288.265625 C 273.480469 288.144531 273.121094 288.085938 272.761719 288.085938 C 269.289062 286.046875 265.101562 285.035156 260.195312 285.035156 C 258.640625 285.035156 257.203125 285.152344 255.886719 285.394531 C 236.300781 281.90625 215.324219 277.871094 192.957031 273.28125 C 193.085938 272.390625 193.175781 271.636719 193.226562 271.039062 C 193.625 267.378906 193.359375 264.300781 192.421875 261.796875 C 198.019531 262.847656 203.675781 263.953125 209.382812 265.117188 C 254.988281 274.449219 288.199219 283.238281 309.027344 291.492188 C 308.429688 295.441406 307.949219 298.96875 307.59375 302.078125 C 307.113281 304.710938 306.695312 307.046875 306.335938 309.078125 C 304.898438 317.570312 303.105469 325.105469 300.949219 331.683594 C 301.308594 331.089844 301.726562 330.550781 302.207031 330.070312 C 301.605469 330.90625 301.007812 331.746094 300.410156 332.582031 L 300.230469 332.402344 C 299.875 331.925781 299.511719 331.503906 299.15625 331.148438 C 299.511719 331.625 299.875 332.105469 300.230469 332.582031 C 299.390625 333.660156 298.613281 334.675781 297.898438 335.632812 Z M 94.300781 253.277344 L 95.378906 247.355469 C 96.933594 247.472656 98.671875 247.59375 100.585938 247.714844 C 106.449219 248.3125 113.929688 249.210938 123.027344 250.40625 C 125.792969 250.773438 128.574219 251.160156 131.375 251.574219 C 129.457031 253.304688 127.808594 255.425781 126.4375 257.941406 C 126.1875 258.324219 125.949219 258.714844 125.71875 259.105469 C 113.242188 256.507812 104.746094 254.863281 100.222656 254.171875 C 98.191406 253.816406 96.214844 253.511719 94.300781 253.277344 Z M 59.652344 303.339844 C 59.410156 302.617188 59.171875 301.839844 58.929688 301.003906 C 57.613281 296.339844 56.839844 292.808594 56.597656 290.414062 C 63.183594 292.6875 76.226562 297.175781 95.738281 303.875 C 102.140625 306.0625 108.09375 308.097656 113.601562 309.976562 C 114.265625 310.878906 115.074219 311.71875 116.027344 312.488281 C 116.144531 312.726562 116.207031 312.90625 116.207031 313.027344 L 108.039062 326.664062 C 98.984375 324.078125 91.050781 321.324219 84.25 318.410156 C 73.234375 313.742188 65.035156 308.722656 59.652344 303.339844 " fill-opacity="1" fill-rule="evenodd"/><path fill="#e91c24" d="M 117.101562 297.773438 C 117.34375 296.457031 117.160156 295.558594 116.5625 295.082031 L 116.382812 295.796875 C 116.144531 298.074219 115.726562 300.347656 115.128906 302.617188 L 115.484375 306.03125 C 116.207031 308.179688 117.042969 309.320312 118 309.4375 C 118.476562 309.558594 118.839844 309.496094 119.074219 309.253906 C 119.316406 308.898438 119.4375 308.601562 119.4375 308.359375 C 119.4375 308.242188 119.019531 307.34375 118.179688 305.667969 C 117.222656 303.992188 116.804688 302.558594 116.921875 301.363281 C 116.804688 301.121094 116.859375 299.925781 117.101562 297.773438 Z M 159.472656 323.609375 C 159.308594 323.679688 159.160156 323.742188 159.023438 323.792969 C 155.507812 325.214844 152.605469 325.8125 150.316406 325.585938 L 146.726562 324.691406 C 145.527344 324.570312 144.871094 325.046875 144.753906 326.121094 C 144.632812 327.316406 145.46875 327.976562 147.265625 328.09375 C 150.613281 328.457031 154.625 327.5 159.292969 325.222656 C 159.898438 324.941406 160.527344 324.613281 161.179688 324.238281 C 162.667969 323.441406 164.253906 322.457031 165.9375 321.28125 C 165.21875 321.160156 163.0625 321.9375 159.472656 323.609375 Z M 119.4375 276.421875 C 119.902344 275.617188 120.558594 274.664062 121.410156 273.550781 C 122.132812 272.695312 122.96875 271.738281 123.925781 270.675781 C 122.773438 270.566406 121.335938 271.402344 119.613281 273.191406 C 119.558594 273.242188 119.503906 273.300781 119.4375 273.367188 C 117.160156 275.28125 115.90625 277.378906 115.667969 279.648438 C 115.425781 281.324219 115.542969 282.582031 116.027344 283.421875 C 116.625 284.972656 117.101562 286.828125 117.460938 288.984375 L 117.820312 288.800781 L 118.179688 286.648438 C 118.179688 286.171875 118.058594 285.453125 117.820312 284.5 C 117.582031 283.300781 117.523438 282.40625 117.640625 281.804688 C 117.757812 279.769531 118.359375 277.976562 119.4375 276.421875 Z M 136.851562 252.378906 C 135.78125 253.371094 134.761719 254.628906 133.796875 256.148438 C 132.957031 257.660156 132.300781 259.066406 131.824219 260.359375 C 131.230469 261.789062 130.875 263.074219 130.746094 264.21875 C 130.628906 264.582031 130.628906 264.699219 130.746094 264.582031 L 130.929688 264.582031 C 131.183594 264.238281 131.902344 262.917969 133.078125 260.632812 C 133.546875 259.707031 134.082031 258.632812 134.695312 257.40625 C 136.332031 255.285156 138.25 253.785156 140.441406 252.917969 C 142.628906 252.023438 145.082031 251.722656 147.800781 252.019531 L 155.34375 253.453125 L 155.703125 253.632812 L 155.523438 253.453125 C 154.925781 252.734375 153.371094 251.957031 150.855469 251.125 C 148.582031 250.289062 146.667969 249.746094 145.109375 249.507812 C 142.054688 249.171875 139.300781 250.132812 136.851562 252.378906 Z M 174.195312 264.9375 C 173.714844 264.582031 173.179688 264.160156 172.578125 263.6875 C 165.757812 258.539062 158.214844 256.507812 149.957031 257.582031 C 145.542969 258.195312 141.589844 259.542969 138.109375 261.621094 C 134.859375 263.554688 132.015625 266.09375 129.582031 269.246094 C 129.480469 269.378906 129.394531 269.496094 129.3125 269.601562 C 128.09375 271.214844 127.046875 272.859375 126.167969 274.535156 C 123.398438 280.070312 122.472656 286.085938 123.386719 292.570312 C 124.582031 300.941406 128.53125 307.703125 135.234375 312.84375 C 135.234375 312.9375 135.265625 312.996094 135.324219 313.027344 C 135.695312 313.539062 136.203125 313.957031 136.851562 314.28125 C 143.554688 319.546875 151.15625 321.578125 159.65625 320.382812 C 168.152344 319.1875 174.976562 315.238281 180.121094 308.539062 C 184.886719 301.964844 186.921875 294.695312 186.226562 286.738281 C 186.164062 286.28125 186.101562 285.835938 186.042969 285.394531 C 185.703125 282.96875 185.136719 280.695312 184.339844 278.578125 C 183.269531 275.632812 181.773438 272.941406 179.851562 270.5 C 178.273438 268.46875 176.382812 266.617188 174.195312 264.9375 Z M 191.789062 287.816406 C 191.484375 286.710938 191.304688 286.023438 191.25 285.75 L 191.074219 285.75 C 191.074219 285.828125 191.160156 286.488281 191.339844 287.722656 C 191.46875 288.449219 191.617188 289.34375 191.789062 290.414062 C 192.390625 293.648438 192.6875 295.679688 192.6875 296.519531 C 192.328125 299.507812 191.074219 302.378906 188.917969 305.132812 C 187.960938 306.324219 185.984375 308.058594 182.992188 310.332031 C 180.121094 312.25 178.683594 313.324219 178.683594 313.5625 C 178.683594 313.921875 178.742188 313.984375 178.863281 313.742188 C 180.058594 313.148438 182.992188 311.945312 187.660156 310.152344 C 191.613281 307.761719 193.765625 304.53125 194.125 300.46875 C 194.480469 298.074219 194.304688 295.859375 193.585938 293.828125 C 192.796875 291.195312 192.199219 289.191406 191.789062 287.816406 Z M 189.542969 261.257812 C 189.023438 260.132812 188.214844 259.503906 187.121094 259.375 C 185.917969 259.269531 185.230469 259.597656 185.058594 260.359375 C 185.007812 260.460938 184.980469 260.550781 184.96875 260.632812 C 184.96875 260.871094 185.445312 261.53125 186.402344 262.605469 C 187.484375 264.160156 188.082031 266.554688 188.199219 269.78125 C 188.199219 270.445312 188.199219 271.285156 188.199219 272.296875 C 188.199219 272.878906 188.199219 273.535156 188.199219 274.265625 C 188.4375 276.0625 188.917969 277.558594 189.632812 278.753906 L 189.816406 278.578125 C 189.816406 278.335938 189.816406 277.855469 189.816406 277.140625 C 189.457031 276.304688 189.277344 275.824219 189.277344 275.703125 L 189.816406 270.5 C 190.054688 268.707031 190.234375 266.910156 190.355469 265.117188 C 190.296875 263.460938 190.03125 262.179688 189.542969 261.257812 Z M 191.160156 282.433594 C 191.222656 282.652344 191.25 282.863281 191.25 283.058594 C 192.003906 284.890625 192.75 286.597656 193.496094 288.171875 C 193.828125 288.898438 194.15625 289.582031 194.480469 290.238281 C 194.722656 290.597656 194.960938 290.957031 195.203125 291.3125 C 195.5625 292.628906 195.5625 294.664062 195.203125 297.417969 C 194.480469 304.832031 192.089844 309.675781 188.019531 311.945312 C 182.871094 313.386719 179.042969 314.699219 176.527344 315.898438 C 170.457031 319.910156 165.9375 322.804688 162.976562 324.597656 C 162.480469 324.902344 162.027344 325.171875 161.628906 325.40625 C 156.960938 328.515625 152.59375 329.832031 148.519531 329.355469 C 148.164062 329.355469 147.863281 329.355469 147.625 329.355469 C 147.320312 329.296875 147.023438 329.238281 146.726562 329.171875 C 142.460938 328.246094 138.929688 326.273438 136.132812 323.25 C 132.542969 319.664062 129.789062 317.632812 127.875 317.152344 C 122.449219 315.992188 118.617188 313.894531 116.382812 310.871094 C 114.441406 308.253906 113.664062 304.964844 114.050781 301.003906 C 115.246094 296.578125 115.84375 293.765625 115.84375 292.570312 C 115.84375 289.9375 115.542969 287.546875 114.945312 285.394531 C 114.589844 283.601562 114.46875 281.804688 114.589844 280.011719 C 114.828125 278.214844 115.605469 276.363281 116.921875 274.449219 C 117.328125 273.914062 117.746094 273.40625 118.179688 272.921875 C 119.804688 271.171875 121.785156 269.648438 124.101562 268.347656 C 124.179688 268.300781 124.273438 268.273438 124.375 268.257812 C 126.347656 267.089844 127.335938 266.101562 127.335938 265.296875 C 127.21875 263.425781 127.726562 261.574219 128.859375 259.734375 L 128.949219 259.554688 C 130.507812 257.042969 132.183594 254.890625 133.976562 253.097656 C 134.355469 252.742188 134.742188 252.417969 135.144531 252.109375 C 138.746094 249.105469 142.609375 247.820312 146.726562 248.25 C 147.800781 248.367188 150.316406 249.328125 154.265625 251.125 C 158.214844 252.675781 160.789062 253.511719 161.988281 253.632812 C 162.105469 253.632812 164.203125 253.394531 168.269531 252.917969 C 172.460938 252.4375 175.992188 252.378906 178.863281 252.734375 C 184.609375 253.453125 188.4375 255.785156 190.355469 259.734375 C 190.636719 260.296875 190.871094 260.894531 191.074219 261.53125 C 191.679688 263.648438 191.796875 266.21875 191.429688 269.246094 C 191.359375 270.195312 191.210938 271.394531 190.980469 272.832031 C 190.792969 273.753906 190.585938 274.769531 190.355469 275.882812 C 190.152344 277.171875 190.152344 278.425781 190.355469 279.648438 C 190.46875 280.566406 190.707031 281.460938 191.074219 282.34375 L 191.160156 282.433594 " fill-opacity="1" fill-rule="evenodd"/><path fill="#971a1f" d="M 159.472656 323.609375 C 163.0625 321.9375 165.21875 321.160156 165.9375 321.28125 C 164.253906 322.457031 162.667969 323.441406 161.179688 324.238281 C 160.527344 324.613281 159.898438 324.941406 159.292969 325.222656 C 154.625 327.5 150.613281 328.457031 147.265625 328.09375 C 145.46875 327.976562 144.632812 327.316406 144.753906 326.121094 C 144.871094 325.046875 145.527344 324.570312 146.726562 324.691406 L 150.316406 325.585938 C 152.605469 325.8125 155.507812 325.214844 159.023438 323.792969 C 159.160156 323.742188 159.308594 323.679688 159.472656 323.609375 Z M 174.195312 264.9375 C 176.382812 266.617188 178.273438 268.46875 179.851562 270.5 C 181.773438 272.941406 183.269531 275.632812 184.339844 278.578125 C 185.136719 280.695312 185.703125 282.96875 186.042969 285.394531 C 186.101562 285.835938 186.164062 286.28125 186.226562 286.738281 C 186.921875 294.695312 184.886719 301.964844 180.121094 308.539062 C 174.976562 315.238281 168.152344 319.1875 159.65625 320.382812 C 151.15625 321.578125 143.554688 319.546875 136.851562 314.28125 C 136.203125 313.957031 135.695312 313.539062 135.324219 313.027344 L 135.414062 313.027344 C 142.121094 318.289062 149.660156 320.382812 158.039062 319.308594 C 166.535156 317.988281 173.417969 313.984375 178.683594 307.28125 C 183.402344 301.035156 185.402344 294.097656 184.695312 286.46875 C 184.628906 285.746094 184.539062 285.023438 184.429688 284.320312 C 184.144531 282.222656 183.695312 280.214844 183.082031 278.304688 C 182.148438 275.417969 180.832031 272.753906 179.132812 270.320312 C 177.726562 268.378906 176.078125 266.582031 174.195312 264.9375 Z M 172.042969 266.011719 C 165.769531 261.632812 158.949219 260.019531 151.574219 261.171875 C 149.078125 261.511719 146.746094 262.105469 144.570312 262.964844 C 140.574219 264.519531 137.105469 266.945312 134.160156 270.230469 C 133.597656 270.820312 133.058594 271.445312 132.542969 272.117188 C 131.707031 273.195312 130.957031 274.300781 130.296875 275.433594 C 127.070312 280.910156 125.902344 286.917969 126.796875 293.46875 C 127.875 300.644531 131.046875 306.566406 136.3125 311.230469 C 130.089844 306.324219 126.5 299.988281 125.539062 292.207031 C 124.597656 286.003906 125.589844 280.292969 128.503906 275.078125 C 129.28125 273.617188 130.214844 272.210938 131.285156 270.859375 C 131.558594 270.503906 131.828125 270.144531 132.09375 269.78125 C 134.824219 266.542969 137.996094 264.0625 141.609375 262.335938 C 144.160156 261.148438 146.941406 260.335938 149.957031 259.914062 C 157.859375 258.71875 164.980469 260.570312 171.324219 265.480469 C 171.5625 265.65625 171.800781 265.835938 172.042969 266.011719 Z M 191.789062 287.816406 C 192.199219 289.191406 192.796875 291.195312 193.585938 293.828125 C 194.304688 295.859375 194.480469 298.074219 194.125 300.46875 C 193.765625 304.53125 191.613281 307.761719 187.660156 310.152344 C 182.992188 311.945312 180.058594 313.148438 178.863281 313.742188 C 178.742188 313.984375 178.683594 313.921875 178.683594 313.5625 C 178.683594 313.324219 180.121094 312.25 182.992188 310.332031 C 185.984375 308.058594 187.960938 306.324219 188.917969 305.132812 C 191.074219 302.378906 192.328125 299.507812 192.6875 296.519531 C 192.6875 295.679688 192.390625 293.648438 191.789062 290.414062 C 191.617188 289.34375 191.46875 288.449219 191.339844 287.722656 C 191.160156 286.488281 191.074219 285.828125 191.074219 285.75 L 191.25 285.75 C 191.304688 286.023438 191.484375 286.710938 191.789062 287.816406 Z M 191.160156 282.433594 L 191.074219 282.34375 C 190.707031 281.460938 190.46875 280.566406 190.355469 279.648438 C 190.152344 278.425781 190.152344 277.171875 190.355469 275.882812 C 190.585938 274.769531 190.792969 273.753906 190.980469 272.832031 C 191.210938 271.394531 191.359375 270.195312 191.429688 269.246094 C 191.796875 266.21875 191.679688 263.648438 191.074219 261.53125 C 190.871094 260.894531 190.636719 260.296875 190.355469 259.734375 C 189.996094 258.65625 189.515625 257.699219 188.917969 256.863281 C 190.511719 258.140625 191.679688 259.78125 192.421875 261.796875 C 193.359375 264.300781 193.625 267.378906 193.226562 271.039062 C 193.175781 271.636719 193.085938 272.390625 192.957031 273.28125 C 192.765625 274.472656 192.5 275.9375 192.148438 277.679688 C 192.03125 278.464844 192.003906 279.214844 192.058594 279.921875 C 192.113281 281.449219 192.503906 282.851562 193.226562 284.136719 C 193.800781 285.691406 194.402344 287.15625 195.023438 288.535156 C 195.652344 289.984375 196.316406 291.332031 196.996094 292.570312 L 196.996094 292.75 C 197.476562 294.066406 197.535156 296.160156 197.175781 299.027344 C 196.339844 306.925781 193.765625 312.066406 189.457031 314.460938 L 189.277344 314.636719 C 185.445312 315.71875 182.394531 316.734375 180.121094 317.691406 C 179.28125 317.929688 178.566406 318.226562 177.964844 318.589844 C 173.46875 321.433594 169.878906 323.734375 167.191406 325.496094 C 165.542969 326.5625 164.230469 327.425781 163.246094 328.09375 L 163.246094 327.917969 C 158.457031 331.03125 153.96875 332.402344 149.78125 332.042969 C 149.660156 332.042969 149.480469 332.042969 149.238281 332.042969 C 146.964844 331.804688 144.871094 331.265625 142.953125 330.429688 C 140.441406 329.355469 138.167969 327.859375 136.132812 325.945312 C 132.78125 322.234375 130.207031 320.203125 128.414062 319.84375 C 122.789062 318.648438 118.71875 316.375 116.207031 313.027344 C 116.207031 312.90625 116.144531 312.726562 116.027344 312.488281 C 118.296875 314.519531 121.652344 316.015625 126.082031 316.972656 C 127.753906 317.449219 130.265625 319.429688 133.621094 322.894531 C 137.09375 326.484375 141.457031 328.574219 146.726562 329.171875 C 147.023438 329.238281 147.320312 329.296875 147.625 329.355469 C 147.863281 329.355469 148.164062 329.355469 148.519531 329.355469 C 152.59375 329.832031 156.960938 328.515625 161.628906 325.40625 C 162.027344 325.171875 162.480469 324.902344 162.976562 324.597656 C 165.9375 322.804688 170.457031 319.910156 176.527344 315.898438 C 179.042969 314.699219 182.871094 313.386719 188.019531 311.945312 C 192.089844 309.675781 194.480469 304.832031 195.203125 297.417969 C 195.5625 294.664062 195.5625 292.628906 195.203125 291.3125 C 194.960938 290.957031 194.722656 290.597656 194.480469 290.238281 C 194.601562 289.996094 194.601562 289.820312 194.480469 289.699219 C 194.257812 289.226562 194.019531 288.75 193.765625 288.265625 C 192.941406 286.433594 192.070312 284.488281 191.160156 282.433594 Z M 189.542969 261.257812 C 190.03125 262.179688 190.296875 263.460938 190.355469 265.117188 C 190.234375 266.910156 190.054688 268.707031 189.816406 270.5 L 189.277344 275.703125 C 189.277344 275.824219 189.457031 276.304688 189.816406 277.140625 C 189.816406 277.855469 189.816406 278.335938 189.816406 278.578125 L 189.632812 278.753906 C 188.917969 277.558594 188.4375 276.0625 188.199219 274.265625 C 188.199219 273.535156 188.199219 272.878906 188.199219 272.296875 C 188.199219 271.285156 188.199219 270.445312 188.199219 269.78125 C 188.082031 266.554688 187.484375 264.160156 186.402344 262.605469 C 185.445312 261.53125 184.96875 260.871094 184.96875 260.632812 C 184.980469 260.550781 185.007812 260.460938 185.058594 260.359375 C 185.230469 259.597656 185.917969 259.269531 187.121094 259.375 C 188.214844 259.503906 189.023438 260.132812 189.542969 261.257812 " fill-opacity="1" fill-rule="evenodd"/><path fill="#ed1d24" d="M 117.101562 297.773438 C 116.859375 299.925781 116.804688 301.121094 116.921875 301.363281 C 116.804688 302.558594 117.222656 303.992188 118.179688 305.667969 C 119.019531 307.34375 119.4375 308.242188 119.4375 308.359375 C 119.4375 308.601562 119.316406 308.898438 119.074219 309.253906 C 118.839844 309.496094 118.476562 309.558594 118 309.4375 C 117.042969 309.320312 116.207031 308.179688 115.484375 306.03125 L 115.128906 302.617188 C 115.726562 300.347656 116.144531 298.074219 116.382812 295.796875 L 116.5625 295.082031 C 117.160156 295.558594 117.34375 296.457031 117.101562 297.773438 Z M 133.441406 276.0625 C 133.679688 275.070312 133.796875 274.535156 133.796875 274.449219 C 134.394531 272.773438 135.535156 271.878906 137.210938 271.757812 C 139.007812 271.757812 141.28125 272.535156 144.035156 274.089844 L 143.316406 277.316406 C 143.25 277.578125 143.160156 277.8125 143.046875 278.039062 C 142.824219 278.675781 142.496094 279.214844 142.054688 279.648438 C 143.019531 280.371094 143.855469 281.625 144.570312 283.421875 C 146.367188 287.367188 147.382812 289.515625 147.625 289.882812 C 149.660156 287.488281 151.753906 285.332031 153.910156 283.421875 C 154.144531 283.421875 154.445312 283.300781 154.808594 283.058594 C 154.085938 282.34375 153.667969 281.507812 153.546875 280.546875 C 153.519531 280.4375 153.519531 280.316406 153.546875 280.1875 C 153.539062 279.703125 153.71875 279.046875 154.085938 278.214844 C 154.5625 276.78125 155.460938 275.824219 156.777344 275.34375 C 157.382812 275.042969 158.011719 274.863281 158.667969 274.808594 C 159.265625 274.746094 159.898438 274.808594 160.550781 274.988281 C 160.871094 275.066406 161.171875 275.15625 161.449219 275.253906 C 162.417969 275.648438 163.140625 276.214844 163.605469 276.957031 C 164.320312 277.917969 164.4375 279.113281 163.960938 280.546875 C 163.757812 281.109375 163.460938 281.621094 163.0625 282.074219 C 162.519531 282.730469 161.800781 283.296875 160.90625 283.777344 C 160.074219 284.253906 159.175781 284.4375 158.214844 284.320312 C 158.214844 284.554688 158.214844 284.855469 158.214844 285.214844 C 158.933594 287.96875 159.234375 290.957031 159.113281 294.183594 C 159.589844 293.945312 161.746094 292.929688 165.578125 291.136719 C 167.015625 290.414062 168.210938 289.996094 169.167969 289.882812 L 169.707031 287.90625 C 170.183594 286.589844 170.964844 285.691406 172.042969 285.214844 C 173.117188 284.855469 174.195312 284.855469 175.273438 285.214844 C 177.90625 286.046875 178.625 287.90625 177.425781 290.777344 C 176.949219 292.328125 176.050781 293.351562 174.734375 293.828125 C 173.777344 294.183594 172.878906 294.246094 172.042969 294.003906 C 171.800781 293.765625 171.5 293.648438 171.144531 293.648438 C 170.183594 295.441406 168.390625 297.953125 165.757812 301.183594 C 163.121094 304.53125 161.148438 306.683594 159.832031 307.644531 L 138.289062 299.75 C 137.925781 298.3125 137.808594 295.5 137.925781 291.3125 C 137.925781 286.765625 138.226562 283.480469 138.824219 281.445312 C 137.867188 281.5625 136.972656 281.445312 136.132812 281.085938 C 134.21875 280.371094 133.199219 279.113281 133.078125 277.316406 C 133.210938 276.835938 133.328125 276.414062 133.441406 276.0625 Z M 119.4375 276.421875 C 118.359375 277.976562 117.757812 279.769531 117.640625 281.804688 C 117.523438 282.40625 117.582031 283.300781 117.820312 284.5 C 118.058594 285.453125 118.179688 286.171875 118.179688 286.648438 L 117.820312 288.800781 L 117.460938 288.984375 C 117.101562 286.828125 116.625 284.972656 116.027344 283.421875 C 115.542969 282.582031 115.425781 281.324219 115.667969 279.648438 C 115.90625 277.378906 117.160156 275.28125 119.4375 273.367188 C 119.503906 273.300781 119.558594 273.242188 119.613281 273.191406 C 121.335938 271.402344 122.773438 270.566406 123.925781 270.675781 C 122.96875 271.738281 122.132812 272.695312 121.410156 273.550781 C 120.558594 274.664062 119.902344 275.617188 119.4375 276.421875 Z M 136.851562 252.378906 C 139.300781 250.132812 142.054688 249.171875 145.109375 249.507812 C 146.667969 249.746094 148.582031 250.289062 150.855469 251.125 C 153.371094 251.957031 154.925781 252.734375 155.523438 253.453125 L 155.703125 253.632812 L 155.34375 253.453125 L 147.800781 252.019531 C 145.082031 251.722656 142.628906 252.023438 140.441406 252.917969 C 138.25 253.785156 136.332031 255.285156 134.695312 257.40625 C 134.082031 258.632812 133.546875 259.707031 133.078125 260.632812 C 131.902344 262.917969 131.183594 264.238281 130.929688 264.582031 L 130.746094 264.582031 C 130.628906 264.699219 130.628906 264.582031 130.746094 264.21875 C 130.875 263.074219 131.230469 261.789062 131.824219 260.359375 C 132.300781 259.066406 132.957031 257.660156 133.796875 256.148438 C 134.761719 254.628906 135.78125 253.371094 136.851562 252.378906 Z M 135.324219 313.027344 C 135.265625 312.996094 135.234375 312.9375 135.234375 312.84375 C 128.53125 307.703125 124.582031 300.941406 123.386719 292.570312 C 122.472656 286.085938 123.398438 280.070312 126.167969 274.535156 C 127.046875 272.859375 128.09375 271.214844 129.3125 269.601562 C 129.394531 269.496094 129.480469 269.378906 129.582031 269.246094 C 132.015625 266.09375 134.859375 263.554688 138.109375 261.621094 C 141.589844 259.542969 145.542969 258.195312 149.957031 257.582031 C 158.214844 256.507812 165.757812 258.539062 172.578125 263.6875 C 173.179688 264.160156 173.714844 264.582031 174.195312 264.9375 C 176.078125 266.582031 177.726562 268.378906 179.132812 270.320312 C 180.832031 272.753906 182.148438 275.417969 183.082031 278.304688 C 183.695312 280.214844 184.144531 282.222656 184.429688 284.320312 C 184.539062 285.023438 184.628906 285.746094 184.695312 286.46875 C 185.402344 294.097656 183.402344 301.035156 178.683594 307.28125 C 173.417969 313.984375 166.535156 317.988281 158.039062 319.308594 C 149.660156 320.382812 142.121094 318.289062 135.414062 313.027344 Z M 172.042969 266.011719 C 171.800781 265.835938 171.5625 265.65625 171.324219 265.480469 C 164.980469 260.570312 157.859375 258.71875 149.957031 259.914062 C 146.941406 260.335938 144.160156 261.148438 141.609375 262.335938 C 137.996094 264.0625 134.824219 266.542969 132.09375 269.78125 C 131.828125 270.144531 131.558594 270.503906 131.285156 270.859375 C 130.214844 272.210938 129.28125 273.617188 128.503906 275.078125 C 125.589844 280.292969 124.597656 286.003906 125.539062 292.207031 C 126.5 299.988281 130.089844 306.324219 136.3125 311.230469 C 136.550781 311.230469 136.734375 311.292969 136.851562 311.410156 C 143.074219 316.3125 150.136719 318.226562 158.039062 317.152344 C 165.699219 315.957031 171.980469 312.191406 176.890625 305.851562 C 181.363281 300.03125 183.277344 293.421875 182.636719 286.023438 C 182.585938 285.527344 182.523438 285.019531 182.453125 284.5 C 182.140625 282.148438 181.605469 279.933594 180.839844 277.855469 C 179.652344 274.785156 177.945312 272.035156 175.71875 269.601562 C 174.9375 268.726562 174.070312 267.886719 173.117188 267.089844 L 172.9375 266.730469 C 172.820312 266.730469 172.761719 266.671875 172.761719 266.554688 Z M 191.160156 282.433594 C 192.070312 284.488281 192.941406 286.433594 193.765625 288.265625 C 194.019531 288.75 194.257812 289.226562 194.480469 289.699219 C 194.601562 289.820312 194.601562 289.996094 194.480469 290.238281 C 194.15625 289.582031 193.828125 288.898438 193.496094 288.171875 C 192.75 286.597656 192.003906 284.890625 191.25 283.058594 C 191.25 282.863281 191.222656 282.652344 191.160156 282.433594 Z M 146.726562 329.171875 C 141.457031 328.574219 137.09375 326.484375 133.621094 322.894531 C 130.265625 319.429688 127.753906 317.449219 126.082031 316.972656 C 121.652344 316.015625 118.296875 314.519531 116.027344 312.488281 C 115.074219 311.71875 114.265625 310.878906 113.601562 309.976562 C 111.6875 307.25 111.003906 303.835938 111.535156 299.75 L 111.535156 299.570312 C 112.613281 295.144531 113.152344 292.390625 113.152344 291.3125 C 113.152344 288.800781 112.914062 286.46875 112.433594 284.320312 C 111.953125 282.523438 111.835938 280.667969 112.078125 278.753906 C 112.3125 276.839844 113.09375 274.867188 114.410156 272.832031 L 114.410156 272.652344 C 114.515625 272.496094 114.636719 272.347656 114.769531 272.207031 C 116.132812 270.3125 117.902344 268.695312 120.066406 267.363281 C 120.660156 267.023438 121.285156 266.695312 121.953125 266.375 C 123.625 265.414062 124.464844 264.640625 124.464844 264.039062 L 124.464844 263.863281 C 124.464844 262.308594 124.882812 260.726562 125.71875 259.105469 C 125.949219 258.714844 126.1875 258.324219 126.4375 257.941406 C 127.808594 255.425781 129.457031 253.304688 131.375 251.574219 C 131.464844 251.472656 131.554688 251.382812 131.644531 251.304688 C 135.714844 247.355469 140.203125 245.621094 145.109375 246.097656 C 146.308594 246.21875 148.941406 247.171875 153.011719 248.96875 C 156.839844 250.40625 159.292969 251.183594 160.371094 251.304688 C 160.488281 251.304688 162.585938 251.125 166.652344 250.761719 L 166.652344 250.941406 C 170.847656 250.226562 174.4375 250.042969 177.425781 250.40625 C 182.933594 251.242188 186.765625 253.394531 188.917969 256.863281 C 189.515625 257.699219 189.996094 258.65625 190.355469 259.734375 C 188.4375 255.785156 184.609375 253.453125 178.863281 252.734375 C 175.992188 252.378906 172.460938 252.4375 168.269531 252.917969 C 164.203125 253.394531 162.105469 253.632812 161.988281 253.632812 C 160.789062 253.511719 158.214844 252.675781 154.265625 251.125 C 150.316406 249.328125 147.800781 248.367188 146.726562 248.25 C 142.609375 247.820312 138.746094 249.105469 135.144531 252.109375 C 134.742188 252.417969 134.355469 252.742188 133.976562 253.097656 C 132.183594 254.890625 130.507812 257.042969 128.949219 259.554688 L 128.859375 259.734375 C 127.726562 261.574219 127.21875 263.425781 127.335938 265.296875 C 127.335938 266.101562 126.347656 267.089844 124.375 268.257812 C 124.273438 268.273438 124.179688 268.300781 124.101562 268.347656 C 121.785156 269.648438 119.804688 271.171875 118.179688 272.921875 C 117.746094 273.40625 117.328125 273.914062 116.921875 274.449219 C 115.605469 276.363281 114.828125 278.214844 114.589844 280.011719 C 114.46875 281.804688 114.589844 283.601562 114.945312 285.394531 C 115.542969 287.546875 115.84375 289.9375 115.84375 292.570312 C 115.84375 293.765625 115.246094 296.578125 114.050781 301.003906 C 113.664062 304.964844 114.441406 308.253906 116.382812 310.871094 C 118.617188 313.894531 122.449219 315.992188 127.875 317.152344 C 129.789062 317.632812 132.542969 319.664062 136.132812 323.25 C 138.929688 326.273438 142.460938 328.246094 146.726562 329.171875 " fill-opacity="1" fill-rule="evenodd"/><path fill="#b21d23" d="M 133.441406 276.0625 C 133.328125 276.414062 133.210938 276.835938 133.078125 277.316406 C 133.199219 279.113281 134.21875 280.371094 136.132812 281.085938 C 136.972656 281.445312 137.867188 281.5625 138.824219 281.445312 C 138.226562 283.480469 137.925781 286.765625 137.925781 291.3125 C 137.808594 295.5 137.925781 298.3125 138.289062 299.75 L 159.832031 307.644531 C 161.148438 306.683594 163.121094 304.53125 165.757812 301.183594 C 168.390625 297.953125 170.183594 295.441406 171.144531 293.648438 C 171.5 293.648438 171.800781 293.765625 172.042969 294.003906 C 172.878906 294.246094 173.777344 294.183594 174.734375 293.828125 C 176.050781 293.351562 176.949219 292.328125 177.425781 290.777344 C 178.625 287.90625 177.90625 286.046875 175.273438 285.214844 C 174.195312 284.855469 173.117188 284.855469 172.042969 285.214844 C 170.964844 285.691406 170.183594 286.589844 169.707031 287.90625 L 169.167969 289.882812 C 168.210938 289.996094 167.015625 290.414062 165.578125 291.136719 C 161.746094 292.929688 159.589844 293.945312 159.113281 294.183594 C 159.234375 290.957031 158.933594 287.96875 158.214844 285.214844 C 158.214844 284.855469 158.214844 284.554688 158.214844 284.320312 C 159.175781 284.4375 160.074219 284.253906 160.90625 283.777344 C 161.800781 283.296875 162.519531 282.730469 163.0625 282.074219 C 163.460938 281.621094 163.757812 281.109375 163.960938 280.546875 C 164.4375 279.113281 164.320312 277.917969 163.605469 276.957031 C 163.140625 276.214844 162.417969 275.648438 161.449219 275.253906 C 161.171875 275.15625 160.871094 275.066406 160.550781 274.988281 C 159.898438 274.808594 159.265625 274.746094 158.667969 274.808594 C 158.011719 274.863281 157.382812 275.042969 156.777344 275.34375 C 155.460938 275.824219 154.5625 276.78125 154.085938 278.214844 C 153.71875 279.046875 153.539062 279.703125 153.546875 280.1875 C 153.519531 280.316406 153.519531 280.4375 153.546875 280.546875 C 153.667969 281.507812 154.085938 282.34375 154.808594 283.058594 C 154.445312 283.300781 154.144531 283.421875 153.910156 283.421875 C 151.753906 285.332031 149.660156 287.488281 147.625 289.882812 C 147.382812 289.515625 146.367188 287.367188 144.570312 283.421875 C 143.855469 281.625 143.019531 280.371094 142.054688 279.648438 C 142.496094 279.214844 142.824219 278.675781 143.046875 278.039062 C 143.160156 277.8125 143.25 277.578125 143.316406 277.316406 L 144.035156 274.089844 C 141.28125 272.535156 139.007812 271.757812 137.210938 271.757812 C 135.535156 271.878906 134.394531 272.773438 133.796875 274.449219 C 133.796875 274.535156 133.679688 275.070312 133.441406 276.0625 Z M 136.3125 311.230469 C 131.046875 306.566406 127.875 300.644531 126.796875 293.46875 C 125.902344 286.917969 127.070312 280.910156 130.296875 275.433594 C 130.957031 274.300781 131.707031 273.195312 132.542969 272.117188 C 133.058594 271.445312 133.597656 270.820312 134.160156 270.230469 C 137.105469 266.945312 140.574219 264.519531 144.570312 262.964844 C 146.746094 262.105469 149.078125 261.511719 151.574219 261.171875 C 158.949219 260.019531 165.769531 261.632812 172.042969 266.011719 L 172.761719 266.554688 C 172.761719 266.671875 172.820312 266.730469 172.9375 266.730469 L 173.117188 267.089844 C 174.070312 267.886719 174.9375 268.726562 175.71875 269.601562 C 177.945312 272.035156 179.652344 274.785156 180.839844 277.855469 C 181.605469 279.933594 182.140625 282.148438 182.453125 284.5 C 182.523438 285.019531 182.585938 285.527344 182.636719 286.023438 C 183.277344 293.421875 181.363281 300.03125 176.890625 305.851562 C 171.980469 312.191406 165.699219 315.957031 158.039062 317.152344 C 150.136719 318.226562 143.074219 316.3125 136.851562 311.410156 C 136.734375 311.292969 136.550781 311.230469 136.3125 311.230469 " fill-opacity="1" fill-rule="evenodd"/><g clip-path="url(#859f490ea2)"><g clip-path="url(#b2a84bd0cb)"><g clip-path="url(#fb9640da1f)"><path fill="url(#59aef55c30)" d="M 188.507812 312.917969 L 142.8125 318.550781 L 150.367188 379.773438 L 196.0625 374.140625 Z M 188.507812 312.917969 " fill-rule="nonzero"/></g></g></g><g clip-path="url(#86b97f4581)"><g clip-path="url(#259bb23e12)"><g clip-path="url(#1ed2a1837f)"><path fill="url(#83c8e670cf)" d="M 170.332031 329.472656 L 98.242188 286.171875 L 54.714844 358.554688 L 126.804688 401.855469 Z M 170.332031 329.472656 " fill-rule="nonzero"/></g></g></g></svg>