<svg xmlns="http://www.w3.org/2000/svg" xmlns:xlink="http://www.w3.org/1999/xlink" width="500" zoomAndPan="magnify" viewBox="0 0 375 374.999991" height="500" preserveAspectRatio="xMidYMid meet" version="1.0"><defs><clipPath id="679145c680"><path d="M 165 110 L 373.5 110 L 373.5 250 L 165 250 Z M 165 110 " clip-rule="nonzero"/></clipPath><clipPath id="8dde534783"><path d="M 165 109 L 373.5 109 L 373.5 251 L 165 251 Z M 165 109 " clip-rule="nonzero"/></clipPath><clipPath id="84a7114ff6"><path d="M 165 110 L 373.5 110 L 373.5 131 L 165 131 Z M 165 110 " clip-rule="nonzero"/></clipPath><clipPath id="bbbbc0dd3b"><path d="M 165 109 L 373.5 109 L 373.5 131 L 165 131 Z M 165 109 " clip-rule="nonzero"/></clipPath></defs><rect x="-37.5" width="450" fill="#ffffff" y="-37.499999" height="449.999989" fill-opacity="1"/><rect x="-37.5" width="450" fill="#ffffff" y="-37.499999" height="449.999989" fill-opacity="1"/><path fill="#fed101" d="M 235.367188 226.296875 L 125.730469 226.296875 L 125.730469 3.550781 L 235.367188 3.550781 L 235.367188 226.296875 " fill-opacity="1" fill-rule="nonzero"/><path fill="#000000" d="M 138.195312 42.074219 L 222.898438 42.074219 L 222.898438 19.777344 L 138.195312 19.777344 Z M 223.355469 42.984375 L 137.742188 42.984375 C 137.492188 42.984375 137.289062 42.78125 137.289062 42.527344 L 137.289062 19.320312 C 137.289062 19.070312 137.492188 18.867188 137.742188 18.867188 L 223.355469 18.867188 C 223.605469 18.867188 223.808594 19.070312 223.808594 19.320312 L 223.808594 42.527344 C 223.808594 42.78125 223.605469 42.984375 223.355469 42.984375 " fill-opacity="1" fill-rule="nonzero"/><path fill="#000000" d="M 138.195312 75.09375 L 222.902344 75.09375 L 222.902344 52.792969 L 138.195312 52.792969 Z M 223.355469 76.003906 L 137.742188 76.003906 C 137.492188 76.003906 137.289062 75.796875 137.289062 75.546875 L 137.289062 52.339844 C 137.289062 52.089844 137.492188 51.886719 137.742188 51.886719 L 223.355469 51.886719 C 223.605469 51.886719 223.808594 52.089844 223.808594 52.339844 L 223.808594 75.546875 C 223.808594 75.796875 223.605469 76.003906 223.355469 76.003906 " fill-opacity="1" fill-rule="nonzero"/><path fill="#000000" d="M 138.195312 108.109375 L 222.902344 108.109375 L 222.902344 85.8125 L 138.195312 85.8125 Z M 223.355469 109.019531 L 137.742188 109.019531 C 137.492188 109.019531 137.289062 108.816406 137.289062 108.566406 L 137.289062 85.355469 C 137.289062 85.105469 137.492188 84.902344 137.742188 84.902344 L 223.355469 84.902344 C 223.605469 84.902344 223.808594 85.105469 223.808594 85.355469 L 223.808594 108.566406 C 223.808594 108.816406 223.605469 109.019531 223.355469 109.019531 " fill-opacity="1" fill-rule="nonzero"/><path fill="#000000" d="M 138.195312 141.128906 L 222.902344 141.128906 L 222.902344 118.828125 L 138.195312 118.828125 Z M 223.355469 142.035156 L 137.742188 142.035156 C 137.492188 142.035156 137.289062 141.832031 137.289062 141.582031 L 137.289062 118.375 C 137.289062 118.125 137.492188 117.921875 137.742188 117.921875 L 223.355469 117.921875 C 223.605469 117.921875 223.808594 118.125 223.808594 118.375 L 223.808594 141.582031 C 223.808594 141.832031 223.605469 142.035156 223.355469 142.035156 " fill-opacity="1" fill-rule="nonzero"/><path fill="#000000" d="M 138.195312 174.144531 L 222.902344 174.144531 L 222.902344 151.847656 L 138.195312 151.847656 Z M 223.355469 175.054688 L 137.742188 175.054688 C 137.492188 175.054688 137.289062 174.851562 137.289062 174.601562 L 137.289062 151.390625 C 137.289062 151.144531 137.492188 150.9375 137.742188 150.9375 L 223.355469 150.9375 C 223.605469 150.9375 223.808594 151.144531 223.808594 151.390625 L 223.808594 174.601562 C 223.808594 174.851562 223.605469 175.054688 223.355469 175.054688 " fill-opacity="1" fill-rule="nonzero"/><path fill="#000000" d="M 138.195312 207.164062 L 222.902344 207.164062 L 222.902344 184.863281 L 138.195312 184.863281 Z M 223.355469 208.070312 L 137.742188 208.070312 C 137.492188 208.070312 137.289062 207.871094 137.289062 207.617188 L 137.289062 184.410156 C 137.289062 184.160156 137.492188 183.957031 137.742188 183.957031 L 223.355469 183.957031 C 223.605469 183.957031 223.808594 184.160156 223.808594 184.410156 L 223.808594 207.617188 C 223.808594 207.871094 223.605469 208.070312 223.355469 208.070312 " fill-opacity="1" fill-rule="nonzero"/><path fill="#8c7bff" d="M 145.523438 38.363281 L 142.398438 38.363281 L 142.398438 25.421875 L 145.523438 25.421875 L 145.523438 38.363281 " fill-opacity="1" fill-rule="nonzero"/><path fill="#8c7bff" d="M 151.523438 38.363281 L 148.398438 38.363281 L 148.398438 28.296875 L 151.523438 28.296875 L 151.523438 38.363281 " fill-opacity="1" fill-rule="nonzero"/><path fill="#8c7bff" d="M 157.527344 38.363281 L 154.402344 38.363281 L 154.402344 25.421875 L 157.527344 25.421875 L 157.527344 38.363281 " fill-opacity="1" fill-rule="nonzero"/><path fill="#8c7bff" d="M 163.527344 38.363281 L 160.402344 38.363281 L 160.402344 28.296875 L 163.527344 28.296875 L 163.527344 38.363281 " fill-opacity="1" fill-rule="nonzero"/><path fill="#8c7bff" d="M 169.605469 38.363281 L 166.480469 38.363281 L 166.480469 25.421875 L 169.605469 25.421875 L 169.605469 38.363281 " fill-opacity="1" fill-rule="nonzero"/><path fill="#8c7bff" d="M 175.609375 38.363281 L 172.480469 38.363281 L 172.480469 28.296875 L 175.609375 28.296875 L 175.609375 38.363281 " fill-opacity="1" fill-rule="nonzero"/><path fill="#8c7bff" d="M 181.613281 38.363281 L 178.484375 38.363281 L 178.484375 25.421875 L 181.613281 25.421875 L 181.613281 38.363281 " fill-opacity="1" fill-rule="nonzero"/><path fill="#8c7bff" d="M 187.613281 38.363281 L 184.488281 38.363281 L 184.488281 28.296875 L 187.613281 28.296875 L 187.613281 38.363281 " fill-opacity="1" fill-rule="nonzero"/><path fill="#8c7bff" d="M 193.59375 38.363281 L 190.46875 38.363281 L 190.46875 25.421875 L 193.59375 25.421875 L 193.59375 38.363281 " fill-opacity="1" fill-rule="nonzero"/><path fill="#8c7bff" d="M 199.59375 38.363281 L 196.46875 38.363281 L 196.46875 28.296875 L 199.59375 28.296875 L 199.59375 38.363281 " fill-opacity="1" fill-rule="nonzero"/><path fill="#8c7bff" d="M 205.597656 38.363281 L 202.472656 38.363281 L 202.472656 25.421875 L 205.597656 25.421875 L 205.597656 38.363281 " fill-opacity="1" fill-rule="nonzero"/><path fill="#8c7bff" d="M 211.597656 38.363281 L 208.472656 38.363281 L 208.472656 28.296875 L 211.597656 28.296875 L 211.597656 38.363281 " fill-opacity="1" fill-rule="nonzero"/><path fill="#8c7bff" d="M 217.601562 38.363281 L 214.476562 38.363281 L 214.476562 28.296875 L 217.601562 28.296875 L 217.601562 38.363281 " fill-opacity="1" fill-rule="nonzero"/><path fill="#8c7bff" d="M 145.523438 71.191406 L 142.398438 71.191406 L 142.398438 58.25 L 145.523438 58.25 L 145.523438 71.191406 " fill-opacity="1" fill-rule="nonzero"/><path fill="#8c7bff" d="M 151.523438 71.191406 L 148.398438 71.191406 L 148.398438 61.125 L 151.523438 61.125 L 151.523438 71.191406 " fill-opacity="1" fill-rule="nonzero"/><path fill="#8c7bff" d="M 157.527344 71.191406 L 154.402344 71.191406 L 154.402344 58.25 L 157.527344 58.25 L 157.527344 71.191406 " fill-opacity="1" fill-rule="nonzero"/><path fill="#8c7bff" d="M 163.527344 71.191406 L 160.402344 71.191406 L 160.402344 61.125 L 163.527344 61.125 L 163.527344 71.191406 " fill-opacity="1" fill-rule="nonzero"/><path fill="#8c7bff" d="M 169.605469 71.191406 L 166.480469 71.191406 L 166.480469 58.25 L 169.605469 58.25 L 169.605469 71.191406 " fill-opacity="1" fill-rule="nonzero"/><path fill="#8c7bff" d="M 175.609375 71.191406 L 172.480469 71.191406 L 172.480469 61.125 L 175.609375 61.125 L 175.609375 71.191406 " fill-opacity="1" fill-rule="nonzero"/><path fill="#8c7bff" d="M 181.613281 71.191406 L 178.484375 71.191406 L 178.484375 58.25 L 181.613281 58.25 L 181.613281 71.191406 " fill-opacity="1" fill-rule="nonzero"/><path fill="#8c7bff" d="M 187.609375 71.191406 L 184.488281 71.191406 L 184.488281 61.125 L 187.609375 61.125 L 187.609375 71.191406 " fill-opacity="1" fill-rule="nonzero"/><path fill="#8c7bff" d="M 193.59375 71.191406 L 190.46875 71.191406 L 190.46875 58.25 L 193.59375 58.25 L 193.59375 71.191406 " fill-opacity="1" fill-rule="nonzero"/><path fill="#8c7bff" d="M 199.59375 71.191406 L 196.46875 71.191406 L 196.46875 61.125 L 199.59375 61.125 L 199.59375 71.191406 " fill-opacity="1" fill-rule="nonzero"/><path fill="#8c7bff" d="M 205.597656 71.191406 L 202.472656 71.191406 L 202.472656 58.25 L 205.597656 58.25 L 205.597656 71.191406 " fill-opacity="1" fill-rule="nonzero"/><path fill="#8c7bff" d="M 211.597656 71.191406 L 208.472656 71.191406 L 208.472656 61.125 L 211.597656 61.125 L 211.597656 71.191406 " fill-opacity="1" fill-rule="nonzero"/><path fill="#8c7bff" d="M 217.601562 71.191406 L 214.476562 71.191406 L 214.476562 61.125 L 217.601562 61.125 L 217.601562 71.191406 " fill-opacity="1" fill-rule="nonzero"/><path fill="#8c7bff" d="M 145.523438 104.3125 L 142.398438 104.3125 L 142.398438 91.371094 L 145.523438 91.371094 L 145.523438 104.3125 " fill-opacity="1" fill-rule="nonzero"/><path fill="#8c7bff" d="M 151.523438 104.316406 L 148.398438 104.316406 L 148.398438 94.25 L 151.523438 94.25 L 151.523438 104.316406 " fill-opacity="1" fill-rule="nonzero"/><path fill="#8c7bff" d="M 157.527344 104.3125 L 154.402344 104.3125 L 154.402344 91.371094 L 157.527344 91.371094 L 157.527344 104.3125 " fill-opacity="1" fill-rule="nonzero"/><path fill="#8c7bff" d="M 163.53125 104.316406 L 160.402344 104.316406 L 160.402344 94.25 L 163.53125 94.25 L 163.53125 104.316406 " fill-opacity="1" fill-rule="nonzero"/><path fill="#8c7bff" d="M 169.609375 104.3125 L 166.480469 104.3125 L 166.480469 91.371094 L 169.609375 91.371094 L 169.609375 104.3125 " fill-opacity="1" fill-rule="nonzero"/><path fill="#8c7bff" d="M 175.609375 104.316406 L 172.484375 104.316406 L 172.484375 94.25 L 175.609375 94.25 L 175.609375 104.316406 " fill-opacity="1" fill-rule="nonzero"/><path fill="#8c7bff" d="M 181.613281 104.3125 L 178.488281 104.3125 L 178.488281 91.371094 L 181.613281 91.371094 L 181.613281 104.3125 " fill-opacity="1" fill-rule="nonzero"/><path fill="#8c7bff" d="M 187.613281 104.316406 L 184.488281 104.316406 L 184.488281 94.25 L 187.613281 94.25 L 187.613281 104.316406 " fill-opacity="1" fill-rule="nonzero"/><path fill="#8c7bff" d="M 193.59375 104.3125 L 190.464844 104.3125 L 190.464844 91.371094 L 193.59375 91.371094 L 193.59375 104.3125 " fill-opacity="1" fill-rule="nonzero"/><path fill="#8c7bff" d="M 199.59375 104.316406 L 196.46875 104.316406 L 196.46875 94.25 L 199.59375 94.25 L 199.59375 104.316406 " fill-opacity="1" fill-rule="nonzero"/><path fill="#8c7bff" d="M 205.597656 104.3125 L 202.472656 104.3125 L 202.472656 91.371094 L 205.597656 91.371094 L 205.597656 104.3125 " fill-opacity="1" fill-rule="nonzero"/><path fill="#8c7bff" d="M 211.601562 104.316406 L 208.472656 104.316406 L 208.472656 94.25 L 211.601562 94.25 L 211.601562 104.316406 " fill-opacity="1" fill-rule="nonzero"/><path fill="#8c7bff" d="M 217.601562 104.316406 L 214.476562 104.316406 L 214.476562 94.25 L 217.601562 94.25 L 217.601562 104.316406 " fill-opacity="1" fill-rule="nonzero"/><path fill="#8c7bff" d="M 145.523438 136.945312 L 142.398438 136.945312 L 142.398438 124.003906 L 145.523438 124.003906 L 145.523438 136.945312 " fill-opacity="1" fill-rule="nonzero"/><path fill="#8c7bff" d="M 151.523438 136.945312 L 148.398438 136.945312 L 148.398438 126.878906 L 151.523438 126.878906 L 151.523438 136.945312 " fill-opacity="1" fill-rule="nonzero"/><path fill="#8c7bff" d="M 157.527344 136.945312 L 154.402344 136.945312 L 154.402344 124.003906 L 157.527344 124.003906 L 157.527344 136.945312 " fill-opacity="1" fill-rule="nonzero"/><path fill="#8c7bff" d="M 163.53125 136.945312 L 160.402344 136.945312 L 160.402344 126.878906 L 163.53125 126.878906 L 163.53125 136.945312 " fill-opacity="1" fill-rule="nonzero"/><path fill="#8c7bff" d="M 169.605469 136.945312 L 166.480469 136.945312 L 166.480469 124.003906 L 169.605469 124.003906 L 169.605469 136.945312 " fill-opacity="1" fill-rule="nonzero"/><path fill="#8c7bff" d="M 175.609375 136.945312 L 172.484375 136.945312 L 172.484375 126.878906 L 175.609375 126.878906 L 175.609375 136.945312 " fill-opacity="1" fill-rule="nonzero"/><path fill="#8c7bff" d="M 181.613281 136.945312 L 178.484375 136.945312 L 178.484375 124.003906 L 181.613281 124.003906 L 181.613281 136.945312 " fill-opacity="1" fill-rule="nonzero"/><path fill="#8c7bff" d="M 187.613281 136.945312 L 184.488281 136.945312 L 184.488281 126.878906 L 187.613281 126.878906 L 187.613281 136.945312 " fill-opacity="1" fill-rule="nonzero"/><path fill="#8c7bff" d="M 193.589844 136.945312 L 190.464844 136.945312 L 190.464844 124.003906 L 193.589844 124.003906 L 193.589844 136.945312 " fill-opacity="1" fill-rule="nonzero"/><path fill="#8c7bff" d="M 199.59375 136.945312 L 196.46875 136.945312 L 196.46875 126.878906 L 199.59375 126.878906 L 199.59375 136.945312 " fill-opacity="1" fill-rule="nonzero"/><path fill="#8c7bff" d="M 205.597656 136.945312 L 202.472656 136.945312 L 202.472656 124.003906 L 205.597656 124.003906 L 205.597656 136.945312 " fill-opacity="1" fill-rule="nonzero"/><path fill="#8c7bff" d="M 211.597656 136.945312 L 208.472656 136.945312 L 208.472656 126.878906 L 211.597656 126.878906 L 211.597656 136.945312 " fill-opacity="1" fill-rule="nonzero"/><path fill="#8c7bff" d="M 217.601562 136.945312 L 214.476562 136.945312 L 214.476562 126.878906 L 217.601562 126.878906 L 217.601562 136.945312 " fill-opacity="1" fill-rule="nonzero"/><path fill="#8c7bff" d="M 145.523438 169.46875 L 142.398438 169.46875 L 142.398438 156.523438 L 145.523438 156.523438 L 145.523438 169.46875 " fill-opacity="1" fill-rule="nonzero"/><path fill="#8c7bff" d="M 151.523438 169.46875 L 148.398438 169.46875 L 148.398438 159.402344 L 151.523438 159.402344 L 151.523438 169.46875 " fill-opacity="1" fill-rule="nonzero"/><path fill="#8c7bff" d="M 157.527344 169.46875 L 154.402344 169.46875 L 154.402344 156.523438 L 157.527344 156.523438 L 157.527344 169.46875 " fill-opacity="1" fill-rule="nonzero"/><path fill="#8c7bff" d="M 163.53125 169.46875 L 160.402344 169.46875 L 160.402344 159.402344 L 163.53125 159.402344 L 163.53125 169.46875 " fill-opacity="1" fill-rule="nonzero"/><path fill="#8c7bff" d="M 169.605469 169.46875 L 166.480469 169.46875 L 166.480469 156.523438 L 169.605469 156.523438 L 169.605469 169.46875 " fill-opacity="1" fill-rule="nonzero"/><path fill="#8c7bff" d="M 175.609375 169.46875 L 172.484375 169.46875 L 172.484375 159.402344 L 175.609375 159.402344 L 175.609375 169.46875 " fill-opacity="1" fill-rule="nonzero"/><path fill="#8c7bff" d="M 181.613281 169.46875 L 178.484375 169.46875 L 178.484375 156.523438 L 181.613281 156.523438 L 181.613281 169.46875 " fill-opacity="1" fill-rule="nonzero"/><path fill="#8c7bff" d="M 187.613281 169.46875 L 184.488281 169.46875 L 184.488281 159.402344 L 187.613281 159.402344 L 187.613281 169.46875 " fill-opacity="1" fill-rule="nonzero"/><path fill="#8c7bff" d="M 193.589844 169.46875 L 190.464844 169.46875 L 190.464844 156.523438 L 193.589844 156.523438 L 193.589844 169.46875 " fill-opacity="1" fill-rule="nonzero"/><path fill="#8c7bff" d="M 199.59375 169.46875 L 196.46875 169.46875 L 196.46875 159.402344 L 199.59375 159.402344 L 199.59375 169.46875 " fill-opacity="1" fill-rule="nonzero"/><path fill="#8c7bff" d="M 205.597656 169.46875 L 202.472656 169.46875 L 202.472656 156.523438 L 205.597656 156.523438 L 205.597656 169.46875 " fill-opacity="1" fill-rule="nonzero"/><path fill="#8c7bff" d="M 211.597656 169.46875 L 208.472656 169.46875 L 208.472656 159.402344 L 211.597656 159.402344 L 211.597656 169.46875 " fill-opacity="1" fill-rule="nonzero"/><path fill="#8c7bff" d="M 217.601562 169.46875 L 214.476562 169.46875 L 214.476562 159.402344 L 217.601562 159.402344 L 217.601562 169.46875 " fill-opacity="1" fill-rule="nonzero"/><path fill="#8c7bff" d="M 145.523438 201.988281 L 142.398438 201.988281 L 142.398438 189.046875 L 145.523438 189.046875 L 145.523438 201.988281 " fill-opacity="1" fill-rule="nonzero"/><path fill="#8c7bff" d="M 151.523438 201.988281 L 148.398438 201.988281 L 148.398438 191.921875 L 151.523438 191.921875 L 151.523438 201.988281 " fill-opacity="1" fill-rule="nonzero"/><path fill="#8c7bff" d="M 157.527344 201.988281 L 154.402344 201.988281 L 154.402344 189.046875 L 157.527344 189.046875 L 157.527344 201.988281 " fill-opacity="1" fill-rule="nonzero"/><path fill="#8c7bff" d="M 163.53125 201.988281 L 160.402344 201.988281 L 160.402344 191.921875 L 163.53125 191.921875 L 163.53125 201.988281 " fill-opacity="1" fill-rule="nonzero"/><path fill="#8c7bff" d="M 169.605469 201.988281 L 166.480469 201.988281 L 166.480469 189.046875 L 169.605469 189.046875 L 169.605469 201.988281 " fill-opacity="1" fill-rule="nonzero"/><path fill="#8c7bff" d="M 175.609375 201.988281 L 172.484375 201.988281 L 172.484375 191.921875 L 175.609375 191.921875 L 175.609375 201.988281 " fill-opacity="1" fill-rule="nonzero"/><path fill="#8c7bff" d="M 181.613281 201.988281 L 178.484375 201.988281 L 178.484375 189.046875 L 181.613281 189.046875 L 181.613281 201.988281 " fill-opacity="1" fill-rule="nonzero"/><path fill="#8c7bff" d="M 187.613281 201.988281 L 184.488281 201.988281 L 184.488281 191.921875 L 187.613281 191.921875 L 187.613281 201.988281 " fill-opacity="1" fill-rule="nonzero"/><path fill="#8c7bff" d="M 193.589844 201.988281 L 190.464844 201.988281 L 190.464844 189.046875 L 193.589844 189.046875 L 193.589844 201.988281 " fill-opacity="1" fill-rule="nonzero"/><path fill="#8c7bff" d="M 199.59375 201.988281 L 196.46875 201.988281 L 196.46875 191.921875 L 199.59375 191.921875 L 199.59375 201.988281 " fill-opacity="1" fill-rule="nonzero"/><path fill="#8c7bff" d="M 205.597656 201.988281 L 202.472656 201.988281 L 202.472656 189.046875 L 205.597656 189.046875 L 205.597656 201.988281 " fill-opacity="1" fill-rule="nonzero"/><path fill="#8c7bff" d="M 211.597656 201.988281 L 208.472656 201.988281 L 208.472656 191.921875 L 211.597656 191.921875 L 211.597656 201.988281 " fill-opacity="1" fill-rule="nonzero"/><path fill="#8c7bff" d="M 217.601562 201.988281 L 214.476562 201.988281 L 214.476562 191.921875 L 217.601562 191.921875 L 217.601562 201.988281 " fill-opacity="1" fill-rule="nonzero"/><path fill="#fed101" d="M 112.898438 226.296875 L 3.257812 226.296875 L 3.257812 3.550781 L 112.898438 3.550781 L 112.898438 226.296875 " fill-opacity="1" fill-rule="nonzero"/><path fill="#000000" d="M 15.726562 42.074219 L 100.429688 42.074219 L 100.429688 19.777344 L 15.726562 19.777344 Z M 100.886719 42.984375 L 15.269531 42.984375 C 15.019531 42.984375 14.816406 42.78125 14.816406 42.527344 L 14.816406 19.320312 C 14.816406 19.070312 15.019531 18.867188 15.269531 18.867188 L 100.886719 18.867188 C 101.136719 18.867188 101.339844 19.070312 101.339844 19.320312 L 101.339844 42.527344 C 101.339844 42.78125 101.136719 42.984375 100.886719 42.984375 " fill-opacity="1" fill-rule="nonzero"/><path fill="#000000" d="M 15.726562 75.09375 L 100.429688 75.09375 L 100.429688 52.792969 L 15.726562 52.792969 Z M 100.886719 76.003906 L 15.269531 76.003906 C 15.019531 76.003906 14.816406 75.796875 14.816406 75.546875 L 14.816406 52.339844 C 14.816406 52.089844 15.019531 51.886719 15.269531 51.886719 L 100.886719 51.886719 C 101.136719 51.886719 101.339844 52.089844 101.339844 52.339844 L 101.339844 75.546875 C 101.339844 75.796875 101.136719 76.003906 100.886719 76.003906 " fill-opacity="1" fill-rule="nonzero"/><path fill="#000000" d="M 15.726562 108.109375 L 100.429688 108.109375 L 100.429688 85.8125 L 15.726562 85.8125 Z M 100.886719 109.019531 L 15.273438 109.019531 C 15.019531 109.019531 14.816406 108.816406 14.816406 108.566406 L 14.816406 85.355469 C 14.816406 85.105469 15.019531 84.902344 15.273438 84.902344 L 100.886719 84.902344 C 101.136719 84.902344 101.339844 85.105469 101.339844 85.355469 L 101.339844 108.566406 C 101.339844 108.816406 101.136719 109.019531 100.886719 109.019531 " fill-opacity="1" fill-rule="nonzero"/><path fill="#000000" d="M 15.726562 141.128906 L 100.429688 141.128906 L 100.429688 118.828125 L 15.726562 118.828125 Z M 100.886719 142.035156 L 15.269531 142.035156 C 15.019531 142.035156 14.816406 141.832031 14.816406 141.582031 L 14.816406 118.375 C 14.816406 118.125 15.019531 117.921875 15.269531 117.921875 L 100.886719 117.921875 C 101.136719 117.921875 101.339844 118.125 101.339844 118.375 L 101.339844 141.582031 C 101.339844 141.832031 101.136719 142.035156 100.886719 142.035156 " fill-opacity="1" fill-rule="nonzero"/><path fill="#000000" d="M 15.726562 174.144531 L 100.429688 174.144531 L 100.429688 151.847656 L 15.726562 151.847656 Z M 100.886719 175.054688 L 15.269531 175.054688 C 15.019531 175.054688 14.816406 174.851562 14.816406 174.601562 L 14.816406 151.390625 C 14.816406 151.144531 15.019531 150.9375 15.269531 150.9375 L 100.886719 150.9375 C 101.136719 150.9375 101.339844 151.144531 101.339844 151.390625 L 101.339844 174.601562 C 101.339844 174.851562 101.136719 175.054688 100.886719 175.054688 " fill-opacity="1" fill-rule="nonzero"/><path fill="#000000" d="M 15.726562 207.164062 L 100.429688 207.164062 L 100.429688 184.863281 L 15.726562 184.863281 Z M 100.886719 208.070312 L 15.269531 208.070312 C 15.019531 208.070312 14.816406 207.871094 14.816406 207.617188 L 14.816406 184.410156 C 14.816406 184.160156 15.019531 183.957031 15.269531 183.957031 L 100.886719 183.957031 C 101.136719 183.957031 101.339844 184.160156 101.339844 184.410156 L 101.339844 207.617188 C 101.339844 207.871094 101.136719 208.070312 100.886719 208.070312 " fill-opacity="1" fill-rule="nonzero"/><path fill="#8c7bff" d="M 23.050781 38.363281 L 19.925781 38.363281 L 19.925781 25.421875 L 23.050781 25.421875 L 23.050781 38.363281 " fill-opacity="1" fill-rule="nonzero"/><path fill="#8c7bff" d="M 29.054688 38.363281 L 25.929688 38.363281 L 25.929688 28.296875 L 29.054688 28.296875 L 29.054688 38.363281 " fill-opacity="1" fill-rule="nonzero"/><path fill="#8c7bff" d="M 35.054688 38.363281 L 31.929688 38.363281 L 31.929688 25.421875 L 35.054688 25.421875 L 35.054688 38.363281 " fill-opacity="1" fill-rule="nonzero"/><path fill="#8c7bff" d="M 41.058594 38.363281 L 37.933594 38.363281 L 37.933594 28.296875 L 41.058594 28.296875 L 41.058594 38.363281 " fill-opacity="1" fill-rule="nonzero"/><path fill="#8c7bff" d="M 47.136719 38.363281 L 44.011719 38.363281 L 44.011719 25.421875 L 47.136719 25.421875 L 47.136719 38.363281 " fill-opacity="1" fill-rule="nonzero"/><path fill="#8c7bff" d="M 53.136719 38.363281 L 50.011719 38.363281 L 50.011719 28.296875 L 53.136719 28.296875 L 53.136719 38.363281 " fill-opacity="1" fill-rule="nonzero"/><path fill="#8c7bff" d="M 59.140625 38.363281 L 56.015625 38.363281 L 56.015625 25.421875 L 59.140625 25.421875 L 59.140625 38.363281 " fill-opacity="1" fill-rule="nonzero"/><path fill="#8c7bff" d="M 65.144531 38.363281 L 62.019531 38.363281 L 62.019531 28.296875 L 65.144531 28.296875 L 65.144531 38.363281 " fill-opacity="1" fill-rule="nonzero"/><path fill="#8c7bff" d="M 71.121094 38.363281 L 67.996094 38.363281 L 67.996094 25.421875 L 71.121094 25.421875 L 71.121094 38.363281 " fill-opacity="1" fill-rule="nonzero"/><path fill="#8c7bff" d="M 77.125 38.363281 L 74 38.363281 L 74 28.296875 L 77.125 28.296875 L 77.125 38.363281 " fill-opacity="1" fill-rule="nonzero"/><path fill="#8c7bff" d="M 83.125 38.363281 L 80 38.363281 L 80 25.421875 L 83.125 25.421875 L 83.125 38.363281 " fill-opacity="1" fill-rule="nonzero"/><path fill="#8c7bff" d="M 89.128906 38.363281 L 86.003906 38.363281 L 86.003906 28.296875 L 89.128906 28.296875 L 89.128906 38.363281 " fill-opacity="1" fill-rule="nonzero"/><path fill="#8c7bff" d="M 95.132812 38.363281 L 92.003906 38.363281 L 92.003906 28.296875 L 95.132812 28.296875 L 95.132812 38.363281 " fill-opacity="1" fill-rule="nonzero"/><path fill="#8c7bff" d="M 23.050781 71.191406 L 19.925781 71.191406 L 19.925781 58.25 L 23.050781 58.25 L 23.050781 71.191406 " fill-opacity="1" fill-rule="nonzero"/><path fill="#8c7bff" d="M 29.054688 71.191406 L 25.929688 71.191406 L 25.929688 61.125 L 29.054688 61.125 L 29.054688 71.191406 " fill-opacity="1" fill-rule="nonzero"/><path fill="#8c7bff" d="M 35.054688 71.191406 L 31.929688 71.191406 L 31.929688 58.25 L 35.054688 58.25 L 35.054688 71.191406 " fill-opacity="1" fill-rule="nonzero"/><path fill="#8c7bff" d="M 41.058594 71.191406 L 37.933594 71.191406 L 37.933594 61.125 L 41.058594 61.125 L 41.058594 71.191406 " fill-opacity="1" fill-rule="nonzero"/><path fill="#8c7bff" d="M 47.136719 71.191406 L 44.011719 71.191406 L 44.011719 58.25 L 47.136719 58.25 L 47.136719 71.191406 " fill-opacity="1" fill-rule="nonzero"/><path fill="#8c7bff" d="M 53.136719 71.191406 L 50.011719 71.191406 L 50.011719 61.125 L 53.136719 61.125 L 53.136719 71.191406 " fill-opacity="1" fill-rule="nonzero"/><path fill="#8c7bff" d="M 59.140625 71.191406 L 56.015625 71.191406 L 56.015625 58.25 L 59.140625 58.25 L 59.140625 71.191406 " fill-opacity="1" fill-rule="nonzero"/><path fill="#8c7bff" d="M 65.144531 71.191406 L 62.019531 71.191406 L 62.019531 61.125 L 65.144531 61.125 L 65.144531 71.191406 " fill-opacity="1" fill-rule="nonzero"/><path fill="#8c7bff" d="M 71.121094 71.191406 L 67.996094 71.191406 L 67.996094 58.25 L 71.121094 58.25 L 71.121094 71.191406 " fill-opacity="1" fill-rule="nonzero"/><path fill="#8c7bff" d="M 77.125 71.191406 L 74 71.191406 L 74 61.125 L 77.125 61.125 L 77.125 71.191406 " fill-opacity="1" fill-rule="nonzero"/><path fill="#8c7bff" d="M 83.125 71.191406 L 80 71.191406 L 80 58.25 L 83.125 58.25 L 83.125 71.191406 " fill-opacity="1" fill-rule="nonzero"/><path fill="#8c7bff" d="M 89.128906 71.191406 L 86.003906 71.191406 L 86.003906 61.125 L 89.128906 61.125 L 89.128906 71.191406 " fill-opacity="1" fill-rule="nonzero"/><path fill="#8c7bff" d="M 95.132812 71.191406 L 92.003906 71.191406 L 92.003906 61.125 L 95.132812 61.125 L 95.132812 71.191406 " fill-opacity="1" fill-rule="nonzero"/><path fill="#8c7bff" d="M 23.050781 104.3125 L 19.925781 104.3125 L 19.925781 91.371094 L 23.050781 91.371094 L 23.050781 104.3125 " fill-opacity="1" fill-rule="nonzero"/><path fill="#8c7bff" d="M 29.054688 104.316406 L 25.929688 104.316406 L 25.929688 94.25 L 29.054688 94.25 L 29.054688 104.316406 " fill-opacity="1" fill-rule="nonzero"/><path fill="#8c7bff" d="M 35.058594 104.3125 L 31.929688 104.3125 L 31.929688 91.371094 L 35.058594 91.371094 L 35.058594 104.3125 " fill-opacity="1" fill-rule="nonzero"/><path fill="#8c7bff" d="M 41.058594 104.316406 L 37.933594 104.316406 L 37.933594 94.25 L 41.058594 94.25 L 41.058594 104.316406 " fill-opacity="1" fill-rule="nonzero"/><path fill="#8c7bff" d="M 47.136719 104.3125 L 44.011719 104.3125 L 44.011719 91.371094 L 47.136719 91.371094 L 47.136719 104.3125 " fill-opacity="1" fill-rule="nonzero"/><path fill="#8c7bff" d="M 53.140625 104.316406 L 50.011719 104.316406 L 50.011719 94.25 L 53.140625 94.25 L 53.140625 104.316406 " fill-opacity="1" fill-rule="nonzero"/><path fill="#8c7bff" d="M 59.140625 104.3125 L 56.015625 104.3125 L 56.015625 91.371094 L 59.140625 91.371094 L 59.140625 104.3125 " fill-opacity="1" fill-rule="nonzero"/><path fill="#8c7bff" d="M 65.144531 104.316406 L 62.019531 104.316406 L 62.019531 94.25 L 65.144531 94.25 L 65.144531 104.316406 " fill-opacity="1" fill-rule="nonzero"/><path fill="#8c7bff" d="M 71.121094 104.3125 L 67.996094 104.3125 L 67.996094 91.371094 L 71.121094 91.371094 L 71.121094 104.3125 " fill-opacity="1" fill-rule="nonzero"/><path fill="#8c7bff" d="M 77.125 104.316406 L 74 104.316406 L 74 94.25 L 77.125 94.25 L 77.125 104.316406 " fill-opacity="1" fill-rule="nonzero"/><path fill="#8c7bff" d="M 83.128906 104.3125 L 80 104.3125 L 80 91.371094 L 83.128906 91.371094 L 83.128906 104.3125 " fill-opacity="1" fill-rule="nonzero"/><path fill="#8c7bff" d="M 89.128906 104.316406 L 86.003906 104.316406 L 86.003906 94.25 L 89.128906 94.25 L 89.128906 104.316406 " fill-opacity="1" fill-rule="nonzero"/><path fill="#8c7bff" d="M 95.132812 104.316406 L 92.007812 104.316406 L 92.007812 94.25 L 95.132812 94.25 L 95.132812 104.316406 " fill-opacity="1" fill-rule="nonzero"/><path fill="#8c7bff" d="M 23.050781 136.945312 L 19.925781 136.945312 L 19.925781 124.003906 L 23.050781 124.003906 L 23.050781 136.945312 " fill-opacity="1" fill-rule="nonzero"/><path fill="#8c7bff" d="M 29.054688 136.945312 L 25.929688 136.945312 L 25.929688 126.878906 L 29.054688 126.878906 L 29.054688 136.945312 " fill-opacity="1" fill-rule="nonzero"/><path fill="#8c7bff" d="M 35.054688 136.945312 L 31.929688 136.945312 L 31.929688 124.003906 L 35.054688 124.003906 L 35.054688 136.945312 " fill-opacity="1" fill-rule="nonzero"/><path fill="#8c7bff" d="M 41.058594 136.945312 L 37.933594 136.945312 L 37.933594 126.878906 L 41.058594 126.878906 L 41.058594 136.945312 " fill-opacity="1" fill-rule="nonzero"/><path fill="#8c7bff" d="M 47.136719 136.945312 L 44.011719 136.945312 L 44.011719 124.003906 L 47.136719 124.003906 L 47.136719 136.945312 " fill-opacity="1" fill-rule="nonzero"/><path fill="#8c7bff" d="M 53.136719 136.945312 L 50.011719 136.945312 L 50.011719 126.878906 L 53.136719 126.878906 L 53.136719 136.945312 " fill-opacity="1" fill-rule="nonzero"/><path fill="#8c7bff" d="M 59.140625 136.945312 L 56.015625 136.945312 L 56.015625 124.003906 L 59.140625 124.003906 L 59.140625 136.945312 " fill-opacity="1" fill-rule="nonzero"/><path fill="#8c7bff" d="M 65.144531 136.945312 L 62.019531 136.945312 L 62.019531 126.878906 L 65.144531 126.878906 L 65.144531 136.945312 " fill-opacity="1" fill-rule="nonzero"/><path fill="#8c7bff" d="M 71.121094 136.945312 L 67.996094 136.945312 L 67.996094 124.003906 L 71.121094 124.003906 L 71.121094 136.945312 " fill-opacity="1" fill-rule="nonzero"/><path fill="#8c7bff" d="M 77.125 136.945312 L 74 136.945312 L 74 126.878906 L 77.125 126.878906 L 77.125 136.945312 " fill-opacity="1" fill-rule="nonzero"/><path fill="#8c7bff" d="M 83.125 136.945312 L 80 136.945312 L 80 124.003906 L 83.125 124.003906 L 83.125 136.945312 " fill-opacity="1" fill-rule="nonzero"/><path fill="#8c7bff" d="M 89.128906 136.945312 L 86.003906 136.945312 L 86.003906 126.878906 L 89.128906 126.878906 L 89.128906 136.945312 " fill-opacity="1" fill-rule="nonzero"/><path fill="#8c7bff" d="M 95.132812 136.945312 L 92.007812 136.945312 L 92.007812 126.878906 L 95.132812 126.878906 L 95.132812 136.945312 " fill-opacity="1" fill-rule="nonzero"/><path fill="#8c7bff" d="M 23.050781 169.46875 L 19.925781 169.46875 L 19.925781 156.523438 L 23.050781 156.523438 L 23.050781 169.46875 " fill-opacity="1" fill-rule="nonzero"/><path fill="#8c7bff" d="M 29.054688 169.46875 L 25.929688 169.46875 L 25.929688 159.402344 L 29.054688 159.402344 L 29.054688 169.46875 " fill-opacity="1" fill-rule="nonzero"/><path fill="#8c7bff" d="M 35.054688 169.46875 L 31.929688 169.46875 L 31.929688 156.523438 L 35.054688 156.523438 L 35.054688 169.46875 " fill-opacity="1" fill-rule="nonzero"/><path fill="#8c7bff" d="M 41.058594 169.46875 L 37.933594 169.46875 L 37.933594 159.402344 L 41.058594 159.402344 L 41.058594 169.46875 " fill-opacity="1" fill-rule="nonzero"/><path fill="#8c7bff" d="M 47.136719 169.46875 L 44.011719 169.46875 L 44.011719 156.523438 L 47.136719 156.523438 L 47.136719 169.46875 " fill-opacity="1" fill-rule="nonzero"/><path fill="#8c7bff" d="M 53.136719 169.46875 L 50.011719 169.46875 L 50.011719 159.402344 L 53.136719 159.402344 L 53.136719 169.46875 " fill-opacity="1" fill-rule="nonzero"/><path fill="#8c7bff" d="M 59.140625 169.46875 L 56.015625 169.46875 L 56.015625 156.523438 L 59.140625 156.523438 L 59.140625 169.46875 " fill-opacity="1" fill-rule="nonzero"/><path fill="#8c7bff" d="M 65.144531 169.46875 L 62.019531 169.46875 L 62.019531 159.402344 L 65.144531 159.402344 L 65.144531 169.46875 " fill-opacity="1" fill-rule="nonzero"/><path fill="#8c7bff" d="M 71.121094 169.46875 L 67.996094 169.46875 L 67.996094 156.523438 L 71.121094 156.523438 L 71.121094 169.46875 " fill-opacity="1" fill-rule="nonzero"/><path fill="#8c7bff" d="M 77.125 169.46875 L 74 169.46875 L 74 159.402344 L 77.125 159.402344 L 77.125 169.46875 " fill-opacity="1" fill-rule="nonzero"/><path fill="#8c7bff" d="M 83.125 169.46875 L 80 169.46875 L 80 156.523438 L 83.125 156.523438 L 83.125 169.46875 " fill-opacity="1" fill-rule="nonzero"/><path fill="#8c7bff" d="M 89.128906 169.46875 L 86.003906 169.46875 L 86.003906 159.402344 L 89.128906 159.402344 L 89.128906 169.46875 " fill-opacity="1" fill-rule="nonzero"/><path fill="#8c7bff" d="M 95.132812 169.46875 L 92.007812 169.46875 L 92.007812 159.402344 L 95.132812 159.402344 L 95.132812 169.46875 " fill-opacity="1" fill-rule="nonzero"/><path fill="#8c7bff" d="M 23.050781 201.988281 L 19.925781 201.988281 L 19.925781 189.046875 L 23.050781 189.046875 L 23.050781 201.988281 " fill-opacity="1" fill-rule="nonzero"/><path fill="#8c7bff" d="M 29.054688 201.988281 L 25.929688 201.988281 L 25.929688 191.921875 L 29.054688 191.921875 L 29.054688 201.988281 " fill-opacity="1" fill-rule="nonzero"/><path fill="#8c7bff" d="M 35.054688 201.988281 L 31.929688 201.988281 L 31.929688 189.046875 L 35.054688 189.046875 L 35.054688 201.988281 " fill-opacity="1" fill-rule="nonzero"/><path fill="#8c7bff" d="M 41.058594 201.988281 L 37.933594 201.988281 L 37.933594 191.921875 L 41.058594 191.921875 L 41.058594 201.988281 " fill-opacity="1" fill-rule="nonzero"/><path fill="#8c7bff" d="M 47.136719 201.988281 L 44.011719 201.988281 L 44.011719 189.046875 L 47.136719 189.046875 L 47.136719 201.988281 " fill-opacity="1" fill-rule="nonzero"/><path fill="#8c7bff" d="M 53.136719 201.988281 L 50.011719 201.988281 L 50.011719 191.921875 L 53.136719 191.921875 L 53.136719 201.988281 " fill-opacity="1" fill-rule="nonzero"/><path fill="#8c7bff" d="M 59.140625 201.988281 L 56.015625 201.988281 L 56.015625 189.046875 L 59.140625 189.046875 L 59.140625 201.988281 " fill-opacity="1" fill-rule="nonzero"/><path fill="#8c7bff" d="M 65.144531 201.988281 L 62.019531 201.988281 L 62.019531 191.921875 L 65.144531 191.921875 L 65.144531 201.988281 " fill-opacity="1" fill-rule="nonzero"/><path fill="#8c7bff" d="M 71.121094 201.988281 L 67.996094 201.988281 L 67.996094 189.046875 L 71.121094 189.046875 L 71.121094 201.988281 " fill-opacity="1" fill-rule="nonzero"/><path fill="#8c7bff" d="M 77.125 201.988281 L 74 201.988281 L 74 191.921875 L 77.125 191.921875 L 77.125 201.988281 " fill-opacity="1" fill-rule="nonzero"/><path fill="#8c7bff" d="M 83.125 201.988281 L 80 201.988281 L 80 189.046875 L 83.125 189.046875 L 83.125 201.988281 " fill-opacity="1" fill-rule="nonzero"/><path fill="#8c7bff" d="M 89.128906 201.988281 L 86.003906 201.988281 L 86.003906 191.921875 L 89.128906 191.921875 L 89.128906 201.988281 " fill-opacity="1" fill-rule="nonzero"/><path fill="#8c7bff" d="M 95.132812 201.988281 L 92.007812 201.988281 L 92.007812 191.921875 L 95.132812 191.921875 L 95.132812 201.988281 " fill-opacity="1" fill-rule="nonzero"/><path fill="#fda4ff" d="M 302.242188 44.476562 C 304.222656 32.585938 315.421875 24.5625 327.261719 26.550781 C 339.101562 28.539062 347.09375 39.789062 345.113281 51.675781 C 343.132812 63.566406 331.929688 71.589844 320.09375 69.605469 C 308.253906 67.617188 300.261719 56.367188 302.242188 44.476562 Z M 286.398438 50.589844 C 286.664062 54.652344 287.589844 58.574219 289.078125 62.234375 L 280.332031 68.5 L 290.339844 82.589844 L 299.089844 76.324219 C 302.050781 78.929688 305.445312 81.085938 309.179688 82.660156 L 307.410156 93.300781 L 324.410156 96.15625 L 326.183594 85.515625 C 330.222656 85.246094 334.128906 84.316406 337.773438 82.824219 L 344.015625 91.605469 L 358.046875 81.554688 L 351.808594 72.769531 C 354.398438 69.792969 356.546875 66.386719 358.113281 62.636719 L 368.710938 64.414062 L 371.554688 47.34375 L 360.957031 45.566406 C 360.6875 41.503906 359.765625 37.582031 358.277344 33.921875 L 367.023438 27.652344 L 357.015625 13.5625 L 348.265625 19.828125 C 345.304688 17.222656 341.910156 15.070312 338.175781 13.496094 L 339.945312 2.855469 L 322.945312 0 L 321.175781 10.640625 C 317.132812 10.910156 313.226562 11.839844 309.582031 13.335938 L 303.339844 4.546875 L 289.308594 14.601562 L 295.550781 23.386719 C 292.957031 26.359375 290.808594 29.769531 289.242188 33.519531 L 278.644531 31.742188 L 275.804688 48.8125 L 286.398438 50.589844 " fill-opacity="1" fill-rule="nonzero"/><g clip-path="url(#679145c680)"><path fill="#ffffff" d="M 373.019531 249.679688 L 165.777344 249.679688 L 165.777344 110.167969 L 373.019531 110.167969 L 373.019531 249.679688 " fill-opacity="1" fill-rule="nonzero"/></g><g clip-path="url(#8dde534783)"><path fill="#000000" d="M 166.230469 249.222656 L 372.5625 249.222656 L 372.5625 110.621094 L 166.230469 110.621094 Z M 373.019531 250.132812 L 165.777344 250.132812 C 165.523438 250.132812 165.320312 249.929688 165.320312 249.679688 L 165.320312 110.167969 C 165.320312 109.917969 165.523438 109.710938 165.777344 109.710938 L 373.019531 109.710938 C 373.269531 109.710938 373.472656 109.917969 373.472656 110.167969 L 373.472656 249.679688 C 373.472656 249.929688 373.269531 250.132812 373.019531 250.132812 " fill-opacity="1" fill-rule="nonzero"/></g><g clip-path="url(#84a7114ff6)"><path fill="#8c7bff" d="M 373.019531 130.515625 L 165.777344 130.515625 L 165.777344 110.167969 L 373.019531 110.167969 L 373.019531 130.515625 " fill-opacity="1" fill-rule="nonzero"/></g><g clip-path="url(#bbbbc0dd3b)"><path fill="#000000" d="M 166.230469 130.0625 L 372.5625 130.0625 L 372.5625 110.621094 L 166.230469 110.621094 Z M 373.019531 130.96875 L 165.777344 130.96875 C 165.523438 130.96875 165.320312 130.765625 165.320312 130.515625 L 165.320312 110.167969 C 165.320312 109.917969 165.523438 109.710938 165.777344 109.710938 L 373.019531 109.710938 C 373.269531 109.710938 373.472656 109.917969 373.472656 110.167969 L 373.472656 130.515625 C 373.472656 130.765625 373.269531 130.96875 373.019531 130.96875 " fill-opacity="1" fill-rule="nonzero"/></g><path fill="#ffffff" d="M 366.738281 120.269531 C 366.738281 122.753906 364.726562 124.761719 362.242188 124.761719 C 359.761719 124.761719 357.75 122.753906 357.75 120.269531 C 357.75 117.789062 359.761719 115.777344 362.242188 115.777344 C 364.726562 115.777344 366.738281 117.789062 366.738281 120.269531 " fill-opacity="1" fill-rule="nonzero"/><path fill="#ffffff" d="M 351.957031 120.269531 C 351.957031 122.753906 349.945312 124.761719 347.464844 124.761719 C 344.984375 124.761719 342.96875 122.753906 342.96875 120.269531 C 342.96875 117.789062 344.984375 115.777344 347.464844 115.777344 C 349.945312 115.777344 351.957031 117.789062 351.957031 120.269531 " fill-opacity="1" fill-rule="nonzero"/><path fill="#ffffff" d="M 337.179688 120.269531 C 337.179688 122.753906 335.167969 124.761719 332.6875 124.761719 C 330.203125 124.761719 328.191406 122.753906 328.191406 120.269531 C 328.191406 117.789062 330.203125 115.78125 332.6875 115.78125 C 335.167969 115.78125 337.179688 117.789062 337.179688 120.269531 " fill-opacity="1" fill-rule="nonzero"/><path fill="#4ada85" d="M 293.449219 181.339844 C 293.449219 176.585938 289.597656 172.738281 284.847656 172.738281 C 280.097656 172.738281 276.246094 176.585938 276.246094 181.339844 C 276.246094 186.085938 280.097656 189.9375 284.847656 189.9375 C 289.597656 189.9375 293.449219 186.085938 293.449219 181.339844 " fill-opacity="1" fill-rule="nonzero"/><path fill="#4ada85" d="M 314.964844 159.921875 C 314.964844 157.453125 312.960938 155.453125 310.492188 155.453125 C 308.023438 155.453125 306.019531 157.453125 306.019531 159.921875 C 306.019531 162.390625 308.023438 164.394531 310.492188 164.394531 C 312.960938 164.394531 314.964844 162.390625 314.964844 159.921875 " fill-opacity="1" fill-rule="nonzero"/><path fill="#4ada85" d="M 287.417969 148.320312 C 287.417969 146.902344 286.265625 145.75 284.847656 145.75 C 283.429688 145.75 282.277344 146.902344 282.277344 148.320312 C 282.277344 149.738281 283.429688 150.886719 284.847656 150.886719 C 286.265625 150.886719 287.417969 149.738281 287.417969 148.320312 " fill-opacity="1" fill-rule="nonzero"/><path fill="#4ada85" d="M 263.050781 166.394531 C 263.050781 163.613281 260.796875 161.363281 258.015625 161.363281 C 255.234375 161.363281 252.980469 163.613281 252.980469 166.394531 C 252.980469 169.175781 255.234375 171.429688 258.015625 171.429688 C 260.796875 171.429688 263.050781 169.175781 263.050781 166.394531 " fill-opacity="1" fill-rule="nonzero"/><path fill="#4ada85" d="M 230.449219 145.75 C 230.449219 144.320312 229.289062 143.160156 227.855469 143.160156 C 226.429688 143.160156 225.269531 144.320312 225.269531 145.75 C 225.269531 147.183594 226.429688 148.339844 227.855469 148.339844 C 229.289062 148.339844 230.449219 147.183594 230.449219 145.75 " fill-opacity="1" fill-rule="nonzero"/><path fill="#4ada85" d="M 242.902344 176.847656 C 242.902344 173.855469 240.472656 171.429688 237.476562 171.429688 C 234.484375 171.429688 232.058594 173.855469 232.058594 176.847656 C 232.058594 179.84375 234.484375 182.269531 237.476562 182.269531 C 240.472656 182.269531 242.902344 179.84375 242.902344 176.847656 " fill-opacity="1" fill-rule="nonzero"/><path fill="#4ada85" d="M 269.339844 185.976562 C 269.339844 182.5 266.523438 179.6875 263.050781 179.6875 C 259.574219 179.6875 256.757812 182.5 256.757812 185.976562 C 256.757812 189.449219 259.574219 192.265625 263.050781 192.265625 C 266.523438 192.265625 269.339844 189.449219 269.339844 185.976562 " fill-opacity="1" fill-rule="nonzero"/><path fill="#4ada85" d="M 247.164062 195.355469 C 247.164062 192.363281 244.738281 189.9375 241.746094 189.9375 C 238.753906 189.9375 236.328125 192.363281 236.328125 195.355469 C 236.328125 198.347656 238.753906 200.769531 241.746094 200.769531 C 244.738281 200.769531 247.164062 198.347656 247.164062 195.355469 " fill-opacity="1" fill-rule="nonzero"/><path fill="#4ada85" d="M 282.457031 199.09375 C 282.457031 197.027344 280.78125 195.355469 278.714844 195.355469 C 276.652344 195.355469 274.976562 197.027344 274.976562 199.09375 C 274.976562 201.15625 276.652344 202.828125 278.714844 202.828125 C 280.78125 202.828125 282.457031 201.15625 282.457031 199.09375 " fill-opacity="1" fill-rule="nonzero"/><path fill="#4ada85" d="M 306.019531 204.714844 C 306.019531 203.097656 304.710938 201.789062 303.097656 201.789062 C 301.480469 201.789062 300.167969 203.097656 300.167969 204.714844 C 300.167969 206.328125 301.480469 207.636719 303.097656 207.636719 C 304.710938 207.636719 306.019531 206.328125 306.019531 204.714844 " fill-opacity="1" fill-rule="nonzero"/><path fill="#4ada85" d="M 340.472656 212.351562 C 340.472656 209.070312 337.808594 206.410156 334.523438 206.410156 C 331.242188 206.410156 328.582031 209.070312 328.582031 212.351562 C 328.582031 215.636719 331.242188 218.296875 334.523438 218.296875 C 337.808594 218.296875 340.472656 215.636719 340.472656 212.351562 " fill-opacity="1" fill-rule="nonzero"/><path fill="#4ada85" d="M 236.328125 235.578125 C 236.328125 233.21875 234.414062 231.308594 232.058594 231.308594 C 229.699219 231.308594 227.789062 233.21875 227.789062 235.578125 C 227.789062 237.933594 229.699219 239.84375 232.058594 239.84375 C 234.414062 239.84375 236.328125 237.933594 236.328125 235.578125 " fill-opacity="1" fill-rule="nonzero"/><path fill="#4ada85" d="M 197.738281 214.265625 C 197.738281 211.164062 195.222656 208.648438 192.117188 208.648438 C 189.011719 208.648438 186.492188 211.164062 186.492188 214.265625 C 186.492188 217.371094 189.011719 219.886719 192.117188 219.886719 C 195.222656 219.886719 197.738281 217.371094 197.738281 214.265625 " fill-opacity="1" fill-rule="nonzero"/><path fill="#4ada85" d="M 204.097656 176.847656 C 204.097656 175.121094 202.695312 173.726562 200.972656 173.726562 C 199.246094 173.726562 197.847656 175.121094 197.847656 176.847656 C 197.847656 178.574219 199.246094 179.972656 200.972656 179.972656 C 202.695312 179.972656 204.097656 178.574219 204.097656 176.847656 " fill-opacity="1" fill-rule="nonzero"/><path fill="#4ada85" d="M 351.710938 172.734375 C 351.710938 170.398438 349.8125 168.503906 347.472656 168.503906 C 345.136719 168.503906 343.238281 170.398438 343.238281 172.734375 C 343.238281 175.074219 345.136719 176.96875 347.472656 176.96875 C 349.8125 176.96875 351.710938 175.074219 351.710938 172.734375 " fill-opacity="1" fill-rule="nonzero"/><path fill="#4ada85" d="M 309.152344 158.863281 L 308.933594 160.699219 L 309.675781 160.042969 Z M 260.339844 168.371094 L 280.789062 178.144531 L 284.289062 149.160156 L 259.433594 163.335938 Z M 310.894531 160.554688 L 319.121094 179.128906 L 345.769531 173.882812 C 343.023438 172.488281 324 165.367188 310.894531 160.554688 Z M 308.777344 162.054688 L 306.464844 181.621094 L 318.203125 179.308594 L 310.0625 160.910156 Z M 263.429688 185.519531 L 279.898438 185.519531 L 280.671875 179.09375 L 260.535156 169.472656 Z M 280.8125 185.519531 L 286.671875 185.519531 L 305.53125 181.808594 L 307.753906 162.964844 L 286.722656 181.675781 C 286.582031 181.796875 286.386719 181.824219 286.222656 181.746094 L 281.539062 179.507812 Z M 238.007812 177.125 L 242.066406 194.714844 L 262.539062 185.703125 L 259.527344 168.992188 L 258.875 168.679688 Z M 279.21875 198.742188 L 300.574219 203.667969 L 303.082031 202.523438 L 305.417969 182.753906 L 286.804688 186.417969 C 286.773438 186.425781 286.746094 186.429688 286.714844 186.429688 L 280.703125 186.429688 Z M 302.03125 204.003906 L 303.199219 204.269531 L 331.921875 210.292969 L 318.582031 180.164062 L 306.355469 182.570312 L 303.957031 202.882812 C 303.9375 203.042969 303.835938 203.175781 303.691406 203.246094 Z M 202.933594 175.890625 C 198.269531 189.191406 191.59375 208.984375 190.933594 212.882812 C 195.476562 209.703125 225 186.230469 236.960938 176.679688 L 228.847656 146.683594 Z M 263.300781 186.429688 L 232.84375 234.53125 L 299.214844 204.285156 L 278.613281 199.535156 C 278.386719 199.480469 278.238281 199.269531 278.265625 199.039062 L 279.789062 186.429688 Z M 231.644531 236.03125 C 231.515625 236.03125 231.394531 235.976562 231.304688 235.875 C 231.167969 235.722656 231.15625 235.503906 231.261719 235.332031 L 261.871094 186.988281 L 241.929688 195.769531 C 241.804688 195.824219 241.660156 195.820312 241.542969 195.757812 C 241.421875 195.699219 241.332031 195.585938 241.304688 195.457031 L 237.199219 177.652344 C 230.507812 182.996094 192.226562 213.523438 190.710938 214.082031 C 190.515625 214.15625 190.304688 214.109375 190.164062 213.96875 C 189.808594 213.625 189.371094 213.191406 195.722656 194.160156 C 198.820312 184.882812 202.070312 175.601562 202.105469 175.507812 C 202.125 175.449219 202.15625 175.398438 202.191406 175.355469 L 228.726562 145.449219 C 228.835938 145.324219 229.007812 145.269531 229.171875 145.308594 C 229.332031 145.347656 229.460938 145.46875 229.503906 145.632812 L 237.785156 176.238281 L 258.722656 167.765625 C 258.839844 167.714844 258.972656 167.71875 259.089844 167.777344 L 259.328125 167.890625 L 258.480469 163.183594 C 258.445312 162.992188 258.535156 162.800781 258.703125 162.707031 L 284.621094 147.925781 C 284.769531 147.839844 284.957031 147.847656 285.101562 147.941406 C 285.242188 148.035156 285.316406 148.203125 285.296875 148.371094 L 281.65625 178.554688 L 286.34375 180.796875 L 307.914062 161.609375 L 308.445312 157.109375 C 308.46875 156.90625 308.628906 156.742188 308.832031 156.714844 C 309.035156 156.683594 309.226562 156.789062 309.3125 156.976562 L 310.417969 159.472656 C 310.492188 159.464844 310.570312 159.46875 310.648438 159.496094 C 316.5 161.640625 345.730469 172.398438 346.703125 173.410156 C 346.777344 173.484375 346.816406 173.578125 346.828125 173.671875 L 348.839844 173.277344 C 349.082031 173.226562 349.324219 173.386719 349.371094 173.636719 C 349.417969 173.882812 349.261719 174.121094 349.011719 174.167969 L 319.496094 179.980469 L 333.109375 210.734375 C 333.179688 210.890625 333.15625 211.070312 333.046875 211.203125 C 332.941406 211.335938 332.769531 211.398438 332.601562 211.363281 L 303 205.15625 L 300.671875 204.621094 L 231.835938 235.988281 C 231.773438 236.015625 231.710938 236.03125 231.644531 236.03125 " fill-opacity="1" fill-rule="nonzero"/><path fill="#000000" d="M 204.582031 147.242188 L 182.601562 147.242188 C 182.351562 147.242188 182.148438 147.039062 182.148438 146.785156 C 182.148438 146.539062 182.351562 146.332031 182.601562 146.332031 L 204.582031 146.332031 C 204.832031 146.332031 205.035156 146.539062 205.035156 146.785156 C 205.035156 147.039062 204.832031 147.242188 204.582031 147.242188 " fill-opacity="1" fill-rule="nonzero"/><path fill="#000000" d="M 204.582031 155.90625 L 182.601562 155.90625 C 182.351562 155.90625 182.148438 155.703125 182.148438 155.453125 C 182.148438 155.203125 182.351562 155 182.601562 155 L 204.582031 155 C 204.832031 155 205.035156 155.203125 205.035156 155.453125 C 205.035156 155.703125 204.832031 155.90625 204.582031 155.90625 " fill-opacity="1" fill-rule="nonzero"/><path fill="#000000" d="M 355.519531 370.964844 L 245.378906 370.964844 L 245.378906 245.761719 L 355.519531 245.761719 L 355.519531 370.964844 " fill-opacity="1" fill-rule="nonzero"/><path fill="#955b50" d="M 360.207031 256.777344 C 360.222656 256.773438 360.234375 256.773438 360.246094 256.773438 C 360.234375 256.773438 360.222656 256.773438 360.207031 256.777344 " fill-opacity="1" fill-rule="nonzero"/><path fill="#ffffff" d="M 361.058594 365.253906 L 250.917969 365.253906 L 250.917969 240.046875 L 361.058594 240.046875 L 361.058594 365.253906 " fill-opacity="1" fill-rule="nonzero"/><path fill="#000000" d="M 251.375 364.800781 L 360.605469 364.800781 L 360.605469 240.503906 L 251.375 240.503906 Z M 361.515625 365.707031 L 250.460938 365.707031 L 250.460938 239.59375 L 361.515625 239.59375 L 361.515625 365.707031 " fill-opacity="1" fill-rule="nonzero"/><path fill="#8c7bff" d="M 308.027344 304.761719 C 308.027344 302.039062 305.816406 299.832031 303.09375 299.832031 C 300.367188 299.832031 298.160156 302.039062 298.160156 304.761719 C 298.160156 307.484375 300.367188 309.691406 303.09375 309.691406 C 305.816406 309.691406 308.027344 307.484375 308.027344 304.761719 " fill-opacity="1" fill-rule="nonzero"/><path fill="#8c7bff" d="M 324.699219 297.539062 C 324.699219 294.515625 322.253906 292.070312 319.230469 292.070312 C 316.207031 292.070312 313.757812 294.515625 313.757812 297.539062 C 313.757812 300.558594 316.207031 303.007812 319.230469 303.007812 C 322.253906 303.007812 324.699219 300.558594 324.699219 297.539062 " fill-opacity="1" fill-rule="nonzero"/><path fill="#8c7bff" d="M 312.554688 294.574219 C 312.554688 293.433594 311.632812 292.511719 310.492188 292.511719 C 309.351562 292.511719 308.433594 293.433594 308.433594 294.574219 C 308.433594 295.710938 309.351562 296.636719 310.492188 296.636719 C 311.632812 296.636719 312.554688 295.710938 312.554688 294.574219 " fill-opacity="1" fill-rule="nonzero"/><path fill="#8c7bff" d="M 306.929688 289.933594 C 306.929688 289.429688 306.523438 289.023438 306.019531 289.023438 C 305.515625 289.023438 305.109375 289.429688 305.109375 289.933594 C 305.109375 290.4375 305.515625 290.84375 306.019531 290.84375 C 306.523438 290.84375 306.929688 290.4375 306.929688 289.933594 " fill-opacity="1" fill-rule="nonzero"/><path fill="#8c7bff" d="M 302.773438 296.636719 C 302.773438 295.199219 301.605469 294.03125 300.167969 294.03125 C 298.730469 294.03125 297.5625 295.199219 297.5625 296.636719 C 297.5625 298.074219 298.730469 299.242188 300.167969 299.242188 C 301.605469 299.242188 302.773438 298.074219 302.773438 296.636719 " fill-opacity="1" fill-rule="nonzero"/><path fill="#8c7bff" d="M 299.265625 289.933594 C 299.265625 288.992188 298.503906 288.230469 297.5625 288.230469 C 296.617188 288.230469 295.855469 288.992188 295.855469 289.933594 C 295.855469 290.875 296.617188 291.636719 297.5625 291.636719 C 298.503906 291.636719 299.265625 290.875 299.265625 289.933594 " fill-opacity="1" fill-rule="nonzero"/><path fill="#8c7bff" d="M 293.027344 297.539062 C 293.027344 295.851562 291.660156 294.484375 289.972656 294.484375 C 288.285156 294.484375 286.917969 295.851562 286.917969 297.539062 C 286.917969 299.226562 288.285156 300.589844 289.972656 300.589844 C 291.660156 300.589844 293.027344 299.226562 293.027344 297.539062 " fill-opacity="1" fill-rule="nonzero"/><path fill="#8c7bff" d="M 294.460938 307.371094 C 294.460938 306.578125 293.820312 305.933594 293.027344 305.933594 C 292.234375 305.933594 291.59375 306.578125 291.59375 307.371094 C 291.59375 308.160156 292.234375 308.800781 293.027344 308.800781 C 293.820312 308.800781 294.460938 308.160156 294.460938 307.371094 " fill-opacity="1" fill-rule="nonzero"/><path fill="#8c7bff" d="M 299.265625 314.714844 C 299.265625 312.832031 297.738281 311.304688 295.855469 311.304688 C 293.976562 311.304688 292.449219 312.832031 292.449219 314.714844 C 292.449219 316.59375 293.976562 318.117188 295.855469 318.117188 C 297.738281 318.117188 299.265625 316.59375 299.265625 314.714844 " fill-opacity="1" fill-rule="nonzero"/><path fill="#8c7bff" d="M 293.449219 330.269531 C 293.449219 329.054688 292.46875 328.074219 291.253906 328.074219 C 290.039062 328.074219 289.058594 329.054688 289.058594 330.269531 C 289.058594 331.484375 290.039062 332.464844 291.253906 332.464844 C 292.46875 332.464844 293.449219 331.484375 293.449219 330.269531 " fill-opacity="1" fill-rule="nonzero"/><path fill="#8c7bff" d="M 314.300781 330.269531 C 314.300781 329.304688 313.515625 328.527344 312.554688 328.527344 C 311.589844 328.527344 310.808594 329.304688 310.808594 330.269531 C 310.808594 331.230469 311.589844 332.011719 312.554688 332.011719 C 313.515625 332.011719 314.300781 331.230469 314.300781 330.269531 " fill-opacity="1" fill-rule="nonzero"/><path fill="#8c7bff" d="M 318.457031 318.117188 C 318.457031 316.917969 317.480469 315.941406 316.28125 315.941406 C 315.074219 315.941406 314.097656 316.917969 314.097656 318.117188 C 314.097656 319.320312 315.074219 320.296875 316.28125 320.296875 C 317.480469 320.296875 318.457031 319.320312 318.457031 318.117188 " fill-opacity="1" fill-rule="nonzero"/><path fill="#8c7bff" d="M 325.332031 308.359375 C 325.332031 306.375 323.71875 304.761719 321.730469 304.761719 C 319.742188 304.761719 318.128906 306.375 318.128906 308.359375 C 318.128906 310.351562 319.742188 311.964844 321.730469 311.964844 C 323.71875 311.964844 325.332031 310.351562 325.332031 308.359375 " fill-opacity="1" fill-rule="nonzero"/><path fill="#8c7bff" d="M 327.484375 294.574219 C 327.484375 294.277344 327.242188 294.03125 326.941406 294.03125 C 326.640625 294.03125 326.398438 294.277344 326.398438 294.574219 C 326.398438 294.875 326.640625 295.121094 326.941406 295.121094 C 327.242188 295.121094 327.484375 294.875 327.484375 294.574219 " fill-opacity="1" fill-rule="nonzero"/><path fill="#8c7bff" d="M 326.945312 322.292969 C 326.945312 320.722656 325.671875 319.449219 324.101562 319.449219 C 322.53125 319.449219 321.253906 320.722656 321.253906 322.292969 C 321.253906 323.863281 322.53125 325.136719 324.101562 325.136719 C 325.671875 325.136719 326.945312 323.863281 326.945312 322.292969 " fill-opacity="1" fill-rule="nonzero"/><path fill="#8c7bff" d="M 321.253906 288.230469 C 321.253906 287.445312 320.621094 286.808594 319.832031 286.808594 C 319.046875 286.808594 318.410156 287.445312 318.410156 288.230469 C 318.410156 289.015625 319.046875 289.652344 319.832031 289.652344 C 320.621094 289.652344 321.253906 289.015625 321.253906 288.230469 " fill-opacity="1" fill-rule="nonzero"/><path fill="#8c7bff" d="M 331.550781 282.746094 C 331.550781 280.503906 329.730469 278.683594 327.484375 278.683594 C 325.242188 278.683594 323.421875 280.503906 323.421875 282.746094 C 323.421875 284.992188 325.242188 286.808594 327.484375 286.808594 C 329.730469 286.808594 331.550781 284.992188 331.550781 282.746094 " fill-opacity="1" fill-rule="nonzero"/><path fill="#8c7bff" d="M 333.703125 277.753906 C 333.703125 276.316406 332.535156 275.152344 331.09375 275.152344 C 329.660156 275.152344 328.488281 276.316406 328.488281 277.753906 C 328.488281 279.195312 329.660156 280.363281 331.09375 280.363281 C 332.535156 280.363281 333.703125 279.195312 333.703125 277.753906 " fill-opacity="1" fill-rule="nonzero"/><path fill="#8c7bff" d="M 338.328125 268.515625 C 338.328125 267.214844 337.273438 266.15625 335.96875 266.15625 C 334.667969 266.15625 333.613281 267.214844 333.613281 268.515625 C 333.613281 269.820312 334.667969 270.875 335.96875 270.875 C 337.273438 270.875 338.328125 269.820312 338.328125 268.515625 " fill-opacity="1" fill-rule="nonzero"/><path fill="#8c7bff" d="M 328.582031 264.964844 C 328.582031 264.058594 327.847656 263.324219 326.941406 263.324219 C 326.039062 263.324219 325.304688 264.058594 325.304688 264.964844 C 325.304688 265.867188 326.039062 266.601562 326.941406 266.601562 C 327.847656 266.601562 328.582031 265.867188 328.582031 264.964844 " fill-opacity="1" fill-rule="nonzero"/><path fill="#8c7bff" d="M 321.253906 275.148438 C 321.253906 272.402344 319.027344 270.171875 316.277344 270.171875 C 313.53125 270.171875 311.300781 272.402344 311.300781 275.148438 C 311.300781 277.894531 313.53125 280.125 316.277344 280.125 C 319.027344 280.125 321.253906 277.894531 321.253906 275.148438 " fill-opacity="1" fill-rule="nonzero"/><path fill="#8c7bff" d="M 337.058594 295.117188 C 337.058594 294.515625 336.570312 294.03125 335.972656 294.03125 C 335.371094 294.03125 334.882812 294.515625 334.882812 295.117188 C 334.882812 295.71875 335.371094 296.207031 335.972656 296.207031 C 336.570312 296.207031 337.058594 295.71875 337.058594 295.117188 " fill-opacity="1" fill-rule="nonzero"/><path fill="#8c7bff" d="M 345.28125 259.515625 C 345.28125 258.386719 344.367188 257.472656 343.234375 257.472656 C 342.105469 257.472656 341.195312 258.386719 341.195312 259.515625 C 341.195312 260.640625 342.105469 261.554688 343.234375 261.554688 C 344.367188 261.554688 345.28125 260.640625 345.28125 259.515625 " fill-opacity="1" fill-rule="nonzero"/><path fill="#8c7bff" d="M 269.339844 345.035156 C 269.339844 341.5625 266.523438 338.746094 263.050781 338.746094 C 259.574219 338.746094 256.757812 341.5625 256.757812 345.035156 C 256.757812 348.507812 259.574219 351.324219 263.050781 351.324219 C 266.523438 351.324219 269.339844 348.507812 269.339844 345.035156 " fill-opacity="1" fill-rule="nonzero"/><path fill="#8c7bff" d="M 279.691406 350.066406 C 279.691406 348.675781 278.566406 347.550781 277.171875 347.550781 C 275.785156 347.550781 274.65625 348.675781 274.65625 350.066406 C 274.65625 351.457031 275.785156 352.582031 277.171875 352.582031 C 278.566406 352.582031 279.691406 351.457031 279.691406 350.066406 " fill-opacity="1" fill-rule="nonzero"/><path fill="#8c7bff" d="M 277.988281 332.011719 C 277.988281 331.046875 277.210938 330.269531 276.246094 330.269531 C 275.28125 330.269531 274.503906 331.046875 274.503906 332.011719 C 274.503906 332.976562 275.28125 333.753906 276.246094 333.753906 C 277.210938 333.753906 277.988281 332.976562 277.988281 332.011719 " fill-opacity="1" fill-rule="nonzero"/><path fill="#8c7bff" d="M 280.894531 318.117188 C 280.894531 316.914062 279.917969 315.941406 278.714844 315.941406 C 277.515625 315.941406 276.539062 316.914062 276.539062 318.117188 C 276.539062 319.320312 277.515625 320.292969 278.714844 320.292969 C 279.917969 320.292969 280.894531 319.320312 280.894531 318.117188 " fill-opacity="1" fill-rule="nonzero"/><path fill="#8c7bff" d="M 298.164062 343.136719 C 298.164062 342.503906 297.644531 341.988281 297.011719 341.988281 C 296.375 341.988281 295.859375 342.503906 295.859375 343.136719 C 295.859375 343.773438 296.375 344.289062 297.011719 344.289062 C 297.644531 344.289062 298.164062 343.773438 298.164062 343.136719 " fill-opacity="1" fill-rule="nonzero"/><path fill="#8c7bff" d="M 302.648438 331.367188 C 302.648438 330.761719 302.15625 330.269531 301.550781 330.269531 C 300.941406 330.269531 300.449219 330.761719 300.449219 331.367188 C 300.449219 331.976562 300.941406 332.464844 301.550781 332.464844 C 302.15625 332.464844 302.648438 331.976562 302.648438 331.367188 " fill-opacity="1" fill-rule="nonzero"/><path fill="#8c7bff" d="M 310.707031 349.4375 C 310.707031 348.394531 309.859375 347.550781 308.820312 347.550781 C 307.773438 347.550781 306.929688 348.394531 306.929688 349.4375 C 306.929688 350.480469 307.773438 351.324219 308.820312 351.324219 C 309.859375 351.324219 310.707031 350.480469 310.707031 349.4375 " fill-opacity="1" fill-rule="nonzero"/><path fill="#fda4ff" d="M 268.332031 352.785156 C 268.140625 352.785156 267.957031 352.660156 267.898438 352.460938 C 267.828125 352.222656 267.964844 351.96875 268.203125 351.898438 C 268.316406 351.863281 279.660156 348.359375 293.5625 335.511719 C 306.398438 323.648438 324.097656 301.167969 335.53125 261.429688 C 335.601562 261.191406 335.855469 261.050781 336.09375 261.121094 C 336.335938 261.191406 336.476562 261.441406 336.40625 261.683594 C 324.902344 301.65625 307.066406 324.28125 294.132812 336.222656 C 280.082031 349.191406 268.578125 352.734375 268.464844 352.765625 C 268.421875 352.78125 268.375 352.785156 268.332031 352.785156 " fill-opacity="1" fill-rule="nonzero"/><path fill="#000000" d="M 293.453125 257.242188 L 267.164062 257.242188 C 266.914062 257.242188 266.710938 257.039062 266.710938 256.789062 C 266.710938 256.539062 266.914062 256.335938 267.164062 256.335938 L 293.453125 256.335938 C 293.703125 256.335938 293.90625 256.539062 293.90625 256.789062 C 293.90625 257.039062 293.703125 257.242188 293.453125 257.242188 " fill-opacity="1" fill-rule="nonzero"/><path fill="#000000" d="M 293.453125 267.429688 L 267.164062 267.429688 C 266.914062 267.429688 266.710938 267.226562 266.710938 266.976562 C 266.710938 266.722656 266.914062 266.523438 267.164062 266.523438 L 293.453125 266.523438 C 293.703125 266.523438 293.90625 266.722656 293.90625 266.976562 C 293.90625 267.226562 293.703125 267.429688 293.453125 267.429688 " fill-opacity="1" fill-rule="nonzero"/><path fill="#000000" d="M 335.507812 352.339844 C 335.253906 352.339844 335.050781 352.136719 335.050781 351.886719 L 335.050781 325.605469 C 335.050781 325.359375 335.253906 325.152344 335.507812 325.152344 C 335.757812 325.152344 335.960938 325.359375 335.960938 325.605469 L 335.960938 351.886719 C 335.960938 352.136719 335.757812 352.339844 335.507812 352.339844 " fill-opacity="1" fill-rule="nonzero"/><path fill="#000000" d="M 345.695312 352.339844 C 345.445312 352.339844 345.238281 352.136719 345.238281 351.886719 L 345.238281 325.609375 C 345.238281 325.359375 345.445312 325.152344 345.695312 325.152344 C 345.945312 325.152344 346.148438 325.359375 346.148438 325.609375 L 346.148438 351.886719 C 346.148438 352.136719 345.945312 352.339844 345.695312 352.339844 " fill-opacity="1" fill-rule="nonzero"/><path fill="#fed101" d="M 173.136719 341.511719 L 36.726562 341.511719 L 45.917969 253.566406 L 130.820312 253.566406 C 154.191406 253.566406 173.136719 272.363281 173.136719 295.554688 L 173.136719 341.511719 " fill-opacity="1" fill-rule="nonzero"/><path fill="#8c7bff" d="M 173.136719 341.511719 L 32.132812 341.511719 L 48.316406 253.566406 L 130.820312 253.566406 C 154.191406 253.566406 173.136719 272.363281 173.136719 295.554688 L 173.136719 341.511719 " fill-opacity="1" fill-rule="nonzero"/><path fill="#000000" d="M 32.675781 341.058594 L 172.679688 341.058594 L 172.679688 295.554688 C 172.679688 272.652344 153.902344 254.019531 130.820312 254.019531 L 48.695312 254.019531 Z M 173.136719 341.964844 L 32.132812 341.964844 C 31.996094 341.964844 31.867188 341.90625 31.78125 341.800781 C 31.695312 341.699219 31.660156 341.5625 31.683594 341.429688 L 47.871094 253.484375 C 47.910156 253.269531 48.097656 253.109375 48.316406 253.109375 L 130.820312 253.109375 C 154.402344 253.109375 173.589844 272.152344 173.589844 295.554688 L 173.589844 341.511719 C 173.589844 341.761719 173.386719 341.964844 173.136719 341.964844 " fill-opacity="1" fill-rule="nonzero"/><path fill="#000000" d="M 146.023438 303.664062 C 145.816406 303.664062 145.628906 303.519531 145.582031 303.304688 L 141.0625 281.914062 C 141.011719 281.667969 141.167969 281.425781 141.414062 281.375 C 141.660156 281.324219 141.902344 281.480469 141.953125 281.722656 L 146.46875 303.117188 C 146.523438 303.363281 146.367188 303.601562 146.121094 303.652344 C 146.089844 303.660156 146.054688 303.664062 146.023438 303.664062 " fill-opacity="1" fill-rule="nonzero"/><path fill="#000000" d="M 146.023438 374.320312 L 64.339844 374.320312 C 58.996094 374.320312 54.066406 371.480469 51.410156 366.878906 L 146.023438 366.878906 L 146.023438 374.320312 " fill-opacity="1" fill-rule="nonzero"/><path fill="#fda4ff" d="M 5.757812 348.117188 L 5.757812 303.210938 L 39.996094 303.210938 L 39.996094 331.222656 C 39.996094 334.828125 42.945312 337.753906 46.578125 337.753906 L 102.894531 337.738281 L 102.894531 368.355469 L 26.167969 368.371094 C 14.894531 368.371094 5.757812 359.304688 5.757812 348.117188 " fill-opacity="1" fill-rule="nonzero"/><path fill="#fda4ff" d="M 136.769531 347.261719 L 140.113281 350.847656 C 141.808594 352.664062 141.976562 355.40625 140.519531 357.410156 L 137.234375 361.941406 L 129.265625 353.117188 L 79.203125 353.117188 L 79.203125 342.722656 L 126.304688 342.722656 C 130.277344 342.722656 134.070312 344.367188 136.769531 347.261719 " fill-opacity="1" fill-rule="nonzero"/><path fill="#fda4ff" d="M 135.226562 340.773438 L 137.121094 342.804688 C 138.808594 344.617188 138.980469 347.363281 137.527344 349.367188 L 134.234375 353.898438 L 126.265625 345.074219 L 79.203125 345.074219 L 79.203125 337.84375 L 87.191406 337.84375 C 90.496094 337.84375 96.386719 334.679688 103.847656 334.679688 L 121.167969 334.679688 C 126.503906 334.679688 131.597656 336.886719 135.226562 340.773438 " fill-opacity="1" fill-rule="nonzero"/><path fill="#fda4ff" d="M 137.9375 354.246094 L 141.953125 358.554688 C 143.644531 360.367188 143.816406 363.113281 142.359375 365.117188 L 139.074219 369.648438 L 131.101562 360.824219 L 100.085938 360.824219 L 100.085938 350.425781 L 129.125 350.425781 C 132.46875 350.425781 135.664062 351.8125 137.9375 354.246094 " fill-opacity="1" fill-rule="nonzero"/><path fill="#fda4ff" d="M 136.46875 361.820312 L 140.660156 366.3125 C 142.210938 367.976562 142.367188 370.496094 141.03125 372.339844 C 139.238281 374.808594 135.601562 375 133.550781 372.734375 L 131.277344 370.214844 C 130.191406 369.015625 128.640625 368.324219 127.011719 368.324219 L 100.96875 368.324219 C 94.160156 368.324219 89.367188 367.9375 82.804688 357.917969 L 127.496094 357.929688 C 130.902344 357.929688 134.15625 359.339844 136.46875 361.820312 " fill-opacity="1" fill-rule="nonzero"/><path fill="#000000" d="M 5.757812 328.152344 L 5.757812 294.695312 L 39.996094 294.695312 L 39.996094 320.613281 C 37.699219 320.519531 34.570312 320.242188 32.136719 319.5 C 28.496094 318.386719 24.921875 317.871094 21.417969 322.628906 C 16.824219 328.859375 10.925781 329.539062 5.757812 328.152344 " fill-opacity="1" fill-rule="nonzero"/><path fill="#000000" d="M 140.519531 357.867188 C 140.429688 357.867188 140.335938 357.839844 140.253906 357.777344 C 140.050781 357.632812 140.007812 357.347656 140.152344 357.144531 C 141.476562 355.324219 141.320312 352.804688 139.78125 351.160156 L 136.433594 347.570312 C 133.832031 344.777344 130.140625 343.175781 126.304688 343.175781 L 117.089844 343.175781 C 116.839844 343.175781 116.636719 342.972656 116.636719 342.722656 C 116.636719 342.472656 116.839844 342.265625 117.089844 342.265625 L 126.304688 342.265625 C 130.390625 342.265625 134.324219 343.972656 137.097656 346.949219 L 140.445312 350.539062 C 142.28125 352.503906 142.464844 355.503906 140.890625 357.679688 C 140.800781 357.800781 140.660156 357.867188 140.519531 357.867188 " fill-opacity="1" fill-rule="nonzero"/><path fill="#000000" d="M 141.078125 367.335938 C 140.988281 367.335938 140.894531 367.304688 140.8125 367.25 C 140.609375 367.101562 140.566406 366.816406 140.714844 366.613281 L 141.992188 364.851562 C 143.316406 363.03125 143.160156 360.511719 141.621094 358.863281 L 137.605469 354.558594 C 135.425781 352.222656 132.335938 350.878906 129.125 350.878906 L 117.003906 350.878906 C 116.753906 350.878906 116.550781 350.675781 116.550781 350.425781 C 116.550781 350.175781 116.753906 349.972656 117.003906 349.972656 L 129.125 349.972656 C 132.585938 349.972656 135.917969 351.417969 138.269531 353.9375 L 142.285156 358.242188 C 144.121094 360.210938 144.304688 363.210938 142.730469 365.382812 L 141.449219 367.148438 C 141.359375 367.269531 141.21875 367.335938 141.078125 367.335938 " fill-opacity="1" fill-rule="nonzero"/><path fill="#000000" d="M 137.125 374.773438 C 135.632812 374.773438 134.21875 374.152344 133.214844 373.039062 L 130.941406 370.519531 C 129.941406 369.414062 128.507812 368.78125 127.011719 368.78125 L 98.207031 368.78125 C 93.042969 368.78125 88.230469 366.246094 85.328125 361.996094 C 85.183594 361.792969 85.238281 361.507812 85.445312 361.367188 C 85.652344 361.226562 85.933594 361.277344 86.078125 361.484375 C 88.808594 365.484375 93.34375 367.871094 98.207031 367.871094 L 127.011719 367.871094 C 128.765625 367.871094 130.445312 368.613281 131.617188 369.914062 L 133.890625 372.429688 C 134.773438 373.410156 136.042969 373.933594 137.367188 373.859375 C 138.6875 373.789062 139.890625 373.140625 140.664062 372.070312 C 141.867188 370.414062 141.726562 368.121094 140.324219 366.621094 L 136.136719 362.128906 C 133.917969 359.746094 130.769531 358.382812 127.496094 358.382812 L 117.414062 358.382812 C 117.160156 358.382812 116.957031 358.179688 116.957031 357.929688 C 116.957031 357.679688 117.160156 357.472656 117.414062 357.472656 L 127.496094 357.472656 C 131.019531 357.472656 134.410156 358.945312 136.800781 361.507812 L 140.992188 366 C 142.6875 367.816406 142.859375 370.597656 141.398438 372.605469 C 140.464844 373.894531 139.011719 374.683594 137.414062 374.765625 C 137.316406 374.773438 137.222656 374.773438 137.125 374.773438 " fill-opacity="1" fill-rule="nonzero"/><path fill="#000000" d="M 26.164062 368.824219 C 20.59375 368.824219 15.355469 366.671875 11.414062 362.761719 C 7.472656 358.851562 5.300781 353.652344 5.300781 348.117188 L 5.300781 302.757812 L 40.449219 302.757812 L 40.449219 331.222656 C 40.449219 332.84375 41.085938 334.371094 42.246094 335.519531 C 43.402344 336.667969 44.941406 337.300781 46.578125 337.300781 L 85.695312 337.300781 C 88.648438 337.300781 90.996094 336.65625 93.484375 335.976562 C 96.484375 335.15625 99.882812 334.226562 105.003906 334.226562 L 121.167969 334.226562 C 126.613281 334.226562 131.855469 336.5 135.558594 340.464844 L 137.453125 342.496094 C 139.035156 344.191406 139.417969 346.640625 138.425781 348.734375 C 138.320312 348.960938 138.046875 349.058594 137.824219 348.949219 C 137.59375 348.839844 137.5 348.570312 137.605469 348.347656 C 138.433594 346.589844 138.113281 344.539062 136.785156 343.117188 L 134.890625 341.082031 C 131.363281 337.304688 126.363281 335.132812 121.167969 335.132812 L 105.003906 335.132812 C 100.003906 335.132812 96.667969 336.046875 93.722656 336.851562 C 91.175781 337.550781 88.769531 338.207031 85.695312 338.207031 L 46.578125 338.207031 C 44.699219 338.207031 42.933594 337.480469 41.605469 336.164062 C 40.273438 334.84375 39.542969 333.089844 39.542969 331.222656 L 39.542969 303.664062 L 6.210938 303.664062 L 6.210938 348.117188 C 6.210938 353.40625 8.285156 358.378906 12.054688 362.117188 C 15.824219 365.855469 20.835938 367.917969 26.164062 367.917969 C 26.164062 367.917969 26.167969 367.917969 26.167969 367.917969 L 108.148438 367.917969 C 108.398438 367.917969 108.605469 368.117188 108.605469 368.371094 C 108.605469 368.621094 108.398438 368.824219 108.148438 368.824219 L 26.167969 368.824219 C 26.167969 368.824219 26.164062 368.824219 26.164062 368.824219 " fill-opacity="1" fill-rule="nonzero"/><path fill="#8c7bff" d="M 48.816406 310.070312 L 0.480469 310.070312 L 0.480469 301.683594 C 0.480469 275.109375 22.03125 253.566406 48.621094 253.566406 L 48.816406 253.566406 L 48.816406 310.070312 " fill-opacity="1" fill-rule="nonzero"/><path fill="#000000" d="M 48.816406 310.523438 L 0.480469 310.523438 C 0.230469 310.523438 0.0273438 310.320312 0.0273438 310.070312 L 0.0273438 301.53125 C 0.0273438 274.832031 21.914062 253.109375 48.816406 253.109375 C 49.066406 253.109375 49.269531 253.316406 49.269531 253.566406 C 49.269531 253.816406 49.066406 254.019531 48.816406 254.019531 C 22.414062 254.019531 0.933594 275.332031 0.933594 301.53125 L 0.933594 309.617188 L 48.359375 309.617188 L 48.359375 294.496094 C 48.359375 294.246094 48.566406 294.042969 48.816406 294.042969 C 49.066406 294.042969 49.269531 294.246094 49.269531 294.496094 L 49.269531 310.070312 C 49.269531 310.320312 49.066406 310.523438 48.816406 310.523438 " fill-opacity="1" fill-rule="nonzero"/><path fill="#ffffff" d="M 251.515625 374.320312 L 117.996094 374.320312 L 150.160156 286.21875 L 283.679688 286.21875 L 251.515625 374.320312 " fill-opacity="1" fill-rule="nonzero"/><path fill="#000000" d="M 118.644531 373.867188 L 251.195312 373.867188 L 283.03125 286.671875 L 150.480469 286.671875 Z M 251.511719 374.773438 L 117.996094 374.773438 C 117.847656 374.773438 117.707031 374.703125 117.621094 374.582031 C 117.539062 374.460938 117.515625 374.304688 117.566406 374.164062 L 149.734375 286.0625 C 149.800781 285.882812 149.972656 285.765625 150.160156 285.765625 L 283.679688 285.765625 C 283.828125 285.765625 283.964844 285.835938 284.054688 285.957031 C 284.136719 286.082031 284.15625 286.234375 284.109375 286.375 L 251.941406 374.476562 C 251.875 374.65625 251.703125 374.773438 251.511719 374.773438 " fill-opacity="1" fill-rule="nonzero"/><path fill="#ffffff" d="M 213.070312 325.964844 C 211.90625 329.210938 209.121094 331.191406 206.851562 330.386719 C 204.585938 329.585938 203.691406 326.304688 204.859375 323.058594 C 206.023438 319.8125 208.808594 317.832031 211.074219 318.632812 C 213.34375 319.4375 214.238281 322.71875 213.070312 325.964844 " fill-opacity="1" fill-rule="nonzero"/><path fill="#000000" d="M 213.070312 325.964844 L 213.074219 325.964844 Z M 210.015625 318.910156 C 208.191406 318.910156 206.207031 320.640625 205.285156 323.210938 C 204.636719 325.023438 204.640625 326.925781 205.292969 328.3125 C 205.683594 329.132812 206.277344 329.703125 207.003906 329.960938 C 209.03125 330.679688 211.5625 328.816406 212.644531 325.808594 C 213.292969 324 213.292969 322.09375 212.632812 320.710938 C 212.246094 319.890625 211.652344 319.320312 210.925781 319.0625 C 210.632812 318.957031 210.328125 318.910156 210.015625 318.910156 Z M 207.886719 331.019531 C 207.484375 331.019531 207.085938 330.953125 206.699219 330.816406 C 205.738281 330.476562 204.96875 329.746094 204.472656 328.699219 C 203.71875 327.101562 203.699219 324.9375 204.429688 322.902344 C 205.679688 319.429688 208.730469 317.320312 211.226562 318.207031 C 212.1875 318.546875 212.960938 319.277344 213.457031 320.324219 C 214.214844 321.917969 214.230469 324.085938 213.496094 326.117188 C 213.496094 326.121094 213.496094 326.121094 213.496094 326.121094 C 212.441406 329.054688 210.097656 331.019531 207.886719 331.019531 " fill-opacity="1" fill-rule="nonzero"/><path fill="#8c7bff" d="M 108.050781 225.980469 C 107.800781 225.980469 107.597656 225.777344 107.597656 225.527344 L 107.597656 207.855469 C 107.597656 201.1875 102.128906 195.757812 95.402344 195.757812 C 88.679688 195.757812 83.210938 201.1875 83.210938 207.855469 L 83.210938 225.527344 C 83.210938 225.777344 83.007812 225.980469 82.753906 225.980469 C 82.503906 225.980469 82.300781 225.777344 82.300781 225.527344 L 82.300781 207.855469 C 82.300781 200.683594 88.179688 194.851562 95.402344 194.851562 C 102.628906 194.851562 108.507812 200.683594 108.507812 207.855469 L 108.507812 225.527344 C 108.507812 225.777344 108.304688 225.980469 108.050781 225.980469 " fill-opacity="1" fill-rule="nonzero"/><path fill="#ffffff" d="M 114.738281 227.910156 C 114.738281 232.933594 112.035156 237.003906 108.703125 237.003906 C 105.371094 237.003906 102.667969 232.933594 102.667969 227.910156 C 102.667969 222.894531 105.371094 218.820312 108.703125 218.820312 C 112.035156 218.820312 114.738281 222.894531 114.738281 227.910156 " fill-opacity="1" fill-rule="nonzero"/><path fill="#000000" d="M 108.703125 219.277344 C 105.625 219.277344 103.121094 223.152344 103.121094 227.910156 C 103.121094 232.675781 105.625 236.550781 108.703125 236.550781 C 111.78125 236.550781 114.285156 232.675781 114.285156 227.910156 C 114.285156 223.152344 111.78125 219.277344 108.703125 219.277344 Z M 108.703125 237.457031 C 105.125 237.457031 102.214844 233.175781 102.214844 227.910156 C 102.214844 222.648438 105.125 218.367188 108.703125 218.367188 C 112.28125 218.367188 115.191406 222.648438 115.191406 227.910156 C 115.191406 233.175781 112.28125 237.457031 108.703125 237.457031 " fill-opacity="1" fill-rule="nonzero"/><path fill="#fda4ff" d="M 85.199219 253.566406 L 101.136719 267.246094 L 101.136719 233.640625 L 85.199219 233.640625 L 85.199219 253.566406 " fill-opacity="1" fill-rule="nonzero"/><path fill="#000000" d="M 102.328125 215.027344 C 98.578125 218.765625 98.585938 224.816406 102.355469 228.539062 C 106.121094 232.265625 112.21875 232.253906 115.96875 228.515625 C 119.722656 224.777344 119.710938 218.730469 115.945312 215.003906 C 112.179688 211.28125 106.082031 211.289062 102.328125 215.027344 " fill-opacity="1" fill-rule="nonzero"/><path fill="#000000" d="M 74.355469 219.539062 C 70.601562 223.277344 70.613281 229.328125 74.378906 233.050781 C 78.148438 236.777344 84.242188 236.765625 87.996094 233.027344 C 91.75 229.289062 91.738281 223.242188 87.972656 219.515625 C 84.207031 215.792969 78.109375 215.800781 74.355469 219.539062 " fill-opacity="1" fill-rule="nonzero"/><path fill="#000000" d="M 75.335938 207.25 C 71.582031 210.984375 71.59375 217.035156 75.359375 220.761719 C 79.125 224.484375 85.222656 224.472656 88.976562 220.734375 C 92.726562 217 92.71875 210.949219 88.949219 207.222656 C 85.183594 203.5 79.085938 203.511719 75.335938 207.25 " fill-opacity="1" fill-rule="nonzero"/><path fill="#000000" d="M 86.347656 201.042969 C 82.59375 204.78125 82.605469 210.828125 86.371094 214.554688 C 90.140625 218.277344 96.234375 218.269531 99.988281 214.53125 C 103.742188 210.792969 103.730469 204.742188 99.964844 201.019531 C 96.199219 197.292969 90.101562 197.304688 86.347656 201.042969 " fill-opacity="1" fill-rule="nonzero"/><path fill="#000000" d="M 95.847656 204.976562 C 92.09375 208.714844 92.105469 214.765625 95.871094 218.488281 C 99.640625 222.210938 105.734375 222.199219 109.488281 218.460938 C 113.242188 214.726562 113.230469 208.675781 109.464844 204.953125 C 105.695312 201.226562 99.601562 201.238281 95.847656 204.976562 " fill-opacity="1" fill-rule="nonzero"/><path fill="#000000" d="M 85.199219 239.640625 L 85.199219 233.640625 L 101.136719 233.640625 L 101.136719 246.878906 C 99.699219 247.164062 96.832031 247.519531 93.539062 246.445312 C 88.386719 244.761719 85.855469 240.761719 85.199219 239.640625 " fill-opacity="1" fill-rule="nonzero"/><path fill="#fda4ff" d="M 82.753906 229.296875 C 82.753906 236.960938 88.417969 243.171875 95.402344 243.171875 C 102.390625 243.171875 108.050781 236.960938 108.050781 229.296875 C 108.050781 221.636719 102.390625 215.425781 95.402344 215.425781 C 88.417969 215.425781 82.753906 221.636719 82.753906 229.296875 " fill-opacity="1" fill-rule="nonzero"/><path fill="#000000" d="M 95.402344 243.625 C 91.351562 243.625 88.6875 242.96875 85.378906 239.375 C 85.210938 239.191406 85.222656 238.90625 85.40625 238.734375 C 85.59375 238.566406 85.878906 238.578125 86.050781 238.761719 C 89.144531 242.125 91.535156 242.71875 95.402344 242.71875 C 102.128906 242.71875 107.597656 236.699219 107.597656 229.296875 C 107.597656 221.898438 102.128906 215.878906 95.402344 215.878906 C 91.085938 215.878906 87.179688 218.3125 84.949219 222.390625 C 84.828125 222.609375 84.554688 222.6875 84.332031 222.570312 C 84.113281 222.449219 84.03125 222.171875 84.152344 221.953125 C 86.507812 217.644531 90.820312 214.972656 95.402344 214.972656 C 102.628906 214.972656 108.507812 221.398438 108.507812 229.296875 C 108.507812 237.199219 102.628906 243.625 95.402344 243.625 " fill-opacity="1" fill-rule="nonzero"/><path fill="#000000" d="M 95.402344 215.425781 C 88.417969 215.425781 82.753906 221.636719 82.753906 229.296875 C 82.753906 229.988281 82.804688 230.664062 82.890625 231.328125 L 94.382812 221.023438 L 107.523438 225.332031 C 105.96875 219.601562 101.132812 215.425781 95.402344 215.425781 " fill-opacity="1" fill-rule="nonzero"/><path fill="#ffffff" d="M 89.742188 233.027344 C 89.972656 234.410156 90.632812 235.730469 91.730469 236.777344 C 94.179688 239.105469 97.921875 239.25 100.539062 237.277344 L 89.742188 233.027344 " fill-opacity="1" fill-rule="nonzero"/><path fill="#8c7bff" d="M 82.753906 225.980469 C 82.503906 225.980469 82.300781 225.777344 82.300781 225.527344 L 82.300781 207.855469 C 82.300781 200.683594 88.179688 194.851562 95.402344 194.851562 C 95.65625 194.851562 95.859375 195.054688 95.859375 195.304688 C 95.859375 195.558594 95.65625 195.757812 95.402344 195.757812 C 88.679688 195.757812 83.210938 201.1875 83.210938 207.855469 L 83.210938 225.527344 C 83.210938 225.777344 83.007812 225.980469 82.753906 225.980469 " fill-opacity="1" fill-rule="nonzero"/><path fill="#ffffff" d="M 88.191406 228.460938 C 88.191406 233.480469 85.488281 237.550781 82.152344 237.550781 C 78.820312 237.550781 76.117188 233.480469 76.117188 228.460938 C 76.117188 223.441406 78.820312 219.371094 82.152344 219.371094 C 85.488281 219.371094 88.191406 223.441406 88.191406 228.460938 " fill-opacity="1" fill-rule="nonzero"/><path fill="#000000" d="M 82.15625 219.824219 C 79.078125 219.824219 76.574219 223.699219 76.574219 228.460938 C 76.574219 233.222656 79.078125 237.097656 82.15625 237.097656 C 85.230469 237.097656 87.734375 233.222656 87.734375 228.460938 C 87.734375 223.699219 85.230469 219.824219 82.15625 219.824219 Z M 82.15625 238.007812 C 78.574219 238.007812 75.664062 233.722656 75.664062 228.460938 C 75.664062 223.199219 78.574219 218.914062 82.15625 218.914062 C 85.734375 218.914062 88.644531 223.199219 88.644531 228.460938 C 88.644531 233.722656 85.734375 238.007812 82.15625 238.007812 " fill-opacity="1" fill-rule="nonzero"/><path fill="#ffffff" d="M 80.992188 228.460938 C 80.992188 231.175781 79.53125 233.375 77.730469 233.375 C 75.925781 233.375 74.464844 231.175781 74.464844 228.460938 C 74.464844 225.746094 75.925781 223.546875 77.730469 223.546875 C 79.53125 223.546875 80.992188 225.746094 80.992188 228.460938 " fill-opacity="1" fill-rule="nonzero"/><path fill="#000000" d="M 77.730469 224 C 76.207031 224 74.921875 226.042969 74.921875 228.460938 C 74.921875 230.878906 76.207031 232.921875 77.730469 232.921875 C 79.253906 232.921875 80.539062 230.878906 80.539062 228.460938 C 80.539062 226.042969 79.253906 224 77.730469 224 Z M 77.730469 233.832031 C 75.679688 233.832031 74.011719 231.421875 74.011719 228.460938 C 74.011719 225.5 75.679688 223.089844 77.730469 223.089844 C 79.777344 223.089844 81.445312 225.5 81.445312 228.460938 C 81.445312 231.421875 79.777344 233.832031 77.730469 233.832031 " fill-opacity="1" fill-rule="nonzero"/></svg>