<svg xmlns="http://www.w3.org/2000/svg" xmlns:xlink="http://www.w3.org/1999/xlink" width="500" zoomAndPan="magnify" viewBox="0 0 375 374.999991" height="500" preserveAspectRatio="xMidYMid meet" version="1.0"><defs><clipPath id="d005588a9c"><path d="M 25.671875 0 L 337.671875 0 L 337.671875 366.75 L 25.671875 366.75 Z M 25.671875 0 " clip-rule="nonzero"/></clipPath><clipPath id="96a90c81e0"><path d="M 136.21875 82.921875 L 179.542969 107.917969 C 180.1875 108.292969 180.910156 108.476562 181.628906 108.476562 C 182.347656 108.476562 183.070312 108.292969 183.714844 107.917969 L 227.039062 82.921875 C 228.332031 82.179688 229.125 80.804688 229.125 79.316406 L 229.125 29.328125 C 229.125 27.835938 228.332031 26.460938 227.039062 25.71875 L 183.714844 0.726562 C 182.421875 -0.015625 180.835938 -0.015625 179.542969 0.726562 L 136.21875 25.71875 C 134.925781 26.460938 134.132812 27.835938 134.132812 29.328125 L 134.132812 79.316406 C 134.132812 80.796875 134.925781 82.171875 136.21875 82.921875 Z M 142.472656 31.734375 L 181.628906 9.140625 L 220.785156 31.726562 L 220.785156 76.898438 L 181.628906 99.492188 L 142.472656 76.90625 Z M 133.300781 306.113281 L 79.066406 306.113281 C 76.765625 306.113281 74.894531 307.980469 74.894531 310.28125 L 74.894531 362.585938 C 74.894531 364.882812 76.765625 366.75 79.066406 366.75 L 133.300781 366.75 C 135.601562 366.75 137.46875 364.882812 137.46875 362.585938 L 137.46875 310.28125 C 137.46875 307.972656 135.601562 306.113281 133.300781 306.113281 Z M 129.128906 358.417969 L 83.234375 358.417969 L 83.234375 314.445312 L 129.128906 314.445312 Z M 285.011719 306.113281 L 230.777344 306.113281 C 228.476562 306.113281 226.605469 307.980469 226.605469 310.28125 L 226.605469 362.585938 C 226.605469 364.882812 228.476562 366.75 230.777344 366.75 L 285.011719 366.75 C 287.3125 366.75 289.179688 364.882812 289.179688 362.585938 L 289.179688 310.28125 C 289.179688 307.972656 287.3125 306.113281 285.011719 306.113281 Z M 280.839844 358.417969 L 234.945312 358.417969 L 234.945312 314.445312 L 280.839844 314.445312 Z M 209.15625 306.113281 L 154.921875 306.113281 C 152.621094 306.113281 150.75 307.980469 150.75 310.28125 L 150.75 362.585938 C 150.75 364.882812 152.621094 366.75 154.921875 366.75 L 209.15625 366.75 C 211.457031 366.75 213.324219 364.882812 213.324219 362.585938 L 213.324219 310.28125 C 213.324219 307.972656 211.457031 306.113281 209.15625 306.113281 Z M 204.984375 358.417969 L 159.089844 358.417969 L 159.089844 314.445312 L 204.984375 314.445312 Z M 257.078125 296.734375 C 259.378906 296.734375 261.246094 294.867188 261.246094 292.566406 L 261.246094 263.113281 C 261.246094 260.816406 259.378906 258.949219 257.078125 258.949219 L 185.796875 258.949219 L 185.796875 226.78125 C 206.644531 224.683594 222.972656 207.054688 222.972656 185.683594 C 222.972656 162.90625 204.425781 144.375 181.628906 144.375 C 158.832031 144.375 140.285156 162.90625 140.285156 185.683594 C 140.285156 207.054688 156.613281 224.691406 177.460938 226.78125 L 177.460938 258.957031 L 106.191406 258.957031 C 103.890625 258.957031 102.019531 260.824219 102.019531 263.125 L 102.019531 292.574219 C 102.019531 294.875 103.890625 296.742188 106.191406 296.742188 C 108.492188 296.742188 110.359375 294.875 110.359375 292.574219 L 110.359375 267.289062 L 252.90625 267.289062 L 252.90625 292.574219 C 252.90625 294.867188 254.765625 296.734375 257.078125 296.734375 Z M 148.625 185.675781 C 148.625 167.488281 163.433594 152.699219 181.628906 152.699219 C 199.832031 152.699219 214.632812 167.496094 214.632812 185.675781 C 214.632812 203.863281 199.824219 218.648438 181.628906 218.648438 C 163.425781 218.660156 148.625 203.863281 148.625 185.675781 Z M 331.207031 89.386719 C 327.277344 80.105469 321.65625 71.773438 314.496094 64.617188 C 307.332031 57.46875 298.992188 51.847656 289.703125 47.921875 C 280.082031 43.855469 269.867188 41.789062 259.335938 41.789062 L 257.667969 41.789062 C 255.367188 41.789062 253.5 43.65625 253.5 45.957031 L 253.5 61.6875 C 253.5 63.984375 255.367188 65.851562 257.667969 65.851562 L 259.335938 65.851562 C 273.738281 65.851562 287.277344 71.457031 297.460938 81.632812 C 307.640625 91.804688 313.253906 105.335938 313.253906 119.722656 C 313.253906 134.109375 307.640625 147.640625 297.460938 157.8125 C 290.039062 165.230469 280.917969 170.210938 270.875 172.371094 L 270.910156 160.988281 C 270.917969 159.371094 269.976562 157.890625 268.507812 157.207031 C 267.03125 156.523438 265.304688 156.746094 264.0625 157.789062 L 235.539062 181.707031 C 234.59375 182.5 234.046875 183.667969 234.046875 184.898438 C 234.046875 186.132812 234.59375 187.300781 235.539062 188.089844 L 263.929688 211.84375 C 264.699219 212.484375 265.648438 212.816406 266.605469 212.816406 C 267.207031 212.816406 267.800781 212.691406 268.367188 212.425781 C 269.835938 211.742188 270.777344 210.277344 270.777344 208.660156 L 270.808594 196.820312 C 277.296875 195.863281 283.644531 194.089844 289.695312 191.523438 C 298.984375 187.597656 307.324219 181.984375 314.488281 174.828125 C 321.640625 167.671875 327.269531 159.339844 331.199219 150.058594 C 335.265625 140.441406 337.335938 130.238281 337.335938 119.714844 C 337.335938 109.207031 335.273438 99.003906 331.207031 89.386719 Z M 323.527344 146.816406 C 320.015625 155.105469 314.996094 162.546875 308.601562 168.9375 C 302.203125 175.328125 294.75 180.34375 286.460938 183.851562 C 280.015625 186.574219 273.21875 188.308594 266.257812 188.980469 C 264.128906 189.191406 262.496094 190.980469 262.496094 193.113281 L 262.480469 199.738281 L 244.71875 184.882812 L 262.554688 169.917969 L 262.539062 177.277344 C 262.539062 178.476562 263.046875 179.617188 263.945312 180.410156 C 264.847656 181.199219 266.039062 181.574219 267.222656 181.425781 C 280.984375 179.710938 293.480469 173.578125 303.371094 163.695312 C 315.128906 151.949219 321.609375 136.328125 321.609375 119.714844 C 321.609375 103.101562 315.128906 87.480469 303.371094 75.734375 C 292.207031 64.578125 277.539062 58.179688 261.855469 57.5625 L 261.855469 50.15625 C 270.375 50.457031 278.648438 52.269531 286.46875 55.585938 C 294.765625 59.09375 302.210938 64.109375 308.609375 70.5 C 315.003906 76.890625 320.023438 84.339844 323.535156 92.628906 C 327.171875 101.210938 329.011719 110.324219 329.011719 119.722656 C 328.996094 129.121094 327.152344 138.234375 323.527344 146.816406 Z M 92.480469 208.660156 C 92.492188 210.277344 93.425781 211.742188 94.890625 212.425781 C 95.449219 212.683594 96.050781 212.816406 96.652344 212.816406 C 97.609375 212.816406 98.5625 212.484375 99.328125 211.84375 L 127.71875 188.089844 C 128.664062 187.300781 129.214844 186.132812 129.214844 184.898438 C 129.214844 183.667969 128.671875 182.5 127.71875 181.707031 L 99.195312 157.789062 C 97.953125 156.746094 96.21875 156.523438 94.75 157.207031 C 93.28125 157.890625 92.339844 159.371094 92.347656 160.988281 L 92.382812 172.367188 C 82.332031 170.210938 73.21875 165.230469 65.796875 157.8125 C 55.617188 147.640625 50.003906 134.109375 50.003906 119.722656 C 50.003906 105.335938 55.617188 91.804688 65.796875 81.632812 C 75.980469 71.457031 89.523438 65.851562 103.921875 65.851562 L 105.589844 65.851562 C 107.890625 65.851562 109.757812 63.984375 109.757812 61.6875 L 109.757812 47.605469 L 109.75 45.941406 C 109.742188 43.648438 107.875 41.789062 105.582031 41.789062 L 103.914062 41.789062 C 93.390625 41.789062 83.175781 43.855469 73.554688 47.921875 C 64.265625 51.847656 55.925781 57.46875 48.761719 64.617188 C 41.601562 71.773438 35.980469 80.105469 32.050781 89.386719 C 27.984375 99.003906 25.914062 109.207031 25.914062 119.730469 C 25.914062 130.246094 27.976562 140.460938 32.050781 150.074219 C 35.980469 159.355469 41.609375 167.6875 48.761719 174.84375 C 55.925781 182 64.265625 187.617188 73.554688 191.539062 C 79.617188 194.105469 85.953125 195.878906 92.441406 196.839844 Z M 54.667969 168.945312 C 48.269531 162.554688 43.25 155.105469 39.742188 146.816406 C 36.105469 138.234375 34.261719 129.121094 34.261719 119.722656 C 34.261719 110.324219 36.105469 101.210938 39.742188 92.628906 C 43.25 84.339844 48.269531 76.898438 54.667969 70.507812 C 61.0625 64.117188 68.507812 59.101562 76.804688 55.59375 C 84.636719 52.289062 92.898438 50.464844 101.421875 50.171875 L 101.421875 57.578125 C 85.726562 58.195312 71.070312 64.59375 59.902344 75.75 C 48.144531 87.496094 41.667969 103.117188 41.667969 119.730469 C 41.667969 136.34375 48.136719 151.964844 59.902344 163.710938 C 69.792969 173.59375 82.292969 179.726562 96.050781 181.441406 C 97.234375 181.59375 98.4375 181.21875 99.328125 180.425781 C 100.226562 179.632812 100.738281 178.492188 100.738281 177.292969 L 100.71875 169.9375 L 118.554688 184.898438 L 100.796875 199.753906 L 100.777344 193.132812 C 100.769531 190.988281 99.144531 189.207031 97.019531 189 C 90.054688 188.316406 83.257812 186.589844 76.8125 183.859375 C 68.507812 180.351562 61.0625 175.335938 54.667969 168.945312 Z M 54.667969 168.945312 " clip-rule="nonzero"/></clipPath><linearGradient x1="41.757511" gradientTransform="matrix(0.833853, 0, 0, 0.833144, -31.83726, -29.826569)" y1="63.302508" x2="448.592498" gradientUnits="userSpaceOnUse" y2="470.137509" id="e8da4e2c7a"><stop stop-opacity="1" stop-color="rgb(0%, 62.399292%, 100%)" offset="0"/><stop stop-opacity="1" stop-color="rgb(0%, 62.399292%, 100%)" offset="0.125"/><stop stop-opacity="1" stop-color="rgb(0.221252%, 62.294006%, 99.830627%)" offset="0.128906"/><stop stop-opacity="1" stop-color="rgb(0.442505%, 62.188721%, 99.661255%)" offset="0.132812"/><stop stop-opacity="1" stop-color="rgb(0.895691%, 61.972046%, 99.31488%)" offset="0.136719"/><stop stop-opacity="1" stop-color="rgb(1.348877%, 61.756897%, 98.968506%)" offset="0.140625"/><stop stop-opacity="1" stop-color="rgb(1.802063%, 61.540222%, 98.622131%)" offset="0.144531"/><stop stop-opacity="1" stop-color="rgb(2.256775%, 61.325073%, 98.275757%)" offset="0.148438"/><stop stop-opacity="1" stop-color="rgb(2.709961%, 61.108398%, 97.929382%)" offset="0.152344"/><stop stop-opacity="1" stop-color="rgb(3.164673%, 60.89325%, 97.583008%)" offset="0.15625"/><stop stop-opacity="1" stop-color="rgb(3.617859%, 60.676575%, 97.236633%)" offset="0.160156"/><stop stop-opacity="1" stop-color="rgb(4.071045%, 60.461426%, 96.891785%)" offset="0.164062"/><stop stop-opacity="1" stop-color="rgb(4.524231%, 60.246277%, 96.54541%)" offset="0.167969"/><stop stop-opacity="1" stop-color="rgb(4.978943%, 60.031128%, 96.199036%)" offset="0.171875"/><stop stop-opacity="1" stop-color="rgb(5.432129%, 59.814453%, 95.852661%)" offset="0.175781"/><stop stop-opacity="1" stop-color="rgb(5.886841%, 59.599304%, 95.506287%)" offset="0.179687"/><stop stop-opacity="1" stop-color="rgb(6.340027%, 59.382629%, 95.159912%)" offset="0.183594"/><stop stop-opacity="1" stop-color="rgb(6.793213%, 59.16748%, 94.813538%)" offset="0.1875"/><stop stop-opacity="1" stop-color="rgb(7.246399%, 58.950806%, 94.467163%)" offset="0.191406"/><stop stop-opacity="1" stop-color="rgb(7.701111%, 58.735657%, 94.120789%)" offset="0.195312"/><stop stop-opacity="1" stop-color="rgb(8.154297%, 58.518982%, 93.774414%)" offset="0.199219"/><stop stop-opacity="1" stop-color="rgb(8.609009%, 58.303833%, 93.42804%)" offset="0.203125"/><stop stop-opacity="1" stop-color="rgb(9.062195%, 58.087158%, 93.081665%)" offset="0.207031"/><stop stop-opacity="1" stop-color="rgb(9.515381%, 57.872009%, 92.735291%)" offset="0.210937"/><stop stop-opacity="1" stop-color="rgb(9.968567%, 57.655334%, 92.388916%)" offset="0.214844"/><stop stop-opacity="1" stop-color="rgb(10.423279%, 57.440186%, 92.042542%)" offset="0.21875"/><stop stop-opacity="1" stop-color="rgb(10.876465%, 57.225037%, 91.696167%)" offset="0.222656"/><stop stop-opacity="1" stop-color="rgb(11.331177%, 57.009888%, 91.351318%)" offset="0.226562"/><stop stop-opacity="1" stop-color="rgb(11.784363%, 56.793213%, 91.004944%)" offset="0.230469"/><stop stop-opacity="1" stop-color="rgb(12.237549%, 56.578064%, 90.658569%)" offset="0.234375"/><stop stop-opacity="1" stop-color="rgb(12.690735%, 56.361389%, 90.312195%)" offset="0.238281"/><stop stop-opacity="1" stop-color="rgb(13.145447%, 56.14624%, 89.96582%)" offset="0.242188"/><stop stop-opacity="1" stop-color="rgb(13.598633%, 55.929565%, 89.619446%)" offset="0.246094"/><stop stop-opacity="1" stop-color="rgb(14.053345%, 55.714417%, 89.273071%)" offset="0.25"/><stop stop-opacity="1" stop-color="rgb(14.506531%, 55.497742%, 88.926697%)" offset="0.253906"/><stop stop-opacity="1" stop-color="rgb(14.959717%, 55.282593%, 88.580322%)" offset="0.257812"/><stop stop-opacity="1" stop-color="rgb(15.412903%, 55.065918%, 88.233948%)" offset="0.261719"/><stop stop-opacity="1" stop-color="rgb(15.867615%, 54.850769%, 87.887573%)" offset="0.265625"/><stop stop-opacity="1" stop-color="rgb(16.320801%, 54.634094%, 87.541199%)" offset="0.269531"/><stop stop-opacity="1" stop-color="rgb(16.775513%, 54.418945%, 87.194824%)" offset="0.273437"/><stop stop-opacity="1" stop-color="rgb(17.228699%, 54.202271%, 86.84845%)" offset="0.277344"/><stop stop-opacity="1" stop-color="rgb(17.681885%, 53.987122%, 86.502075%)" offset="0.28125"/><stop stop-opacity="1" stop-color="rgb(18.135071%, 53.771973%, 86.155701%)" offset="0.285156"/><stop stop-opacity="1" stop-color="rgb(18.589783%, 53.556824%, 85.810852%)" offset="0.289062"/><stop stop-opacity="1" stop-color="rgb(19.042969%, 53.340149%, 85.464478%)" offset="0.292969"/><stop stop-opacity="1" stop-color="rgb(19.497681%, 53.125%, 85.118103%)" offset="0.296875"/><stop stop-opacity="1" stop-color="rgb(19.950867%, 52.908325%, 84.771729%)" offset="0.300781"/><stop stop-opacity="1" stop-color="rgb(20.404053%, 52.693176%, 84.425354%)" offset="0.304688"/><stop stop-opacity="1" stop-color="rgb(20.857239%, 52.476501%, 84.078979%)" offset="0.308594"/><stop stop-opacity="1" stop-color="rgb(21.311951%, 52.261353%, 83.732605%)" offset="0.3125"/><stop stop-opacity="1" stop-color="rgb(21.765137%, 52.044678%, 83.38623%)" offset="0.316406"/><stop stop-opacity="1" stop-color="rgb(22.218323%, 51.829529%, 83.039856%)" offset="0.320312"/><stop stop-opacity="1" stop-color="rgb(22.671509%, 51.612854%, 82.693481%)" offset="0.324219"/><stop stop-opacity="1" stop-color="rgb(23.126221%, 51.397705%, 82.347107%)" offset="0.328125"/><stop stop-opacity="1" stop-color="rgb(23.579407%, 51.18103%, 82.000732%)" offset="0.332031"/><stop stop-opacity="1" stop-color="rgb(24.034119%, 50.965881%, 81.654358%)" offset="0.335937"/><stop stop-opacity="1" stop-color="rgb(24.487305%, 50.750732%, 81.307983%)" offset="0.339844"/><stop stop-opacity="1" stop-color="rgb(24.940491%, 50.535583%, 80.963135%)" offset="0.34375"/><stop stop-opacity="1" stop-color="rgb(25.393677%, 50.318909%, 80.61676%)" offset="0.347656"/><stop stop-opacity="1" stop-color="rgb(25.848389%, 50.10376%, 80.270386%)" offset="0.351562"/><stop stop-opacity="1" stop-color="rgb(26.301575%, 49.887085%, 79.924011%)" offset="0.355469"/><stop stop-opacity="1" stop-color="rgb(26.756287%, 49.671936%, 79.577637%)" offset="0.359375"/><stop stop-opacity="1" stop-color="rgb(27.209473%, 49.455261%, 79.231262%)" offset="0.363281"/><stop stop-opacity="1" stop-color="rgb(27.662659%, 49.240112%, 78.884888%)" offset="0.367187"/><stop stop-opacity="1" stop-color="rgb(28.115845%, 49.023438%, 78.538513%)" offset="0.371094"/><stop stop-opacity="1" stop-color="rgb(28.570557%, 48.808289%, 78.192139%)" offset="0.375"/><stop stop-opacity="1" stop-color="rgb(29.023743%, 48.591614%, 77.845764%)" offset="0.378906"/><stop stop-opacity="1" stop-color="rgb(29.478455%, 48.376465%, 77.49939%)" offset="0.382812"/><stop stop-opacity="1" stop-color="rgb(29.931641%, 48.15979%, 77.153015%)" offset="0.386719"/><stop stop-opacity="1" stop-color="rgb(30.384827%, 47.944641%, 76.806641%)" offset="0.390625"/><stop stop-opacity="1" stop-color="rgb(30.838013%, 47.729492%, 76.460266%)" offset="0.394531"/><stop stop-opacity="1" stop-color="rgb(31.292725%, 47.514343%, 76.113892%)" offset="0.398437"/><stop stop-opacity="1" stop-color="rgb(31.745911%, 47.297668%, 75.767517%)" offset="0.402344"/><stop stop-opacity="1" stop-color="rgb(32.200623%, 47.08252%, 75.422668%)" offset="0.40625"/><stop stop-opacity="1" stop-color="rgb(32.653809%, 46.865845%, 75.076294%)" offset="0.410156"/><stop stop-opacity="1" stop-color="rgb(33.106995%, 46.650696%, 74.729919%)" offset="0.414062"/><stop stop-opacity="1" stop-color="rgb(33.560181%, 46.434021%, 74.383545%)" offset="0.417969"/><stop stop-opacity="1" stop-color="rgb(34.014893%, 46.218872%, 74.03717%)" offset="0.421875"/><stop stop-opacity="1" stop-color="rgb(34.468079%, 46.002197%, 73.690796%)" offset="0.425781"/><stop stop-opacity="1" stop-color="rgb(34.922791%, 45.787048%, 73.344421%)" offset="0.429687"/><stop stop-opacity="1" stop-color="rgb(35.375977%, 45.570374%, 72.998047%)" offset="0.433594"/><stop stop-opacity="1" stop-color="rgb(35.829163%, 45.355225%, 72.651672%)" offset="0.4375"/><stop stop-opacity="1" stop-color="rgb(36.282349%, 45.13855%, 72.305298%)" offset="0.441406"/><stop stop-opacity="1" stop-color="rgb(36.737061%, 44.923401%, 71.958923%)" offset="0.445312"/><stop stop-opacity="1" stop-color="rgb(37.190247%, 44.706726%, 71.612549%)" offset="0.449219"/><stop stop-opacity="1" stop-color="rgb(37.644958%, 44.491577%, 71.266174%)" offset="0.453125"/><stop stop-opacity="1" stop-color="rgb(38.098145%, 44.276428%, 70.9198%)" offset="0.457031"/><stop stop-opacity="1" stop-color="rgb(38.551331%, 44.061279%, 70.574951%)" offset="0.460937"/><stop stop-opacity="1" stop-color="rgb(39.004517%, 43.844604%, 70.228577%)" offset="0.464844"/><stop stop-opacity="1" stop-color="rgb(39.459229%, 43.629456%, 69.882202%)" offset="0.46875"/><stop stop-opacity="1" stop-color="rgb(39.912415%, 43.412781%, 69.535828%)" offset="0.472656"/><stop stop-opacity="1" stop-color="rgb(40.367126%, 43.197632%, 69.189453%)" offset="0.476562"/><stop stop-opacity="1" stop-color="rgb(40.820312%, 42.980957%, 68.843079%)" offset="0.480469"/><stop stop-opacity="1" stop-color="rgb(41.273499%, 42.765808%, 68.496704%)" offset="0.484375"/><stop stop-opacity="1" stop-color="rgb(41.726685%, 42.549133%, 68.15033%)" offset="0.488281"/><stop stop-opacity="1" stop-color="rgb(42.181396%, 42.333984%, 67.803955%)" offset="0.492187"/><stop stop-opacity="1" stop-color="rgb(42.634583%, 42.11731%, 67.457581%)" offset="0.496094"/><stop stop-opacity="1" stop-color="rgb(43.089294%, 41.902161%, 67.111206%)" offset="0.5"/><stop stop-opacity="1" stop-color="rgb(43.54248%, 41.685486%, 66.764832%)" offset="0.503906"/><stop stop-opacity="1" stop-color="rgb(43.995667%, 41.470337%, 66.418457%)" offset="0.507812"/><stop stop-opacity="1" stop-color="rgb(44.448853%, 41.255188%, 66.072083%)" offset="0.511719"/><stop stop-opacity="1" stop-color="rgb(44.903564%, 41.040039%, 65.725708%)" offset="0.515625"/><stop stop-opacity="1" stop-color="rgb(45.35675%, 40.823364%, 65.379333%)" offset="0.519531"/><stop stop-opacity="1" stop-color="rgb(45.811462%, 40.608215%, 65.034485%)" offset="0.523438"/><stop stop-opacity="1" stop-color="rgb(46.264648%, 40.391541%, 64.68811%)" offset="0.527344"/><stop stop-opacity="1" stop-color="rgb(46.717834%, 40.176392%, 64.341736%)" offset="0.53125"/><stop stop-opacity="1" stop-color="rgb(47.171021%, 39.959717%, 63.995361%)" offset="0.535156"/><stop stop-opacity="1" stop-color="rgb(47.625732%, 39.744568%, 63.648987%)" offset="0.539062"/><stop stop-opacity="1" stop-color="rgb(48.078918%, 39.527893%, 63.302612%)" offset="0.542969"/><stop stop-opacity="1" stop-color="rgb(48.53363%, 39.312744%, 62.956238%)" offset="0.546875"/><stop stop-opacity="1" stop-color="rgb(48.986816%, 39.096069%, 62.609863%)" offset="0.550781"/><stop stop-opacity="1" stop-color="rgb(49.440002%, 38.88092%, 62.263489%)" offset="0.554687"/><stop stop-opacity="1" stop-color="rgb(49.893188%, 38.664246%, 61.917114%)" offset="0.558594"/><stop stop-opacity="1" stop-color="rgb(50.3479%, 38.449097%, 61.57074%)" offset="0.5625"/><stop stop-opacity="1" stop-color="rgb(50.801086%, 38.233948%, 61.224365%)" offset="0.566406"/><stop stop-opacity="1" stop-color="rgb(51.255798%, 38.018799%, 60.877991%)" offset="0.570312"/><stop stop-opacity="1" stop-color="rgb(51.708984%, 37.802124%, 60.531616%)" offset="0.574219"/><stop stop-opacity="1" stop-color="rgb(52.16217%, 37.586975%, 60.186768%)" offset="0.578125"/><stop stop-opacity="1" stop-color="rgb(52.615356%, 37.3703%, 59.840393%)" offset="0.582031"/><stop stop-opacity="1" stop-color="rgb(53.070068%, 37.155151%, 59.494019%)" offset="0.585938"/><stop stop-opacity="1" stop-color="rgb(53.523254%, 36.938477%, 59.147644%)" offset="0.589844"/><stop stop-opacity="1" stop-color="rgb(53.97644%, 36.723328%, 58.80127%)" offset="0.59375"/><stop stop-opacity="1" stop-color="rgb(54.429626%, 36.506653%, 58.454895%)" offset="0.597656"/><stop stop-opacity="1" stop-color="rgb(54.884338%, 36.291504%, 58.108521%)" offset="0.601562"/><stop stop-opacity="1" stop-color="rgb(55.337524%, 36.074829%, 57.762146%)" offset="0.605469"/><stop stop-opacity="1" stop-color="rgb(55.792236%, 35.85968%, 57.415771%)" offset="0.609375"/><stop stop-opacity="1" stop-color="rgb(56.245422%, 35.643005%, 57.069397%)" offset="0.613281"/><stop stop-opacity="1" stop-color="rgb(56.698608%, 35.427856%, 56.723022%)" offset="0.617187"/><stop stop-opacity="1" stop-color="rgb(57.151794%, 35.211182%, 56.376648%)" offset="0.621094"/><stop stop-opacity="1" stop-color="rgb(57.606506%, 34.996033%, 56.030273%)" offset="0.625"/><stop stop-opacity="1" stop-color="rgb(58.059692%, 34.780884%, 55.683899%)" offset="0.628906"/><stop stop-opacity="1" stop-color="rgb(58.514404%, 34.565735%, 55.337524%)" offset="0.632812"/><stop stop-opacity="1" stop-color="rgb(58.96759%, 34.34906%, 54.99115%)" offset="0.636719"/><stop stop-opacity="1" stop-color="rgb(59.420776%, 34.133911%, 54.646301%)" offset="0.640625"/><stop stop-opacity="1" stop-color="rgb(59.873962%, 33.917236%, 54.299927%)" offset="0.644531"/><stop stop-opacity="1" stop-color="rgb(60.328674%, 33.702087%, 53.953552%)" offset="0.648437"/><stop stop-opacity="1" stop-color="rgb(60.78186%, 33.485413%, 53.607178%)" offset="0.652344"/><stop stop-opacity="1" stop-color="rgb(61.236572%, 33.270264%, 53.260803%)" offset="0.65625"/><stop stop-opacity="1" stop-color="rgb(61.689758%, 33.053589%, 52.914429%)" offset="0.660156"/><stop stop-opacity="1" stop-color="rgb(62.142944%, 32.83844%, 52.568054%)" offset="0.664062"/><stop stop-opacity="1" stop-color="rgb(62.59613%, 32.621765%, 52.22168%)" offset="0.667969"/><stop stop-opacity="1" stop-color="rgb(63.050842%, 32.406616%, 51.875305%)" offset="0.671875"/><stop stop-opacity="1" stop-color="rgb(63.504028%, 32.189941%, 51.528931%)" offset="0.675781"/><stop stop-opacity="1" stop-color="rgb(63.95874%, 31.974792%, 51.182556%)" offset="0.679687"/><stop stop-opacity="1" stop-color="rgb(64.411926%, 31.759644%, 50.836182%)" offset="0.683594"/><stop stop-opacity="1" stop-color="rgb(64.865112%, 31.544495%, 50.489807%)" offset="0.6875"/><stop stop-opacity="1" stop-color="rgb(65.318298%, 31.32782%, 50.143433%)" offset="0.691406"/><stop stop-opacity="1" stop-color="rgb(65.77301%, 31.112671%, 49.798584%)" offset="0.695312"/><stop stop-opacity="1" stop-color="rgb(66.226196%, 30.895996%, 49.452209%)" offset="0.699219"/><stop stop-opacity="1" stop-color="rgb(66.680908%, 30.680847%, 49.105835%)" offset="0.703125"/><stop stop-opacity="1" stop-color="rgb(67.134094%, 30.464172%, 48.75946%)" offset="0.707031"/><stop stop-opacity="1" stop-color="rgb(67.58728%, 30.249023%, 48.413086%)" offset="0.710938"/><stop stop-opacity="1" stop-color="rgb(68.040466%, 30.032349%, 48.066711%)" offset="0.714844"/><stop stop-opacity="1" stop-color="rgb(68.495178%, 29.8172%, 47.720337%)" offset="0.71875"/><stop stop-opacity="1" stop-color="rgb(68.948364%, 29.600525%, 47.373962%)" offset="0.722656"/><stop stop-opacity="1" stop-color="rgb(69.403076%, 29.385376%, 47.027588%)" offset="0.726562"/><stop stop-opacity="1" stop-color="rgb(69.856262%, 29.168701%, 46.681213%)" offset="0.730469"/><stop stop-opacity="1" stop-color="rgb(70.309448%, 28.953552%, 46.334839%)" offset="0.734375"/><stop stop-opacity="1" stop-color="rgb(70.762634%, 28.738403%, 45.988464%)" offset="0.738281"/><stop stop-opacity="1" stop-color="rgb(71.217346%, 28.523254%, 45.64209%)" offset="0.742187"/><stop stop-opacity="1" stop-color="rgb(71.670532%, 28.30658%, 45.295715%)" offset="0.746094"/><stop stop-opacity="1" stop-color="rgb(72.125244%, 28.091431%, 44.949341%)" offset="0.75"/><stop stop-opacity="1" stop-color="rgb(72.57843%, 27.874756%, 44.602966%)" offset="0.753906"/><stop stop-opacity="1" stop-color="rgb(73.031616%, 27.659607%, 44.258118%)" offset="0.757812"/><stop stop-opacity="1" stop-color="rgb(73.484802%, 27.442932%, 43.911743%)" offset="0.761719"/><stop stop-opacity="1" stop-color="rgb(73.939514%, 27.227783%, 43.565369%)" offset="0.765625"/><stop stop-opacity="1" stop-color="rgb(74.3927%, 27.011108%, 43.218994%)" offset="0.769531"/><stop stop-opacity="1" stop-color="rgb(74.847412%, 26.795959%, 42.87262%)" offset="0.773437"/><stop stop-opacity="1" stop-color="rgb(75.300598%, 26.579285%, 42.526245%)" offset="0.777344"/><stop stop-opacity="1" stop-color="rgb(75.753784%, 26.364136%, 42.179871%)" offset="0.78125"/><stop stop-opacity="1" stop-color="rgb(76.20697%, 26.147461%, 41.833496%)" offset="0.785156"/><stop stop-opacity="1" stop-color="rgb(76.661682%, 25.932312%, 41.487122%)" offset="0.789062"/><stop stop-opacity="1" stop-color="rgb(77.114868%, 25.715637%, 41.140747%)" offset="0.792969"/><stop stop-opacity="1" stop-color="rgb(77.56958%, 25.500488%, 40.794373%)" offset="0.796875"/><stop stop-opacity="1" stop-color="rgb(78.022766%, 25.285339%, 40.447998%)" offset="0.800781"/><stop stop-opacity="1" stop-color="rgb(78.475952%, 25.07019%, 40.101624%)" offset="0.804687"/><stop stop-opacity="1" stop-color="rgb(78.929138%, 24.853516%, 39.755249%)" offset="0.808594"/><stop stop-opacity="1" stop-color="rgb(79.38385%, 24.638367%, 39.408875%)" offset="0.8125"/><stop stop-opacity="1" stop-color="rgb(79.837036%, 24.421692%, 39.0625%)" offset="0.816406"/><stop stop-opacity="1" stop-color="rgb(80.291748%, 24.206543%, 38.717651%)" offset="0.820313"/><stop stop-opacity="1" stop-color="rgb(80.744934%, 23.989868%, 38.371277%)" offset="0.824219"/><stop stop-opacity="1" stop-color="rgb(81.19812%, 23.774719%, 38.024902%)" offset="0.828125"/><stop stop-opacity="1" stop-color="rgb(81.651306%, 23.558044%, 37.678528%)" offset="0.832031"/><stop stop-opacity="1" stop-color="rgb(82.106018%, 23.342896%, 37.332153%)" offset="0.835938"/><stop stop-opacity="1" stop-color="rgb(82.559204%, 23.126221%, 36.985779%)" offset="0.839844"/><stop stop-opacity="1" stop-color="rgb(83.01239%, 22.911072%, 36.639404%)" offset="0.84375"/><stop stop-opacity="1" stop-color="rgb(83.465576%, 22.694397%, 36.29303%)" offset="0.847656"/><stop stop-opacity="1" stop-color="rgb(83.920288%, 22.479248%, 35.946655%)" offset="0.851562"/><stop stop-opacity="1" stop-color="rgb(84.373474%, 22.264099%, 35.600281%)" offset="0.855469"/><stop stop-opacity="1" stop-color="rgb(84.828186%, 22.04895%, 35.253906%)" offset="0.859375"/><stop stop-opacity="1" stop-color="rgb(85.281372%, 21.832275%, 34.907532%)" offset="0.863281"/><stop stop-opacity="1" stop-color="rgb(85.734558%, 21.617126%, 34.561157%)" offset="0.867188"/><stop stop-opacity="1" stop-color="rgb(86.187744%, 21.400452%, 34.214783%)" offset="0.871094"/><stop stop-opacity="1" stop-color="rgb(86.642456%, 21.185303%, 33.869934%)" offset="0.875"/><stop stop-opacity="1" stop-color="rgb(87.095642%, 20.968628%, 33.52356%)" offset="0.878906"/><stop stop-opacity="1" stop-color="rgb(87.550354%, 20.753479%, 33.177185%)" offset="0.882812"/><stop stop-opacity="1" stop-color="rgb(88.00354%, 20.536804%, 32.830811%)" offset="0.886719"/><stop stop-opacity="1" stop-color="rgb(88.456726%, 20.321655%, 32.484436%)" offset="0.890625"/><stop stop-opacity="1" stop-color="rgb(88.909912%, 20.10498%, 32.138062%)" offset="0.894531"/><stop stop-opacity="1" stop-color="rgb(89.364624%, 19.889832%, 31.791687%)" offset="0.898438"/><stop stop-opacity="1" stop-color="rgb(89.81781%, 19.673157%, 31.445312%)" offset="0.902344"/><stop stop-opacity="1" stop-color="rgb(90.272522%, 19.458008%, 31.098938%)" offset="0.90625"/><stop stop-opacity="1" stop-color="rgb(90.725708%, 19.242859%, 30.752563%)" offset="0.910156"/><stop stop-opacity="1" stop-color="rgb(91.178894%, 19.02771%, 30.406189%)" offset="0.914063"/><stop stop-opacity="1" stop-color="rgb(91.63208%, 18.811035%, 30.059814%)" offset="0.917969"/><stop stop-opacity="1" stop-color="rgb(92.086792%, 18.595886%, 29.71344%)" offset="0.921875"/><stop stop-opacity="1" stop-color="rgb(92.292786%, 18.496704%, 29.556274%)" offset="0.925781"/><stop stop-opacity="1" stop-color="rgb(92.498779%, 18.399048%, 29.399109%)" offset="0.929688"/><stop stop-opacity="1" stop-color="rgb(92.498779%, 18.399048%, 29.399109%)" offset="0.9375"/><stop stop-opacity="1" stop-color="rgb(92.498779%, 18.399048%, 29.399109%)" offset="1"/></linearGradient></defs><rect x="-37.5" width="450" fill="#ffffff" y="-37.499999" height="449.999989" fill-opacity="1"/><rect x="-37.5" width="450" fill="#ffffff" y="-37.499999" height="449.999989" fill-opacity="1"/><g clip-path="url(#d005588a9c)"><g clip-path="url(#96a90c81e0)"><path fill="url(#e8da4e2c7a)" d="M 25.914062 0 L 25.914062 366.75 L 337.335938 366.75 L 337.335938 0 Z M 25.914062 0 " fill-rule="nonzero"/></g></g></svg>