<svg xmlns="http://www.w3.org/2000/svg" xmlns:xlink="http://www.w3.org/1999/xlink" width="1080" zoomAndPan="magnify" viewBox="0 0 810 809.999993" height="1080" preserveAspectRatio="xMidYMid meet" version="1.0"><defs><clipPath id="15da01ace6"><path d="M 422 95 L 662 95 L 662 240 L 422 240 Z M 422 95 " clip-rule="nonzero"/></clipPath><clipPath id="e960e0c1d8"><path d="M 660.816406 107.1875 L 641.238281 228.03125 C 641.09375 228.8125 640.882812 229.578125 640.609375 230.328125 C 640.335938 231.074219 640 231.796875 639.601562 232.488281 C 639.203125 233.179688 638.75 233.832031 638.242188 234.445312 C 637.734375 235.058594 637.179688 235.625 636.574219 236.144531 C 635.972656 236.667969 635.328125 237.132812 634.644531 237.542969 C 633.960938 237.953125 633.25 238.304688 632.507812 238.59375 C 631.765625 238.882812 631.003906 239.109375 630.222656 239.269531 C 629.441406 239.429688 628.652344 239.523438 627.859375 239.546875 L 431.972656 239.546875 C 431.613281 239.558594 431.253906 239.550781 430.894531 239.523438 C 430.535156 239.492188 430.175781 239.441406 429.824219 239.375 C 429.46875 239.304688 429.121094 239.214844 428.777344 239.105469 C 428.433594 238.996094 428.097656 238.867188 427.769531 238.71875 C 427.4375 238.574219 427.117188 238.40625 426.808594 238.222656 C 426.5 238.039062 426.199219 237.839844 425.910156 237.621094 C 425.625 237.40625 425.347656 237.171875 425.089844 236.925781 C 424.828125 236.675781 424.582031 236.414062 424.347656 236.136719 C 424.117188 235.859375 423.902344 235.570312 423.703125 235.269531 C 423.503906 234.96875 423.324219 234.65625 423.160156 234.335938 C 422.996094 234.015625 422.851562 233.6875 422.722656 233.347656 C 422.597656 233.011719 422.492188 232.664062 422.402344 232.316406 C 422.316406 231.964844 422.25 231.613281 422.203125 231.253906 C 422.15625 230.898438 422.128906 230.539062 422.121094 230.175781 C 422.113281 229.816406 422.128906 229.457031 422.164062 229.097656 C 422.195312 228.738281 422.25 228.382812 422.324219 228.03125 L 439.121094 124.429688 L 441.921875 107.1875 C 442.066406 106.402344 442.273438 105.636719 442.546875 104.886719 C 442.820312 104.140625 443.15625 103.417969 443.554688 102.726562 C 443.949219 102.035156 444.402344 101.382812 444.910156 100.765625 C 445.417969 100.152344 445.972656 99.585938 446.578125 99.0625 C 447.183594 98.542969 447.824219 98.078125 448.507812 97.667969 C 449.191406 97.257812 449.90625 96.90625 450.648438 96.617188 C 451.390625 96.328125 452.152344 96.105469 452.933594 95.945312 C 453.714844 95.785156 454.503906 95.695312 455.300781 95.667969 L 651.1875 95.667969 C 651.546875 95.65625 651.90625 95.664062 652.265625 95.695312 C 652.625 95.722656 652.984375 95.773438 653.335938 95.84375 C 653.691406 95.910156 654.039062 96 654.382812 96.109375 C 654.726562 96.21875 655.0625 96.347656 655.390625 96.496094 C 655.722656 96.640625 656.039062 96.808594 656.351562 96.992188 C 656.660156 97.175781 656.960938 97.375 657.246094 97.59375 C 657.535156 97.808594 657.808594 98.042969 658.070312 98.292969 C 658.332031 98.539062 658.578125 98.804688 658.808594 99.078125 C 659.039062 99.355469 659.253906 99.644531 659.453125 99.945312 C 659.652344 100.246094 659.832031 100.558594 659.996094 100.878906 C 660.160156 101.203125 660.304688 101.53125 660.429688 101.871094 C 660.554688 102.207031 660.664062 102.550781 660.75 102.902344 C 660.835938 103.253906 660.902344 103.605469 660.949219 103.964844 C 660.996094 104.320312 661.023438 104.679688 661.027344 105.039062 C 661.035156 105.402344 661.019531 105.761719 660.984375 106.121094 C 660.949219 106.480469 660.894531 106.835938 660.816406 107.1875 Z M 660.816406 107.1875 " clip-rule="nonzero"/></clipPath><linearGradient x1="142.346798" gradientTransform="matrix(3.339441, 0, 0, 3.340752, 23.72627, 1.03212)" y1="18.86355" x2="167.794466" gradientUnits="userSpaceOnUse" y2="80.859957" id="cdb853100f"><stop stop-opacity="1" stop-color="rgb(37.565613%, 82.772827%, 99.949646%)" offset="0"/><stop stop-opacity="1" stop-color="rgb(37.446594%, 82.6828%, 99.935913%)" offset="0.0078125"/><stop stop-opacity="1" stop-color="rgb(37.207031%, 82.502747%, 99.909973%)" offset="0.015625"/><stop stop-opacity="1" stop-color="rgb(36.967468%, 82.322693%, 99.882507%)" offset="0.0234375"/><stop stop-opacity="1" stop-color="rgb(36.727905%, 82.142639%, 99.855042%)" offset="0.03125"/><stop stop-opacity="1" stop-color="rgb(36.488342%, 81.962585%, 99.827576%)" offset="0.0390625"/><stop stop-opacity="1" stop-color="rgb(36.250305%, 81.782532%, 99.801636%)" offset="0.046875"/><stop stop-opacity="1" stop-color="rgb(36.010742%, 81.602478%, 99.77417%)" offset="0.0546875"/><stop stop-opacity="1" stop-color="rgb(35.771179%, 81.422424%, 99.746704%)" offset="0.0625"/><stop stop-opacity="1" stop-color="rgb(35.531616%, 81.242371%, 99.719238%)" offset="0.0703125"/><stop stop-opacity="1" stop-color="rgb(35.292053%, 81.062317%, 99.693298%)" offset="0.078125"/><stop stop-opacity="1" stop-color="rgb(35.054016%, 80.882263%, 99.665833%)" offset="0.0859375"/><stop stop-opacity="1" stop-color="rgb(34.814453%, 80.702209%, 99.638367%)" offset="0.09375"/><stop stop-opacity="1" stop-color="rgb(34.57489%, 80.522156%, 99.610901%)" offset="0.101562"/><stop stop-opacity="1" stop-color="rgb(34.335327%, 80.342102%, 99.584961%)" offset="0.109375"/><stop stop-opacity="1" stop-color="rgb(34.095764%, 80.162048%, 99.557495%)" offset="0.117188"/><stop stop-opacity="1" stop-color="rgb(33.857727%, 79.981995%, 99.530029%)" offset="0.125"/><stop stop-opacity="1" stop-color="rgb(33.618164%, 79.801941%, 99.502563%)" offset="0.132812"/><stop stop-opacity="1" stop-color="rgb(33.378601%, 79.621887%, 99.476624%)" offset="0.140625"/><stop stop-opacity="1" stop-color="rgb(33.139038%, 79.441833%, 99.449158%)" offset="0.148438"/><stop stop-opacity="1" stop-color="rgb(32.899475%, 79.26178%, 99.421692%)" offset="0.15625"/><stop stop-opacity="1" stop-color="rgb(32.661438%, 79.081726%, 99.395752%)" offset="0.164062"/><stop stop-opacity="1" stop-color="rgb(32.421875%, 78.901672%, 99.368286%)" offset="0.171875"/><stop stop-opacity="1" stop-color="rgb(32.182312%, 78.721619%, 99.34082%)" offset="0.179688"/><stop stop-opacity="1" stop-color="rgb(31.942749%, 78.541565%, 99.313354%)" offset="0.1875"/><stop stop-opacity="1" stop-color="rgb(31.703186%, 78.361511%, 99.287415%)" offset="0.195313"/><stop stop-opacity="1" stop-color="rgb(31.463623%, 78.181458%, 99.259949%)" offset="0.203125"/><stop stop-opacity="1" stop-color="rgb(31.225586%, 78.001404%, 99.232483%)" offset="0.210938"/><stop stop-opacity="1" stop-color="rgb(30.986023%, 77.82135%, 99.205017%)" offset="0.21875"/><stop stop-opacity="1" stop-color="rgb(30.74646%, 77.641296%, 99.179077%)" offset="0.226562"/><stop stop-opacity="1" stop-color="rgb(30.506897%, 77.461243%, 99.151611%)" offset="0.234375"/><stop stop-opacity="1" stop-color="rgb(30.267334%, 77.281189%, 99.124146%)" offset="0.242188"/><stop stop-opacity="1" stop-color="rgb(30.029297%, 77.101135%, 99.09668%)" offset="0.25"/><stop stop-opacity="1" stop-color="rgb(29.789734%, 76.921082%, 99.07074%)" offset="0.257813"/><stop stop-opacity="1" stop-color="rgb(29.550171%, 76.741028%, 99.043274%)" offset="0.265625"/><stop stop-opacity="1" stop-color="rgb(29.310608%, 76.560974%, 99.015808%)" offset="0.273438"/><stop stop-opacity="1" stop-color="rgb(29.071045%, 76.38092%, 98.988342%)" offset="0.28125"/><stop stop-opacity="1" stop-color="rgb(28.833008%, 76.200867%, 98.962402%)" offset="0.289062"/><stop stop-opacity="1" stop-color="rgb(28.593445%, 76.020813%, 98.934937%)" offset="0.296875"/><stop stop-opacity="1" stop-color="rgb(28.353882%, 75.840759%, 98.907471%)" offset="0.304688"/><stop stop-opacity="1" stop-color="rgb(28.114319%, 75.660706%, 98.880005%)" offset="0.3125"/><stop stop-opacity="1" stop-color="rgb(27.874756%, 75.480652%, 98.854065%)" offset="0.320313"/><stop stop-opacity="1" stop-color="rgb(27.636719%, 75.300598%, 98.826599%)" offset="0.328125"/><stop stop-opacity="1" stop-color="rgb(27.397156%, 75.120544%, 98.799133%)" offset="0.335938"/><stop stop-opacity="1" stop-color="rgb(27.157593%, 74.940491%, 98.771667%)" offset="0.34375"/><stop stop-opacity="1" stop-color="rgb(26.91803%, 74.760437%, 98.745728%)" offset="0.351562"/><stop stop-opacity="1" stop-color="rgb(26.678467%, 74.580383%, 98.718262%)" offset="0.359375"/><stop stop-opacity="1" stop-color="rgb(26.44043%, 74.40033%, 98.690796%)" offset="0.367187"/><stop stop-opacity="1" stop-color="rgb(26.200867%, 74.220276%, 98.66333%)" offset="0.375"/><stop stop-opacity="1" stop-color="rgb(25.961304%, 74.040222%, 98.63739%)" offset="0.382812"/><stop stop-opacity="1" stop-color="rgb(25.721741%, 73.860168%, 98.609924%)" offset="0.390625"/><stop stop-opacity="1" stop-color="rgb(25.482178%, 73.680115%, 98.582458%)" offset="0.398438"/><stop stop-opacity="1" stop-color="rgb(25.244141%, 73.500061%, 98.554993%)" offset="0.405386"/><stop stop-opacity="1" stop-color="rgb(25.125122%, 73.410034%, 98.542786%)" offset="0.40625"/><stop stop-opacity="1" stop-color="rgb(25.004578%, 73.318481%, 98.529053%)" offset="0.414062"/><stop stop-opacity="1" stop-color="rgb(24.765015%, 73.138428%, 98.501587%)" offset="0.421875"/><stop stop-opacity="1" stop-color="rgb(24.525452%, 72.958374%, 98.474121%)" offset="0.429687"/><stop stop-opacity="1" stop-color="rgb(24.285889%, 72.77832%, 98.446655%)" offset="0.4375"/><stop stop-opacity="1" stop-color="rgb(24.047852%, 72.598267%, 98.420715%)" offset="0.445312"/><stop stop-opacity="1" stop-color="rgb(23.808289%, 72.418213%, 98.39325%)" offset="0.453125"/><stop stop-opacity="1" stop-color="rgb(23.568726%, 72.238159%, 98.365784%)" offset="0.460937"/><stop stop-opacity="1" stop-color="rgb(23.329163%, 72.058105%, 98.339844%)" offset="0.46875"/><stop stop-opacity="1" stop-color="rgb(23.0896%, 71.878052%, 98.312378%)" offset="0.476562"/><stop stop-opacity="1" stop-color="rgb(22.851562%, 71.697998%, 98.284912%)" offset="0.484375"/><stop stop-opacity="1" stop-color="rgb(22.612%, 71.517944%, 98.257446%)" offset="0.492188"/><stop stop-opacity="1" stop-color="rgb(22.372437%, 71.337891%, 98.231506%)" offset="0.5"/><stop stop-opacity="1" stop-color="rgb(22.132874%, 71.157837%, 98.204041%)" offset="0.507812"/><stop stop-opacity="1" stop-color="rgb(21.893311%, 70.977783%, 98.176575%)" offset="0.515625"/><stop stop-opacity="1" stop-color="rgb(21.655273%, 70.797729%, 98.149109%)" offset="0.523438"/><stop stop-opacity="1" stop-color="rgb(21.41571%, 70.617676%, 98.123169%)" offset="0.53125"/><stop stop-opacity="1" stop-color="rgb(21.176147%, 70.437622%, 98.095703%)" offset="0.539062"/><stop stop-opacity="1" stop-color="rgb(20.936584%, 70.257568%, 98.068237%)" offset="0.546875"/><stop stop-opacity="1" stop-color="rgb(20.697021%, 70.077515%, 98.040771%)" offset="0.554688"/><stop stop-opacity="1" stop-color="rgb(20.457458%, 69.897461%, 98.014832%)" offset="0.5625"/><stop stop-opacity="1" stop-color="rgb(20.219421%, 69.717407%, 97.987366%)" offset="0.570312"/><stop stop-opacity="1" stop-color="rgb(19.979858%, 69.537354%, 97.9599%)" offset="0.578125"/><stop stop-opacity="1" stop-color="rgb(19.740295%, 69.3573%, 97.932434%)" offset="0.585938"/><stop stop-opacity="1" stop-color="rgb(19.500732%, 69.177246%, 97.906494%)" offset="0.59375"/><stop stop-opacity="1" stop-color="rgb(19.261169%, 68.997192%, 97.879028%)" offset="0.594614"/><stop stop-opacity="1" stop-color="rgb(19.142151%, 68.907166%, 97.865295%)" offset="0.601562"/><stop stop-opacity="1" stop-color="rgb(19.023132%, 68.817139%, 97.851562%)" offset="0.609375"/><stop stop-opacity="1" stop-color="rgb(18.783569%, 68.637085%, 97.824097%)" offset="0.617188"/><stop stop-opacity="1" stop-color="rgb(18.544006%, 68.457031%, 97.798157%)" offset="0.625"/><stop stop-opacity="1" stop-color="rgb(18.304443%, 68.276978%, 97.770691%)" offset="0.632813"/><stop stop-opacity="1" stop-color="rgb(18.06488%, 68.096924%, 97.743225%)" offset="0.640625"/><stop stop-opacity="1" stop-color="rgb(17.826843%, 67.91687%, 97.715759%)" offset="0.648438"/><stop stop-opacity="1" stop-color="rgb(17.58728%, 67.736816%, 97.689819%)" offset="0.65625"/><stop stop-opacity="1" stop-color="rgb(17.347717%, 67.556763%, 97.662354%)" offset="0.664062"/><stop stop-opacity="1" stop-color="rgb(17.108154%, 67.376709%, 97.634888%)" offset="0.671875"/><stop stop-opacity="1" stop-color="rgb(16.868591%, 67.196655%, 97.607422%)" offset="0.679688"/><stop stop-opacity="1" stop-color="rgb(16.630554%, 67.016602%, 97.581482%)" offset="0.6875"/><stop stop-opacity="1" stop-color="rgb(16.390991%, 66.836548%, 97.554016%)" offset="0.695312"/><stop stop-opacity="1" stop-color="rgb(16.151428%, 66.656494%, 97.52655%)" offset="0.703125"/><stop stop-opacity="1" stop-color="rgb(15.911865%, 66.47644%, 97.499084%)" offset="0.710938"/><stop stop-opacity="1" stop-color="rgb(15.672302%, 66.296387%, 97.473145%)" offset="0.71875"/><stop stop-opacity="1" stop-color="rgb(15.434265%, 66.116333%, 97.445679%)" offset="0.726562"/><stop stop-opacity="1" stop-color="rgb(15.194702%, 65.936279%, 97.418213%)" offset="0.734375"/><stop stop-opacity="1" stop-color="rgb(14.955139%, 65.756226%, 97.390747%)" offset="0.742188"/><stop stop-opacity="1" stop-color="rgb(14.715576%, 65.576172%, 97.364807%)" offset="0.75"/><stop stop-opacity="1" stop-color="rgb(14.476013%, 65.396118%, 97.337341%)" offset="0.757812"/><stop stop-opacity="1" stop-color="rgb(14.237976%, 65.216064%, 97.309875%)" offset="0.765625"/><stop stop-opacity="1" stop-color="rgb(13.998413%, 65.036011%, 97.283936%)" offset="0.773438"/><stop stop-opacity="1" stop-color="rgb(13.75885%, 64.855957%, 97.25647%)" offset="0.78125"/><stop stop-opacity="1" stop-color="rgb(13.519287%, 64.675903%, 97.229004%)" offset="0.789062"/><stop stop-opacity="1" stop-color="rgb(13.279724%, 64.49585%, 97.201538%)" offset="0.796875"/><stop stop-opacity="1" stop-color="rgb(13.041687%, 64.315796%, 97.175598%)" offset="0.804687"/><stop stop-opacity="1" stop-color="rgb(12.802124%, 64.135742%, 97.148132%)" offset="0.8125"/><stop stop-opacity="1" stop-color="rgb(12.562561%, 63.955688%, 97.120667%)" offset="0.820313"/><stop stop-opacity="1" stop-color="rgb(12.322998%, 63.775635%, 97.093201%)" offset="0.828125"/><stop stop-opacity="1" stop-color="rgb(12.083435%, 63.595581%, 97.067261%)" offset="0.835938"/><stop stop-opacity="1" stop-color="rgb(11.845398%, 63.415527%, 97.039795%)" offset="0.84375"/><stop stop-opacity="1" stop-color="rgb(11.605835%, 63.235474%, 97.012329%)" offset="0.851562"/><stop stop-opacity="1" stop-color="rgb(11.366272%, 63.05542%, 96.984863%)" offset="0.859375"/><stop stop-opacity="1" stop-color="rgb(11.126709%, 62.875366%, 96.958923%)" offset="0.867188"/><stop stop-opacity="1" stop-color="rgb(10.887146%, 62.695312%, 96.931458%)" offset="0.875"/><stop stop-opacity="1" stop-color="rgb(10.649109%, 62.515259%, 96.903992%)" offset="0.882812"/><stop stop-opacity="1" stop-color="rgb(10.409546%, 62.335205%, 96.876526%)" offset="0.890625"/><stop stop-opacity="1" stop-color="rgb(10.169983%, 62.155151%, 96.850586%)" offset="0.898438"/><stop stop-opacity="1" stop-color="rgb(9.93042%, 61.973572%, 96.82312%)" offset="0.90625"/><stop stop-opacity="1" stop-color="rgb(9.690857%, 61.793518%, 96.795654%)" offset="0.914062"/><stop stop-opacity="1" stop-color="rgb(9.451294%, 61.613464%, 96.768188%)" offset="0.921875"/><stop stop-opacity="1" stop-color="rgb(9.213257%, 61.433411%, 96.742249%)" offset="0.929688"/><stop stop-opacity="1" stop-color="rgb(8.973694%, 61.253357%, 96.714783%)" offset="0.9375"/><stop stop-opacity="1" stop-color="rgb(8.734131%, 61.073303%, 96.687317%)" offset="0.945312"/><stop stop-opacity="1" stop-color="rgb(8.494568%, 60.89325%, 96.659851%)" offset="0.953125"/><stop stop-opacity="1" stop-color="rgb(8.255005%, 60.713196%, 96.633911%)" offset="0.960938"/><stop stop-opacity="1" stop-color="rgb(8.016968%, 60.533142%, 96.606445%)" offset="0.96875"/><stop stop-opacity="1" stop-color="rgb(7.777405%, 60.353088%, 96.578979%)" offset="0.976562"/><stop stop-opacity="1" stop-color="rgb(7.537842%, 60.173035%, 96.551514%)" offset="0.984375"/><stop stop-opacity="1" stop-color="rgb(7.298279%, 59.992981%, 96.525574%)" offset="0.992187"/><stop stop-opacity="1" stop-color="rgb(7.058716%, 59.812927%, 96.498108%)" offset="1"/></linearGradient><clipPath id="82cc0653f6"><path d="M 439 95 L 479 95 L 479 125 L 439 125 Z M 439 95 " clip-rule="nonzero"/></clipPath><clipPath id="5ea20710aa"><path d="M 478.058594 95.667969 L 473.765625 116.878906 C 473.648438 117.394531 473.488281 117.898438 473.289062 118.390625 C 473.089844 118.882812 472.851562 119.351562 472.574219 119.804688 C 472.296875 120.253906 471.984375 120.683594 471.636719 121.082031 C 471.292969 121.484375 470.914062 121.851562 470.507812 122.191406 C 470.101562 122.53125 469.667969 122.832031 469.210938 123.101562 C 468.753906 123.371094 468.277344 123.597656 467.785156 123.789062 C 467.289062 123.980469 466.785156 124.128906 466.265625 124.234375 C 465.746094 124.34375 465.222656 124.40625 464.691406 124.429688 L 439.121094 124.429688 L 441.921875 107.1875 C 442.066406 106.402344 442.273438 105.636719 442.546875 104.886719 C 442.820312 104.140625 443.15625 103.417969 443.554688 102.726562 C 443.949219 102.035156 444.402344 101.382812 444.910156 100.765625 C 445.417969 100.152344 445.972656 99.585938 446.578125 99.0625 C 447.183594 98.542969 447.824219 98.078125 448.507812 97.667969 C 449.191406 97.257812 449.90625 96.90625 450.648438 96.617188 C 451.390625 96.328125 452.152344 96.105469 452.933594 95.945312 C 453.714844 95.785156 454.503906 95.695312 455.300781 95.667969 Z M 478.058594 95.667969 " clip-rule="nonzero"/></clipPath><linearGradient x1="133.271398" gradientTransform="matrix(3.339441, 0, 0, 3.340752, 23.72627, 1.03212)" y1="38.405518" x2="127.169295" gradientUnits="userSpaceOnUse" y2="26.859647" id="576af6bb4c"><stop stop-opacity="1" stop-color="rgb(17.686462%, 67.810059%, 97.7005%)" offset="0"/><stop stop-opacity="1" stop-color="rgb(17.544556%, 67.703247%, 97.683716%)" offset="0.03125"/><stop stop-opacity="1" stop-color="rgb(17.260742%, 67.489624%, 97.651672%)" offset="0.0625"/><stop stop-opacity="1" stop-color="rgb(16.976929%, 67.277527%, 97.619629%)" offset="0.09375"/><stop stop-opacity="1" stop-color="rgb(16.693115%, 67.063904%, 97.587585%)" offset="0.125"/><stop stop-opacity="1" stop-color="rgb(16.409302%, 66.850281%, 97.555542%)" offset="0.15625"/><stop stop-opacity="1" stop-color="rgb(16.125488%, 66.636658%, 97.523499%)" offset="0.1875"/><stop stop-opacity="1" stop-color="rgb(15.841675%, 66.423035%, 97.491455%)" offset="0.21875"/><stop stop-opacity="1" stop-color="rgb(15.557861%, 66.209412%, 97.459412%)" offset="0.25"/><stop stop-opacity="1" stop-color="rgb(15.274048%, 65.995789%, 97.427368%)" offset="0.28125"/><stop stop-opacity="1" stop-color="rgb(14.990234%, 65.782166%, 97.395325%)" offset="0.3125"/><stop stop-opacity="1" stop-color="rgb(14.706421%, 65.568542%, 97.363281%)" offset="0.34375"/><stop stop-opacity="1" stop-color="rgb(14.422607%, 65.354919%, 97.331238%)" offset="0.375"/><stop stop-opacity="1" stop-color="rgb(14.138794%, 65.141296%, 97.299194%)" offset="0.40625"/><stop stop-opacity="1" stop-color="rgb(13.85498%, 64.927673%, 97.267151%)" offset="0.417164"/><stop stop-opacity="1" stop-color="rgb(13.713074%, 64.820862%, 97.250366%)" offset="0.4375"/><stop stop-opacity="1" stop-color="rgb(13.571167%, 64.71405%, 97.233582%)" offset="0.46875"/><stop stop-opacity="1" stop-color="rgb(13.287354%, 64.500427%, 97.201538%)" offset="0.5"/><stop stop-opacity="1" stop-color="rgb(13.00354%, 64.286804%, 97.169495%)" offset="0.53125"/><stop stop-opacity="1" stop-color="rgb(12.719727%, 64.073181%, 97.137451%)" offset="0.5625"/><stop stop-opacity="1" stop-color="rgb(12.435913%, 63.859558%, 97.105408%)" offset="0.582836"/><stop stop-opacity="1" stop-color="rgb(12.294006%, 63.752747%, 97.090149%)" offset="0.59375"/><stop stop-opacity="1" stop-color="rgb(12.1521%, 63.645935%, 97.073364%)" offset="0.625"/><stop stop-opacity="1" stop-color="rgb(11.868286%, 63.432312%, 97.041321%)" offset="0.65625"/><stop stop-opacity="1" stop-color="rgb(11.584473%, 63.218689%, 97.009277%)" offset="0.6875"/><stop stop-opacity="1" stop-color="rgb(11.300659%, 63.005066%, 96.977234%)" offset="0.71875"/><stop stop-opacity="1" stop-color="rgb(11.016846%, 62.791443%, 96.94519%)" offset="0.75"/><stop stop-opacity="1" stop-color="rgb(10.733032%, 62.57782%, 96.913147%)" offset="0.78125"/><stop stop-opacity="1" stop-color="rgb(10.449219%, 62.364197%, 96.881104%)" offset="0.8125"/><stop stop-opacity="1" stop-color="rgb(10.165405%, 62.150574%, 96.84906%)" offset="0.84375"/><stop stop-opacity="1" stop-color="rgb(9.881592%, 61.936951%, 96.817017%)" offset="0.875"/><stop stop-opacity="1" stop-color="rgb(9.597778%, 61.723328%, 96.784973%)" offset="0.90625"/><stop stop-opacity="1" stop-color="rgb(9.313965%, 61.509705%, 96.75293%)" offset="0.9375"/><stop stop-opacity="1" stop-color="rgb(9.031677%, 61.296082%, 96.720886%)" offset="0.96875"/><stop stop-opacity="1" stop-color="rgb(8.747864%, 61.082458%, 96.688843%)" offset="1"/></linearGradient><clipPath id="306679df49"><path d="M 335 269 L 482 269 L 482 370 L 335 370 Z M 335 269 " clip-rule="nonzero"/></clipPath><clipPath id="44b2e371ea"><path d="M 385.535156 269.382812 L 421.746094 309.492188 C 421.746094 309.492188 426.226562 298.167969 446.746094 298.640625 C 467.265625 299.109375 482.144531 314.921875 481.421875 320.355469 C 480.703125 325.785156 465.394531 322.714844 461.386719 325.308594 C 457.378906 327.90625 437.34375 368.738281 421.757812 369.441406 C 406.171875 370.140625 335.996094 316.457031 335.996094 316.457031 " clip-rule="nonzero"/></clipPath><linearGradient x1="135.235979" gradientTransform="matrix(3.339441, 0, 0, 3.340752, 23.72627, 1.03212)" y1="112.702598" x2="96.50261" gradientUnits="userSpaceOnUse" y2="77.073644" id="f245b3ca9b"><stop stop-opacity="1" stop-color="rgb(100%, 79.998779%, 79.998779%)" offset="0"/><stop stop-opacity="1" stop-color="rgb(100%, 79.998779%, 79.998779%)" offset="0.125"/><stop stop-opacity="1" stop-color="rgb(100%, 79.998779%, 79.998779%)" offset="0.1875"/><stop stop-opacity="1" stop-color="rgb(100%, 79.84314%, 79.837036%)" offset="0.21875"/><stop stop-opacity="1" stop-color="rgb(100%, 79.563904%, 79.550171%)" offset="0.234375"/><stop stop-opacity="1" stop-color="rgb(100%, 79.318237%, 79.298401%)" offset="0.25"/><stop stop-opacity="1" stop-color="rgb(100%, 79.072571%, 79.045105%)" offset="0.265625"/><stop stop-opacity="1" stop-color="rgb(100%, 78.826904%, 78.791809%)" offset="0.28125"/><stop stop-opacity="1" stop-color="rgb(100%, 78.581238%, 78.538513%)" offset="0.296875"/><stop stop-opacity="1" stop-color="rgb(100%, 78.335571%, 78.286743%)" offset="0.3125"/><stop stop-opacity="1" stop-color="rgb(100%, 78.089905%, 78.033447%)" offset="0.328125"/><stop stop-opacity="1" stop-color="rgb(100%, 77.844238%, 77.780151%)" offset="0.34375"/><stop stop-opacity="1" stop-color="rgb(100%, 77.598572%, 77.526855%)" offset="0.359375"/><stop stop-opacity="1" stop-color="rgb(100%, 77.352905%, 77.275085%)" offset="0.375"/><stop stop-opacity="1" stop-color="rgb(100%, 77.107239%, 77.02179%)" offset="0.387974"/><stop stop-opacity="1" stop-color="rgb(100%, 76.985168%, 76.895142%)" offset="0.390625"/><stop stop-opacity="1" stop-color="rgb(100%, 76.861572%, 76.768494%)" offset="0.40625"/><stop stop-opacity="1" stop-color="rgb(100%, 76.615906%, 76.515198%)" offset="0.421875"/><stop stop-opacity="1" stop-color="rgb(100%, 76.370239%, 76.263428%)" offset="0.4375"/><stop stop-opacity="1" stop-color="rgb(100%, 76.126099%, 76.010132%)" offset="0.453125"/><stop stop-opacity="1" stop-color="rgb(100%, 75.880432%, 75.756836%)" offset="0.46875"/><stop stop-opacity="1" stop-color="rgb(100%, 75.634766%, 75.50354%)" offset="0.484375"/><stop stop-opacity="1" stop-color="rgb(100%, 75.389099%, 75.25177%)" offset="0.5"/><stop stop-opacity="1" stop-color="rgb(100%, 75.143433%, 74.998474%)" offset="0.515625"/><stop stop-opacity="1" stop-color="rgb(100%, 74.897766%, 74.745178%)" offset="0.53125"/><stop stop-opacity="1" stop-color="rgb(100%, 74.6521%, 74.491882%)" offset="0.546875"/><stop stop-opacity="1" stop-color="rgb(100%, 74.406433%, 74.240112%)" offset="0.5625"/><stop stop-opacity="1" stop-color="rgb(100%, 74.160767%, 73.986816%)" offset="0.578125"/><stop stop-opacity="1" stop-color="rgb(100%, 73.9151%, 73.733521%)" offset="0.59375"/><stop stop-opacity="1" stop-color="rgb(100%, 73.669434%, 73.480225%)" offset="0.609375"/><stop stop-opacity="1" stop-color="rgb(100%, 73.423767%, 73.226929%)" offset="0.612026"/><stop stop-opacity="1" stop-color="rgb(100%, 73.301697%, 73.101807%)" offset="0.625"/><stop stop-opacity="1" stop-color="rgb(100%, 73.178101%, 72.975159%)" offset="0.640625"/><stop stop-opacity="1" stop-color="rgb(100%, 72.932434%, 72.721863%)" offset="0.65625"/><stop stop-opacity="1" stop-color="rgb(100%, 72.686768%, 72.468567%)" offset="0.671875"/><stop stop-opacity="1" stop-color="rgb(100%, 72.442627%, 72.215271%)" offset="0.6875"/><stop stop-opacity="1" stop-color="rgb(100%, 72.19696%, 71.963501%)" offset="0.703125"/><stop stop-opacity="1" stop-color="rgb(100%, 71.951294%, 71.710205%)" offset="0.71875"/><stop stop-opacity="1" stop-color="rgb(100%, 71.705627%, 71.456909%)" offset="0.734375"/><stop stop-opacity="1" stop-color="rgb(100%, 71.459961%, 71.203613%)" offset="0.75"/><stop stop-opacity="1" stop-color="rgb(100%, 71.214294%, 70.951843%)" offset="0.765625"/><stop stop-opacity="1" stop-color="rgb(100%, 70.968628%, 70.698547%)" offset="0.78125"/><stop stop-opacity="1" stop-color="rgb(100%, 70.722961%, 70.445251%)" offset="0.796875"/><stop stop-opacity="1" stop-color="rgb(100%, 70.477295%, 70.191956%)" offset="0.8125"/><stop stop-opacity="1" stop-color="rgb(100%, 70.231628%, 69.940186%)" offset="0.828125"/><stop stop-opacity="1" stop-color="rgb(100%, 69.985962%, 69.68689%)" offset="0.84375"/><stop stop-opacity="1" stop-color="rgb(100%, 69.740295%, 69.433594%)" offset="0.859375"/><stop stop-opacity="1" stop-color="rgb(100%, 69.494629%, 69.180298%)" offset="0.875"/><stop stop-opacity="1" stop-color="rgb(100%, 69.248962%, 68.928528%)" offset="0.890625"/><stop stop-opacity="1" stop-color="rgb(100%, 69.003296%, 68.675232%)" offset="0.90625"/><stop stop-opacity="1" stop-color="rgb(100%, 68.757629%, 68.421936%)" offset="0.921875"/><stop stop-opacity="1" stop-color="rgb(100%, 68.513489%, 68.16864%)" offset="0.9375"/><stop stop-opacity="1" stop-color="rgb(100%, 68.267822%, 67.91687%)" offset="0.953125"/><stop stop-opacity="1" stop-color="rgb(100%, 68.022156%, 67.663574%)" offset="0.96875"/><stop stop-opacity="1" stop-color="rgb(100%, 67.776489%, 67.410278%)" offset="0.984375"/><stop stop-opacity="1" stop-color="rgb(100%, 67.530823%, 67.156982%)" offset="1"/></linearGradient><clipPath id="0f32661342"><path d="M 176 41 L 267 41 L 267 173 L 176 173 Z M 176 41 " clip-rule="nonzero"/></clipPath><clipPath id="1268f4132a"><path d="M 266.316406 110.980469 C 266.472656 115.992188 257.9375 116.324219 257.480469 119.839844 C 257.023438 123.355469 255.652344 142.890625 247.414062 147.609375 C 239.175781 152.324219 226.507812 145.9375 226.507812 145.9375 C 226.34375 149.972656 226.488281 153.996094 226.945312 158.011719 C 227.371094 162.917969 228.550781 167.640625 230.476562 172.171875 L 176.773438 169.597656 C 181.359375 142.582031 177.546875 101.984375 177.546875 101.984375 L 208.199219 56.976562 C 208.199219 56.976562 239.792969 41.5625 240.257812 41.5625 C 240.726562 41.5625 260.390625 46.574219 260.390625 46.574219 C 261.898438 59.816406 262.253906 73.09375 261.464844 86.398438 C 260.675781 98.785156 266.167969 105.976562 266.316406 110.980469 Z M 266.316406 110.980469 " clip-rule="nonzero"/></clipPath><linearGradient x1="60.432858" gradientTransform="matrix(3.339441, 0, 0, 3.340752, 23.72627, 1.03212)" y1="52.476339" x2="56.216575" gradientUnits="userSpaceOnUse" y2="11.074263" id="72a1bbef4a"><stop stop-opacity="1" stop-color="rgb(100%, 79.998779%, 79.998779%)" offset="0"/><stop stop-opacity="1" stop-color="rgb(100%, 79.998779%, 79.998779%)" offset="0.0653923"/><stop stop-opacity="1" stop-color="rgb(100%, 79.998779%, 79.998779%)" offset="0.125"/><stop stop-opacity="1" stop-color="rgb(100%, 79.998779%, 79.998779%)" offset="0.1875"/><stop stop-opacity="1" stop-color="rgb(100%, 79.818726%, 79.814148%)" offset="0.203125"/><stop stop-opacity="1" stop-color="rgb(100%, 79.450989%, 79.43573%)" offset="0.21875"/><stop stop-opacity="1" stop-color="rgb(100%, 79.074097%, 79.046631%)" offset="0.234375"/><stop stop-opacity="1" stop-color="rgb(100%, 78.697205%, 78.657532%)" offset="0.25"/><stop stop-opacity="1" stop-color="rgb(100%, 78.318787%, 78.268433%)" offset="0.265625"/><stop stop-opacity="1" stop-color="rgb(100%, 77.941895%, 77.880859%)" offset="0.28125"/><stop stop-opacity="1" stop-color="rgb(100%, 77.565002%, 77.49176%)" offset="0.296875"/><stop stop-opacity="1" stop-color="rgb(100%, 77.186584%, 77.102661%)" offset="0.3125"/><stop stop-opacity="1" stop-color="rgb(100%, 76.809692%, 76.713562%)" offset="0.328125"/><stop stop-opacity="1" stop-color="rgb(100%, 76.4328%, 76.325989%)" offset="0.34375"/><stop stop-opacity="1" stop-color="rgb(100%, 76.054382%, 75.93689%)" offset="0.359375"/><stop stop-opacity="1" stop-color="rgb(100%, 75.67749%, 75.547791%)" offset="0.375"/><stop stop-opacity="1" stop-color="rgb(100%, 75.300598%, 75.160217%)" offset="0.390625"/><stop stop-opacity="1" stop-color="rgb(100%, 74.923706%, 74.771118%)" offset="0.40625"/><stop stop-opacity="1" stop-color="rgb(100%, 74.545288%, 74.382019%)" offset="0.421875"/><stop stop-opacity="1" stop-color="rgb(100%, 74.168396%, 73.99292%)" offset="0.4375"/><stop stop-opacity="1" stop-color="rgb(100%, 73.791504%, 73.605347%)" offset="0.453125"/><stop stop-opacity="1" stop-color="rgb(100%, 73.413086%, 73.216248%)" offset="0.46875"/><stop stop-opacity="1" stop-color="rgb(100%, 73.036194%, 72.827148%)" offset="0.484375"/><stop stop-opacity="1" stop-color="rgb(100%, 72.659302%, 72.438049%)" offset="0.5"/><stop stop-opacity="1" stop-color="rgb(100%, 72.280884%, 72.050476%)" offset="0.515625"/><stop stop-opacity="1" stop-color="rgb(100%, 71.903992%, 71.661377%)" offset="0.53125"/><stop stop-opacity="1" stop-color="rgb(100%, 71.5271%, 71.272278%)" offset="0.546875"/><stop stop-opacity="1" stop-color="rgb(100%, 71.148682%, 70.884705%)" offset="0.5625"/><stop stop-opacity="1" stop-color="rgb(100%, 70.77179%, 70.495605%)" offset="0.578125"/><stop stop-opacity="1" stop-color="rgb(100%, 70.394897%, 70.106506%)" offset="0.59375"/><stop stop-opacity="1" stop-color="rgb(100%, 70.016479%, 69.717407%)" offset="0.609375"/><stop stop-opacity="1" stop-color="rgb(100%, 69.639587%, 69.329834%)" offset="0.625"/><stop stop-opacity="1" stop-color="rgb(100%, 69.262695%, 68.940735%)" offset="0.640625"/><stop stop-opacity="1" stop-color="rgb(100%, 68.884277%, 68.551636%)" offset="0.65625"/><stop stop-opacity="1" stop-color="rgb(100%, 68.507385%, 68.162537%)" offset="0.671875"/><stop stop-opacity="1" stop-color="rgb(100%, 68.130493%, 67.774963%)" offset="0.6875"/><stop stop-opacity="1" stop-color="rgb(100%, 67.752075%, 67.385864%)" offset="0.703125"/><stop stop-opacity="1" stop-color="rgb(100%, 67.375183%, 66.996765%)" offset="0.71875"/><stop stop-opacity="1" stop-color="rgb(100%, 66.998291%, 66.607666%)" offset="0.734375"/><stop stop-opacity="1" stop-color="rgb(100%, 66.619873%, 66.220093%)" offset="0.75"/><stop stop-opacity="1" stop-color="rgb(100%, 66.242981%, 65.830994%)" offset="0.765625"/><stop stop-opacity="1" stop-color="rgb(100%, 65.866089%, 65.441895%)" offset="0.78125"/><stop stop-opacity="1" stop-color="rgb(100%, 65.487671%, 65.054321%)" offset="0.796875"/><stop stop-opacity="1" stop-color="rgb(100%, 65.110779%, 64.665222%)" offset="0.8125"/><stop stop-opacity="1" stop-color="rgb(100%, 64.733887%, 64.276123%)" offset="0.828125"/><stop stop-opacity="1" stop-color="rgb(100%, 64.356995%, 63.887024%)" offset="0.84375"/><stop stop-opacity="1" stop-color="rgb(100%, 63.978577%, 63.499451%)" offset="0.859375"/><stop stop-opacity="1" stop-color="rgb(100%, 63.601685%, 63.110352%)" offset="0.875"/><stop stop-opacity="1" stop-color="rgb(100%, 63.224792%, 62.721252%)" offset="0.890625"/><stop stop-opacity="1" stop-color="rgb(100%, 62.846375%, 62.332153%)" offset="0.90625"/><stop stop-opacity="1" stop-color="rgb(100%, 62.469482%, 61.94458%)" offset="0.921875"/><stop stop-opacity="1" stop-color="rgb(100%, 62.09259%, 61.555481%)" offset="0.934608"/><stop stop-opacity="1" stop-color="rgb(100%, 61.903381%, 61.361694%)" offset="0.9375"/><stop stop-opacity="1" stop-color="rgb(100%, 61.714172%, 61.166382%)" offset="0.953125"/><stop stop-opacity="1" stop-color="rgb(100%, 61.33728%, 60.777283%)" offset="0.96875"/><stop stop-opacity="1" stop-color="rgb(100%, 60.960388%, 60.389709%)" offset="0.984375"/><stop stop-opacity="1" stop-color="rgb(100%, 60.58197%, 60.00061%)" offset="1"/></linearGradient><clipPath id="a82d302f7c"><path d="M 201 136 L 227 136 L 227 159 L 201 159 Z M 201 136 " clip-rule="nonzero"/></clipPath><clipPath id="b503bcf608"><path d="M 226.945312 158.015625 C 210.742188 153.804688 201.976562 136.492188 201.976562 136.492188 L 226.507812 145.941406 C 226.34375 149.976562 226.488281 154 226.945312 158.015625 Z M 226.945312 158.015625 " clip-rule="nonzero"/></clipPath><linearGradient x1="56.05472" gradientTransform="matrix(3.339441, 0, 0, 3.340752, 23.72627, 1.03212)" y1="47.710468" x2="58.175719" gradientUnits="userSpaceOnUse" y2="39.827394" id="f5ecf04bc8"><stop stop-opacity="1" stop-color="rgb(100%, 59.841919%, 59.239197%)" offset="0"/><stop stop-opacity="1" stop-color="rgb(100%, 59.744263%, 59.136963%)" offset="0.03125"/><stop stop-opacity="1" stop-color="rgb(100%, 59.547424%, 58.934021%)" offset="0.0625"/><stop stop-opacity="1" stop-color="rgb(100%, 59.350586%, 58.732605%)" offset="0.09375"/><stop stop-opacity="1" stop-color="rgb(100%, 59.155273%, 58.529663%)" offset="0.125"/><stop stop-opacity="1" stop-color="rgb(100%, 58.958435%, 58.328247%)" offset="0.15625"/><stop stop-opacity="1" stop-color="rgb(100%, 58.761597%, 58.125305%)" offset="0.1875"/><stop stop-opacity="1" stop-color="rgb(100%, 58.564758%, 57.923889%)" offset="0.21875"/><stop stop-opacity="1" stop-color="rgb(100%, 58.369446%, 57.720947%)" offset="0.237971"/><stop stop-opacity="1" stop-color="rgb(100%, 58.27179%, 57.620239%)" offset="0.25"/><stop stop-opacity="1" stop-color="rgb(100%, 58.172607%, 57.518005%)" offset="0.28125"/><stop stop-opacity="1" stop-color="rgb(100%, 57.975769%, 57.316589%)" offset="0.3125"/><stop stop-opacity="1" stop-color="rgb(100%, 57.780457%, 57.113647%)" offset="0.34375"/><stop stop-opacity="1" stop-color="rgb(100%, 57.583618%, 56.912231%)" offset="0.375"/><stop stop-opacity="1" stop-color="rgb(100%, 57.38678%, 56.70929%)" offset="0.40625"/><stop stop-opacity="1" stop-color="rgb(100%, 57.189941%, 56.507874%)" offset="0.4375"/><stop stop-opacity="1" stop-color="rgb(100%, 56.994629%, 56.304932%)" offset="0.46875"/><stop stop-opacity="1" stop-color="rgb(100%, 56.797791%, 56.103516%)" offset="0.5"/><stop stop-opacity="1" stop-color="rgb(100%, 56.600952%, 55.900574%)" offset="0.53125"/><stop stop-opacity="1" stop-color="rgb(100%, 56.40564%, 55.697632%)" offset="0.5625"/><stop stop-opacity="1" stop-color="rgb(100%, 56.208801%, 55.496216%)" offset="0.59375"/><stop stop-opacity="1" stop-color="rgb(100%, 56.011963%, 55.293274%)" offset="0.625"/><stop stop-opacity="1" stop-color="rgb(100%, 55.815125%, 55.091858%)" offset="0.65625"/><stop stop-opacity="1" stop-color="rgb(100%, 55.619812%, 54.888916%)" offset="0.6875"/><stop stop-opacity="1" stop-color="rgb(100%, 55.422974%, 54.6875%)" offset="0.71875"/><stop stop-opacity="1" stop-color="rgb(100%, 55.226135%, 54.484558%)" offset="0.75"/><stop stop-opacity="1" stop-color="rgb(100%, 55.030823%, 54.281616%)" offset="0.762029"/><stop stop-opacity="1" stop-color="rgb(100%, 54.933167%, 54.180908%)" offset="0.78125"/><stop stop-opacity="1" stop-color="rgb(100%, 54.833984%, 54.0802%)" offset="0.8125"/><stop stop-opacity="1" stop-color="rgb(100%, 54.637146%, 53.877258%)" offset="0.84375"/><stop stop-opacity="1" stop-color="rgb(100%, 54.441833%, 53.675842%)" offset="0.875"/><stop stop-opacity="1" stop-color="rgb(100%, 54.244995%, 53.4729%)" offset="0.90625"/><stop stop-opacity="1" stop-color="rgb(100%, 54.048157%, 53.271484%)" offset="0.9375"/><stop stop-opacity="1" stop-color="rgb(100%, 53.851318%, 53.068542%)" offset="0.96875"/><stop stop-opacity="1" stop-color="rgb(100%, 53.656006%, 52.865601%)" offset="1"/></linearGradient><clipPath id="bd8f37c0e9"><path d="M 60 164 L 386 164 L 386 467 L 60 467 Z M 60 164 " clip-rule="nonzero"/></clipPath><clipPath id="d0ef673616"><path d="M 385.535156 269.382812 L 335.996094 316.457031 L 282.566406 274.695312 C 282.566406 274.695312 278.226562 290.449219 273.589844 310.585938 C 268.699219 330.589844 265.210938 350.839844 263.128906 371.328125 C 260.625 406.738281 291.0625 455.582031 273.351562 464.082031 C 255.644531 472.585938 195.523438 459.121094 160.835938 464.082031 C 126.148438 469.046875 64.601562 465.492188 61.046875 450.617188 C 57.496094 435.742188 71.671875 389.738281 70.261719 345.84375 C 68.851562 301.949219 81.578125 210.261719 112.003906 187.261719 C 142.429688 164.261719 198.769531 164.597656 198.769531 164.597656 C 198.769531 164.597656 267.324219 162.492188 298.480469 181.246094 C 329.632812 199.996094 385.535156 269.382812 385.535156 269.382812 Z M 385.535156 269.382812 " clip-rule="nonzero"/></clipPath><linearGradient x1="43.22382" gradientTransform="matrix(3.339441, 0, 0, 3.340752, 23.72627, 1.03212)" y1="150.061745" x2="73.146068" gradientUnits="userSpaceOnUse" y2="38.859913" id="caab25a006"><stop stop-opacity="1" stop-color="rgb(49.398804%, 51.399231%, 100%)" offset="0"/><stop stop-opacity="1" stop-color="rgb(49.398804%, 51.399231%, 100%)" offset="0.03125"/><stop stop-opacity="1" stop-color="rgb(49.476624%, 51.4328%, 100%)" offset="0.046875"/><stop stop-opacity="1" stop-color="rgb(49.699402%, 51.531982%, 100%)" offset="0.0546875"/><stop stop-opacity="1" stop-color="rgb(49.989319%, 51.661682%, 100%)" offset="0.0625"/><stop stop-opacity="1" stop-color="rgb(50.279236%, 51.789856%, 100%)" offset="0.0703125"/><stop stop-opacity="1" stop-color="rgb(50.567627%, 51.91803%, 100%)" offset="0.078125"/><stop stop-opacity="1" stop-color="rgb(50.857544%, 52.046204%, 100%)" offset="0.0859375"/><stop stop-opacity="1" stop-color="rgb(51.145935%, 52.174377%, 100%)" offset="0.09375"/><stop stop-opacity="1" stop-color="rgb(51.435852%, 52.302551%, 100%)" offset="0.101563"/><stop stop-opacity="1" stop-color="rgb(51.724243%, 52.430725%, 100%)" offset="0.109375"/><stop stop-opacity="1" stop-color="rgb(52.01416%, 52.558899%, 100%)" offset="0.117188"/><stop stop-opacity="1" stop-color="rgb(52.304077%, 52.687073%, 100%)" offset="0.125"/><stop stop-opacity="1" stop-color="rgb(52.592468%, 52.815247%, 100%)" offset="0.132813"/><stop stop-opacity="1" stop-color="rgb(52.882385%, 52.94342%, 100%)" offset="0.140625"/><stop stop-opacity="1" stop-color="rgb(53.170776%, 53.071594%, 100%)" offset="0.148438"/><stop stop-opacity="1" stop-color="rgb(53.460693%, 53.199768%, 100%)" offset="0.15625"/><stop stop-opacity="1" stop-color="rgb(53.75061%, 53.327942%, 100%)" offset="0.164063"/><stop stop-opacity="1" stop-color="rgb(54.039001%, 53.456116%, 100%)" offset="0.171875"/><stop stop-opacity="1" stop-color="rgb(54.328918%, 53.58429%, 100%)" offset="0.179688"/><stop stop-opacity="1" stop-color="rgb(54.61731%, 53.712463%, 100%)" offset="0.1875"/><stop stop-opacity="1" stop-color="rgb(54.907227%, 53.842163%, 100%)" offset="0.195313"/><stop stop-opacity="1" stop-color="rgb(55.195618%, 53.970337%, 100%)" offset="0.203125"/><stop stop-opacity="1" stop-color="rgb(55.485535%, 54.098511%, 100%)" offset="0.210938"/><stop stop-opacity="1" stop-color="rgb(55.775452%, 54.226685%, 100%)" offset="0.21875"/><stop stop-opacity="1" stop-color="rgb(56.063843%, 54.354858%, 100%)" offset="0.221649"/><stop stop-opacity="1" stop-color="rgb(56.208801%, 54.418945%, 100%)" offset="0.226563"/><stop stop-opacity="1" stop-color="rgb(56.35376%, 54.483032%, 100%)" offset="0.234375"/><stop stop-opacity="1" stop-color="rgb(56.642151%, 54.611206%, 100%)" offset="0.242188"/><stop stop-opacity="1" stop-color="rgb(56.932068%, 54.73938%, 100%)" offset="0.25"/><stop stop-opacity="1" stop-color="rgb(57.220459%, 54.867554%, 100%)" offset="0.257813"/><stop stop-opacity="1" stop-color="rgb(57.510376%, 54.995728%, 100%)" offset="0.265625"/><stop stop-opacity="1" stop-color="rgb(57.800293%, 55.123901%, 100%)" offset="0.273438"/><stop stop-opacity="1" stop-color="rgb(58.088684%, 55.252075%, 100%)" offset="0.28125"/><stop stop-opacity="1" stop-color="rgb(58.378601%, 55.380249%, 100%)" offset="0.289063"/><stop stop-opacity="1" stop-color="rgb(58.666992%, 55.508423%, 100%)" offset="0.296875"/><stop stop-opacity="1" stop-color="rgb(58.956909%, 55.636597%, 100%)" offset="0.304688"/><stop stop-opacity="1" stop-color="rgb(59.246826%, 55.764771%, 100%)" offset="0.3125"/><stop stop-opacity="1" stop-color="rgb(59.535217%, 55.892944%, 100%)" offset="0.320313"/><stop stop-opacity="1" stop-color="rgb(59.825134%, 56.022644%, 100%)" offset="0.328125"/><stop stop-opacity="1" stop-color="rgb(60.113525%, 56.150818%, 100%)" offset="0.335938"/><stop stop-opacity="1" stop-color="rgb(60.403442%, 56.278992%, 100%)" offset="0.34375"/><stop stop-opacity="1" stop-color="rgb(60.691833%, 56.407166%, 100%)" offset="0.351563"/><stop stop-opacity="1" stop-color="rgb(60.98175%, 56.535339%, 100%)" offset="0.359375"/><stop stop-opacity="1" stop-color="rgb(61.271667%, 56.663513%, 100%)" offset="0.367188"/><stop stop-opacity="1" stop-color="rgb(61.560059%, 56.791687%, 100%)" offset="0.375"/><stop stop-opacity="1" stop-color="rgb(61.849976%, 56.919861%, 100%)" offset="0.382813"/><stop stop-opacity="1" stop-color="rgb(62.138367%, 57.048035%, 100%)" offset="0.390625"/><stop stop-opacity="1" stop-color="rgb(62.428284%, 57.176208%, 100%)" offset="0.398438"/><stop stop-opacity="1" stop-color="rgb(62.716675%, 57.304382%, 100%)" offset="0.40625"/><stop stop-opacity="1" stop-color="rgb(63.006592%, 57.432556%, 100%)" offset="0.414063"/><stop stop-opacity="1" stop-color="rgb(63.296509%, 57.56073%, 100%)" offset="0.421875"/><stop stop-opacity="1" stop-color="rgb(63.5849%, 57.688904%, 100%)" offset="0.429688"/><stop stop-opacity="1" stop-color="rgb(63.874817%, 57.817078%, 100%)" offset="0.4375"/><stop stop-opacity="1" stop-color="rgb(64.163208%, 57.945251%, 100%)" offset="0.445313"/><stop stop-opacity="1" stop-color="rgb(64.453125%, 58.073425%, 100%)" offset="0.453125"/><stop stop-opacity="1" stop-color="rgb(64.743042%, 58.203125%, 100%)" offset="0.460938"/><stop stop-opacity="1" stop-color="rgb(65.031433%, 58.331299%, 100%)" offset="0.46875"/><stop stop-opacity="1" stop-color="rgb(65.32135%, 58.459473%, 100%)" offset="0.476563"/><stop stop-opacity="1" stop-color="rgb(65.609741%, 58.587646%, 100%)" offset="0.484375"/><stop stop-opacity="1" stop-color="rgb(65.899658%, 58.71582%, 100%)" offset="0.492188"/><stop stop-opacity="1" stop-color="rgb(66.188049%, 58.843994%, 100%)" offset="0.5"/><stop stop-opacity="1" stop-color="rgb(66.477966%, 58.972168%, 100%)" offset="0.507813"/><stop stop-opacity="1" stop-color="rgb(66.767883%, 59.100342%, 100%)" offset="0.515625"/><stop stop-opacity="1" stop-color="rgb(67.056274%, 59.228516%, 100%)" offset="0.523438"/><stop stop-opacity="1" stop-color="rgb(67.346191%, 59.356689%, 100%)" offset="0.53125"/><stop stop-opacity="1" stop-color="rgb(67.634583%, 59.484863%, 100%)" offset="0.539063"/><stop stop-opacity="1" stop-color="rgb(67.9245%, 59.613037%, 100%)" offset="0.546875"/><stop stop-opacity="1" stop-color="rgb(68.212891%, 59.741211%, 100%)" offset="0.554688"/><stop stop-opacity="1" stop-color="rgb(68.502808%, 59.869385%, 100%)" offset="0.5625"/><stop stop-opacity="1" stop-color="rgb(68.792725%, 59.997559%, 100%)" offset="0.570313"/><stop stop-opacity="1" stop-color="rgb(69.081116%, 60.125732%, 100%)" offset="0.578125"/><stop stop-opacity="1" stop-color="rgb(69.371033%, 60.253906%, 100%)" offset="0.585938"/><stop stop-opacity="1" stop-color="rgb(69.659424%, 60.383606%, 100%)" offset="0.59375"/><stop stop-opacity="1" stop-color="rgb(69.949341%, 60.51178%, 100%)" offset="0.601563"/><stop stop-opacity="1" stop-color="rgb(70.239258%, 60.639954%, 100%)" offset="0.609375"/><stop stop-opacity="1" stop-color="rgb(70.527649%, 60.768127%, 100%)" offset="0.617188"/><stop stop-opacity="1" stop-color="rgb(70.817566%, 60.896301%, 100%)" offset="0.625"/><stop stop-opacity="1" stop-color="rgb(71.105957%, 61.024475%, 100%)" offset="0.632813"/><stop stop-opacity="1" stop-color="rgb(71.395874%, 61.152649%, 100%)" offset="0.640625"/><stop stop-opacity="1" stop-color="rgb(71.684265%, 61.280823%, 100%)" offset="0.648438"/><stop stop-opacity="1" stop-color="rgb(71.974182%, 61.408997%, 100%)" offset="0.65625"/><stop stop-opacity="1" stop-color="rgb(72.264099%, 61.53717%, 100%)" offset="0.664063"/><stop stop-opacity="1" stop-color="rgb(72.55249%, 61.665344%, 100%)" offset="0.671875"/><stop stop-opacity="1" stop-color="rgb(72.842407%, 61.793518%, 100%)" offset="0.679688"/><stop stop-opacity="1" stop-color="rgb(73.130798%, 61.921692%, 100%)" offset="0.6875"/><stop stop-opacity="1" stop-color="rgb(73.420715%, 62.049866%, 100%)" offset="0.695313"/><stop stop-opacity="1" stop-color="rgb(73.710632%, 62.17804%, 100%)" offset="0.703125"/><stop stop-opacity="1" stop-color="rgb(73.999023%, 62.306213%, 100%)" offset="0.710938"/><stop stop-opacity="1" stop-color="rgb(74.28894%, 62.434387%, 100%)" offset="0.71875"/><stop stop-opacity="1" stop-color="rgb(74.577332%, 62.564087%, 100%)" offset="0.726563"/><stop stop-opacity="1" stop-color="rgb(74.867249%, 62.692261%, 100%)" offset="0.734375"/><stop stop-opacity="1" stop-color="rgb(75.15564%, 62.820435%, 100%)" offset="0.742188"/><stop stop-opacity="1" stop-color="rgb(75.445557%, 62.948608%, 100%)" offset="0.75"/><stop stop-opacity="1" stop-color="rgb(75.735474%, 63.076782%, 100%)" offset="0.757813"/><stop stop-opacity="1" stop-color="rgb(76.023865%, 63.204956%, 100%)" offset="0.765625"/><stop stop-opacity="1" stop-color="rgb(76.313782%, 63.33313%, 100%)" offset="0.773438"/><stop stop-opacity="1" stop-color="rgb(76.602173%, 63.461304%, 100%)" offset="0.778351"/><stop stop-opacity="1" stop-color="rgb(76.747131%, 63.525391%, 100%)" offset="0.78125"/><stop stop-opacity="1" stop-color="rgb(76.89209%, 63.589478%, 100%)" offset="0.789063"/><stop stop-opacity="1" stop-color="rgb(77.180481%, 63.717651%, 100%)" offset="0.796875"/><stop stop-opacity="1" stop-color="rgb(77.470398%, 63.845825%, 100%)" offset="0.804688"/><stop stop-opacity="1" stop-color="rgb(77.760315%, 63.973999%, 100%)" offset="0.8125"/><stop stop-opacity="1" stop-color="rgb(78.048706%, 64.102173%, 100%)" offset="0.820313"/><stop stop-opacity="1" stop-color="rgb(78.338623%, 64.230347%, 100%)" offset="0.828125"/><stop stop-opacity="1" stop-color="rgb(78.627014%, 64.358521%, 100%)" offset="0.835938"/><stop stop-opacity="1" stop-color="rgb(78.916931%, 64.486694%, 100%)" offset="0.84375"/><stop stop-opacity="1" stop-color="rgb(79.206848%, 64.614868%, 100%)" offset="0.851563"/><stop stop-opacity="1" stop-color="rgb(79.495239%, 64.744568%, 100%)" offset="0.859375"/><stop stop-opacity="1" stop-color="rgb(79.785156%, 64.872742%, 100%)" offset="0.867188"/><stop stop-opacity="1" stop-color="rgb(80.073547%, 65.000916%, 100%)" offset="0.875"/><stop stop-opacity="1" stop-color="rgb(80.363464%, 65.129089%, 100%)" offset="0.882813"/><stop stop-opacity="1" stop-color="rgb(80.651855%, 65.257263%, 100%)" offset="0.890625"/><stop stop-opacity="1" stop-color="rgb(80.941772%, 65.385437%, 100%)" offset="0.898438"/><stop stop-opacity="1" stop-color="rgb(81.143188%, 65.473938%, 100%)" offset="0.90625"/><stop stop-opacity="1" stop-color="rgb(81.199646%, 65.499878%, 100%)" offset="0.9375"/><stop stop-opacity="1" stop-color="rgb(81.199646%, 65.499878%, 100%)" offset="1"/></linearGradient><clipPath id="397866bc74"><path d="M 248 247 L 283 247 L 283 311 L 248 311 Z M 248 247 " clip-rule="nonzero"/></clipPath><clipPath id="a6ecc64d97"><path d="M 282.570312 274.6875 C 282.570312 274.6875 278.226562 290.4375 273.59375 310.578125 C 260.152344 289.425781 248.238281 247.4375 248.238281 247.4375 Z M 282.570312 274.6875 " clip-rule="nonzero"/></clipPath><linearGradient x1="72.638148" gradientTransform="matrix(3.339441, 0, 0, 3.340752, 23.72627, 1.03212)" y1="73.459185" x2="71.449076" gradientUnits="userSpaceOnUse" y2="92.914799" id="2f0313eeea"><stop stop-opacity="1" stop-color="rgb(49.398804%, 51.399231%, 100%)" offset="0"/><stop stop-opacity="1" stop-color="rgb(49.403381%, 51.400757%, 100%)" offset="0.0321731"/><stop stop-opacity="1" stop-color="rgb(49.409485%, 51.403809%, 100%)" offset="0.0625"/><stop stop-opacity="1" stop-color="rgb(49.578857%, 51.478577%, 100%)" offset="0.09375"/><stop stop-opacity="1" stop-color="rgb(49.916077%, 51.628113%, 100%)" offset="0.125"/><stop stop-opacity="1" stop-color="rgb(50.254822%, 51.777649%, 100%)" offset="0.15625"/><stop stop-opacity="1" stop-color="rgb(50.592041%, 51.928711%, 100%)" offset="0.1875"/><stop stop-opacity="1" stop-color="rgb(50.92926%, 52.078247%, 100%)" offset="0.21875"/><stop stop-opacity="1" stop-color="rgb(51.268005%, 52.227783%, 100%)" offset="0.25"/><stop stop-opacity="1" stop-color="rgb(51.605225%, 52.377319%, 100%)" offset="0.28125"/><stop stop-opacity="1" stop-color="rgb(51.94397%, 52.526855%, 100%)" offset="0.3125"/><stop stop-opacity="1" stop-color="rgb(52.281189%, 52.677917%, 100%)" offset="0.34375"/><stop stop-opacity="1" stop-color="rgb(52.619934%, 52.827454%, 100%)" offset="0.375"/><stop stop-opacity="1" stop-color="rgb(52.957153%, 52.97699%, 100%)" offset="0.40625"/><stop stop-opacity="1" stop-color="rgb(53.295898%, 53.126526%, 100%)" offset="0.4375"/><stop stop-opacity="1" stop-color="rgb(53.633118%, 53.276062%, 100%)" offset="0.46875"/><stop stop-opacity="1" stop-color="rgb(53.971863%, 53.427124%, 100%)" offset="0.5"/><stop stop-opacity="1" stop-color="rgb(54.309082%, 53.57666%, 100%)" offset="0.53125"/><stop stop-opacity="1" stop-color="rgb(54.646301%, 53.726196%, 100%)" offset="0.5625"/><stop stop-opacity="1" stop-color="rgb(54.985046%, 53.875732%, 100%)" offset="0.59375"/><stop stop-opacity="1" stop-color="rgb(55.322266%, 54.025269%, 100%)" offset="0.625"/><stop stop-opacity="1" stop-color="rgb(55.661011%, 54.174805%, 100%)" offset="0.65625"/><stop stop-opacity="1" stop-color="rgb(55.99823%, 54.325867%, 100%)" offset="0.6875"/><stop stop-opacity="1" stop-color="rgb(56.336975%, 54.475403%, 100%)" offset="0.71875"/><stop stop-opacity="1" stop-color="rgb(56.674194%, 54.624939%, 100%)" offset="0.75"/><stop stop-opacity="1" stop-color="rgb(57.012939%, 54.774475%, 100%)" offset="0.78125"/><stop stop-opacity="1" stop-color="rgb(57.350159%, 54.924011%, 100%)" offset="0.8125"/><stop stop-opacity="1" stop-color="rgb(57.687378%, 55.075073%, 100%)" offset="0.84375"/><stop stop-opacity="1" stop-color="rgb(58.026123%, 55.224609%, 100%)" offset="0.875"/><stop stop-opacity="1" stop-color="rgb(58.363342%, 55.374146%, 100%)" offset="0.90625"/><stop stop-opacity="1" stop-color="rgb(58.702087%, 55.523682%, 100%)" offset="0.9375"/><stop stop-opacity="1" stop-color="rgb(59.039307%, 55.673218%, 100%)" offset="0.967827"/><stop stop-opacity="1" stop-color="rgb(59.208679%, 55.749512%, 100%)" offset="0.96875"/><stop stop-opacity="1" stop-color="rgb(59.378052%, 55.82428%, 100%)" offset="1"/></linearGradient><clipPath id="f327daefb7"><path d="M 395 45 L 477 45 L 477 117 L 395 117 Z M 395 45 " clip-rule="nonzero"/></clipPath><clipPath id="b6acec663c"><path d="M 456.449219 116.171875 L 401.277344 116.171875 C 400.808594 116.191406 400.34375 116.152344 399.882812 116.0625 C 399.421875 115.972656 398.980469 115.828125 398.550781 115.632812 C 398.125 115.4375 397.726562 115.195312 397.355469 114.90625 C 396.988281 114.617188 396.65625 114.289062 396.363281 113.921875 C 396.070312 113.554688 395.824219 113.160156 395.625 112.734375 C 395.425781 112.308594 395.277344 111.867188 395.183594 111.410156 C 395.089844 110.949219 395.046875 110.484375 395.0625 110.015625 C 395.074219 109.546875 395.144531 109.085938 395.265625 108.632812 L 406.425781 53.433594 C 406.542969 52.917969 406.699219 52.414062 406.898438 51.925781 C 407.097656 51.433594 407.335938 50.964844 407.613281 50.511719 C 407.890625 50.058594 408.203125 49.632812 408.546875 49.234375 C 408.894531 48.832031 409.269531 48.464844 409.679688 48.125 C 410.085938 47.785156 410.515625 47.484375 410.972656 47.214844 C 411.429688 46.945312 411.90625 46.71875 412.398438 46.527344 C 412.894531 46.339844 413.398438 46.191406 413.917969 46.082031 C 414.4375 45.976562 414.960938 45.914062 415.488281 45.890625 L 470.664062 45.890625 C 471.132812 45.875 471.597656 45.910156 472.058594 46 C 472.519531 46.09375 472.960938 46.234375 473.386719 46.429688 C 473.816406 46.625 474.214844 46.867188 474.582031 47.15625 C 474.953125 47.445312 475.285156 47.773438 475.578125 48.140625 C 475.871094 48.507812 476.117188 48.90625 476.316406 49.332031 C 476.515625 49.753906 476.660156 50.199219 476.757812 50.65625 C 476.851562 51.117188 476.894531 51.582031 476.878906 52.050781 C 476.867188 52.519531 476.796875 52.980469 476.675781 53.433594 L 465.507812 108.632812 C 465.390625 109.148438 465.234375 109.648438 465.035156 110.140625 C 464.835938 110.628906 464.597656 111.101562 464.320312 111.550781 C 464.042969 112.003906 463.734375 112.429688 463.386719 112.828125 C 463.039062 113.230469 462.664062 113.597656 462.257812 113.9375 C 461.851562 114.277344 461.417969 114.578125 460.964844 114.847656 C 460.507812 115.113281 460.03125 115.34375 459.539062 115.535156 C 459.042969 115.722656 458.539062 115.871094 458.019531 115.980469 C 457.503906 116.085938 456.980469 116.148438 456.449219 116.171875 Z M 456.449219 116.171875 " clip-rule="nonzero"/></clipPath><linearGradient x1="178.327295" gradientTransform="matrix(3.339441, 0, -1.352474, 3.340752, -117.78255, 1.03212)" y1="37.347832" x2="172.702705" gradientUnits="userSpaceOnUse" y2="10.547494" id="255cb0d195"><stop stop-opacity="1" stop-color="rgb(100%, 47.37854%, 37.608337%)" offset="0"/><stop stop-opacity="1" stop-color="rgb(100%, 47.499084%, 37.693787%)" offset="0.03125"/><stop stop-opacity="1" stop-color="rgb(100%, 47.738647%, 37.866211%)" offset="0.0625"/><stop stop-opacity="1" stop-color="rgb(100%, 47.97821%, 38.037109%)" offset="0.09375"/><stop stop-opacity="1" stop-color="rgb(100%, 48.219299%, 38.209534%)" offset="0.125"/><stop stop-opacity="1" stop-color="rgb(100%, 48.458862%, 38.380432%)" offset="0.15625"/><stop stop-opacity="1" stop-color="rgb(100%, 48.699951%, 38.552856%)" offset="0.1875"/><stop stop-opacity="1" stop-color="rgb(100%, 48.939514%, 38.725281%)" offset="0.21875"/><stop stop-opacity="1" stop-color="rgb(100%, 49.179077%, 38.896179%)" offset="0.247767"/><stop stop-opacity="1" stop-color="rgb(100%, 49.299622%, 38.983154%)" offset="0.25"/><stop stop-opacity="1" stop-color="rgb(100%, 49.420166%, 39.068604%)" offset="0.28125"/><stop stop-opacity="1" stop-color="rgb(100%, 49.659729%, 39.241028%)" offset="0.3125"/><stop stop-opacity="1" stop-color="rgb(100%, 49.899292%, 39.411926%)" offset="0.34375"/><stop stop-opacity="1" stop-color="rgb(100%, 50.140381%, 39.584351%)" offset="0.375"/><stop stop-opacity="1" stop-color="rgb(100%, 50.379944%, 39.756775%)" offset="0.40625"/><stop stop-opacity="1" stop-color="rgb(100%, 50.621033%, 39.927673%)" offset="0.4375"/><stop stop-opacity="1" stop-color="rgb(100%, 50.860596%, 40.100098%)" offset="0.46875"/><stop stop-opacity="1" stop-color="rgb(100%, 51.100159%, 40.270996%)" offset="0.5"/><stop stop-opacity="1" stop-color="rgb(100%, 51.341248%, 40.44342%)" offset="0.53125"/><stop stop-opacity="1" stop-color="rgb(100%, 51.580811%, 40.615845%)" offset="0.5625"/><stop stop-opacity="1" stop-color="rgb(100%, 51.821899%, 40.786743%)" offset="0.59375"/><stop stop-opacity="1" stop-color="rgb(100%, 52.061462%, 40.959167%)" offset="0.625"/><stop stop-opacity="1" stop-color="rgb(100%, 52.301025%, 41.131592%)" offset="0.65625"/><stop stop-opacity="1" stop-color="rgb(100%, 52.542114%, 41.30249%)" offset="0.6875"/><stop stop-opacity="1" stop-color="rgb(100%, 52.781677%, 41.474915%)" offset="0.71875"/><stop stop-opacity="1" stop-color="rgb(100%, 53.02124%, 41.647339%)" offset="0.75"/><stop stop-opacity="1" stop-color="rgb(100%, 53.262329%, 41.818237%)" offset="0.752233"/><stop stop-opacity="1" stop-color="rgb(100%, 53.382874%, 41.905212%)" offset="0.78125"/><stop stop-opacity="1" stop-color="rgb(100%, 53.501892%, 41.990662%)" offset="0.8125"/><stop stop-opacity="1" stop-color="rgb(100%, 53.742981%, 42.16156%)" offset="0.84375"/><stop stop-opacity="1" stop-color="rgb(100%, 53.982544%, 42.333984%)" offset="0.875"/><stop stop-opacity="1" stop-color="rgb(100%, 54.222107%, 42.506409%)" offset="0.90625"/><stop stop-opacity="1" stop-color="rgb(100%, 54.463196%, 42.677307%)" offset="0.9375"/><stop stop-opacity="1" stop-color="rgb(100%, 54.702759%, 42.849731%)" offset="0.96875"/><stop stop-opacity="1" stop-color="rgb(100%, 54.943848%, 43.022156%)" offset="1"/></linearGradient><clipPath id="92751bea39"><path d="M 686 355 L 751.722656 355 L 751.722656 810 L 686 810 Z M 686 355 " clip-rule="nonzero"/></clipPath></defs><rect x="-81" width="972" fill="#ffffff" y="-80.999999" height="971.999992" fill-opacity="1"/><rect x="-81" width="972" fill="#ffffff" y="-80.999999" height="971.999992" fill-opacity="1"/><path fill="#9fc1f7" d="M 345.246094 827.726562 C 345.914062 827.726562 346.578125 827.664062 347.230469 827.539062 C 347.886719 827.417969 348.527344 827.238281 349.148438 826.996094 C 349.769531 826.753906 350.367188 826.457031 350.933594 826.109375 C 351.5 825.757812 352.03125 825.355469 352.523438 824.90625 C 353.015625 824.457031 353.464844 823.96875 353.867188 823.433594 C 354.269531 822.902344 354.621094 822.335938 354.917969 821.742188 C 355.214844 821.144531 355.457031 820.523438 355.640625 819.882812 C 355.824219 819.242188 355.945312 818.585938 356.007812 817.921875 L 399.203125 355.75 L 377.496094 355.75 L 334.492188 815.910156 C 334.421875 816.660156 334.429688 817.40625 334.515625 818.15625 C 334.601562 818.902344 334.765625 819.632812 335.003906 820.34375 C 335.242188 821.058594 335.550781 821.738281 335.933594 822.386719 C 336.3125 823.035156 336.757812 823.636719 337.261719 824.195312 C 337.769531 824.75 338.328125 825.246094 338.9375 825.6875 C 339.546875 826.125 340.195312 826.496094 340.882812 826.800781 C 341.570312 827.105469 342.28125 827.335938 343.015625 827.492188 C 343.753906 827.648438 344.496094 827.722656 345.246094 827.726562 Z M 345.246094 827.726562 " fill-opacity="1" fill-rule="nonzero"/><path fill="#9fc1f7" d="M 164.082031 827.726562 C 164.75 827.726562 165.410156 827.664062 166.066406 827.539062 C 166.722656 827.417969 167.363281 827.238281 167.984375 826.996094 C 168.605469 826.753906 169.199219 826.457031 169.765625 826.109375 C 170.335938 825.757812 170.863281 825.355469 171.359375 824.90625 C 171.851562 824.457031 172.296875 823.964844 172.699219 823.433594 C 173.101562 822.902344 173.453125 822.335938 173.75 821.742188 C 174.046875 821.144531 174.289062 820.523438 174.472656 819.882812 C 174.65625 819.242188 174.777344 818.585938 174.839844 817.921875 L 218.035156 355.75 L 196.328125 355.75 L 153.324219 815.910156 C 153.253906 816.660156 153.261719 817.410156 153.347656 818.15625 C 153.433594 818.902344 153.597656 819.632812 153.835938 820.347656 C 154.074219 821.058594 154.382812 821.738281 154.765625 822.386719 C 155.144531 823.039062 155.589844 823.640625 156.09375 824.195312 C 156.601562 824.75 157.160156 825.25 157.769531 825.6875 C 158.378906 826.128906 159.03125 826.5 159.71875 826.804688 C 160.40625 827.105469 161.117188 827.335938 161.851562 827.492188 C 162.585938 827.648438 163.332031 827.726562 164.082031 827.726562 Z M 164.082031 827.726562 " fill-opacity="1" fill-rule="nonzero"/><path fill="#9fc1f7" d="M 404.324219 332.152344 L 729.714844 332.152344 C 730.398438 332.152344 731.074219 332.21875 731.746094 332.351562 C 732.417969 332.484375 733.066406 332.683594 733.699219 332.945312 C 734.332031 333.207031 734.933594 333.527344 735.5 333.90625 C 736.070312 334.285156 736.59375 334.71875 737.078125 335.203125 C 737.5625 335.6875 737.996094 336.210938 738.375 336.78125 C 738.753906 337.351562 739.074219 337.949219 739.335938 338.582031 C 739.597656 339.214844 739.796875 339.867188 739.929688 340.539062 C 740.0625 341.207031 740.128906 341.886719 740.128906 342.570312 L 740.128906 345.328125 C 740.128906 346.015625 740.0625 346.691406 739.929688 347.363281 C 739.796875 348.035156 739.597656 348.683594 739.335938 349.316406 C 739.074219 349.949219 738.753906 350.550781 738.375 351.117188 C 737.996094 351.6875 737.5625 352.214844 737.078125 352.699219 C 736.59375 353.183594 736.070312 353.613281 735.5 353.992188 C 734.933594 354.375 734.332031 354.695312 733.699219 354.957031 C 733.066406 355.21875 732.417969 355.417969 731.746094 355.550781 C 731.074219 355.683594 730.398438 355.75 729.714844 355.75 L 404.324219 355.75 C 403.636719 355.75 402.960938 355.683594 402.289062 355.550781 C 401.621094 355.417969 400.96875 355.21875 400.335938 354.957031 C 399.703125 354.695312 399.105469 354.375 398.535156 353.992188 C 397.96875 353.613281 397.441406 353.183594 396.957031 352.699219 C 396.472656 352.214844 396.042969 351.6875 395.660156 351.117188 C 395.28125 350.550781 394.960938 349.949219 394.699219 349.316406 C 394.4375 348.683594 394.238281 348.035156 394.105469 347.363281 C 393.972656 346.691406 393.90625 346.015625 393.90625 345.328125 L 393.90625 342.570312 C 393.90625 341.886719 393.972656 341.207031 394.105469 340.539062 C 394.238281 339.867188 394.4375 339.214844 394.699219 338.582031 C 394.960938 337.949219 395.28125 337.351562 395.660156 336.78125 C 396.042969 336.210938 396.472656 335.6875 396.957031 335.203125 C 397.441406 334.71875 397.96875 334.285156 398.535156 333.90625 C 399.105469 333.527344 399.703125 333.207031 400.335938 332.945312 C 400.96875 332.683594 401.621094 332.484375 402.289062 332.351562 C 402.960938 332.21875 403.636719 332.152344 404.324219 332.152344 Z M 404.324219 332.152344 " fill-opacity="1" fill-rule="nonzero"/><path fill="#d2e1ff" d="M 224.878906 332.152344 L 550.269531 332.152344 C 550.953125 332.152344 551.628906 332.21875 552.300781 332.351562 C 552.972656 332.484375 553.625 332.683594 554.253906 332.945312 C 554.886719 333.207031 555.488281 333.527344 556.054688 333.90625 C 556.625 334.285156 557.152344 334.71875 557.632812 335.203125 C 558.117188 335.6875 558.550781 336.210938 558.929688 336.78125 C 559.308594 337.351562 559.628906 337.949219 559.890625 338.582031 C 560.152344 339.214844 560.351562 339.867188 560.484375 340.539062 C 560.617188 341.207031 560.683594 341.886719 560.683594 342.570312 L 560.683594 345.328125 C 560.683594 346.015625 560.617188 346.691406 560.484375 347.363281 C 560.351562 348.035156 560.152344 348.683594 559.890625 349.316406 C 559.628906 349.949219 559.308594 350.550781 558.929688 351.117188 C 558.550781 351.6875 558.117188 352.214844 557.632812 352.699219 C 557.152344 353.183594 556.625 353.613281 556.054688 353.992188 C 555.488281 354.375 554.886719 354.695312 554.253906 354.957031 C 553.625 355.21875 552.972656 355.417969 552.300781 355.550781 C 551.628906 355.683594 550.953125 355.75 550.269531 355.75 L 224.878906 355.75 C 224.195312 355.75 223.515625 355.683594 222.84375 355.550781 C 222.175781 355.417969 221.523438 355.21875 220.890625 354.957031 C 220.257812 354.695312 219.660156 354.375 219.089844 353.992188 C 218.523438 353.613281 217.996094 353.183594 217.511719 352.699219 C 217.027344 352.214844 216.597656 351.6875 216.21875 351.117188 C 215.835938 350.550781 215.515625 349.949219 215.253906 349.316406 C 214.992188 348.683594 214.796875 348.035156 214.660156 347.363281 C 214.527344 346.691406 214.460938 346.015625 214.460938 345.328125 L 214.460938 342.570312 C 214.460938 341.886719 214.527344 341.207031 214.660156 340.539062 C 214.796875 339.867188 214.992188 339.214844 215.253906 338.582031 C 215.515625 337.949219 215.835938 337.351562 216.21875 336.78125 C 216.597656 336.210938 217.027344 335.6875 217.511719 335.203125 C 217.996094 334.71875 218.523438 334.285156 219.089844 333.90625 C 219.660156 333.527344 220.257812 333.207031 220.890625 332.945312 C 221.523438 332.683594 222.175781 332.484375 222.84375 332.351562 C 223.515625 332.21875 224.195312 332.152344 224.878906 332.152344 Z M 224.878906 332.152344 " fill-opacity="1" fill-rule="nonzero"/><path fill="#26153f" d="M 544.925781 184.4375 L 542.5625 196.894531 L 541.113281 204.519531 L 531.863281 253.363281 L 517.464844 329.328125 C 517.304688 330.230469 517 331.085938 516.554688 331.890625 L 516.554688 331.910156 C 516.148438 332.671875 515.648438 333.367188 515.058594 333.996094 C 514.46875 334.628906 513.808594 335.171875 513.074219 335.628906 C 512.34375 336.085938 511.5625 336.4375 510.738281 336.691406 C 509.914062 336.941406 509.066406 337.085938 508.207031 337.113281 L 324.203125 337.113281 C 323.71875 337.132812 323.238281 337.09375 322.761719 337 C 322.285156 336.902344 321.824219 336.753906 321.382812 336.554688 C 320.941406 336.351562 320.53125 336.101562 320.148438 335.804688 C 319.761719 335.507812 319.417969 335.171875 319.113281 334.792969 C 318.808594 334.414062 318.550781 334.007812 318.339844 333.570312 C 318.128906 333.132812 317.972656 332.675781 317.867188 332.203125 C 317.765625 331.726562 317.714844 331.246094 317.722656 330.761719 C 317.730469 330.277344 317.792969 329.796875 317.910156 329.328125 L 319.339844 321.761719 L 345.367188 184.4375 C 345.480469 183.910156 345.636719 183.390625 345.835938 182.886719 C 346.035156 182.382812 346.277344 181.898438 346.554688 181.429688 C 346.835938 180.964844 347.148438 180.527344 347.503906 180.113281 C 347.855469 179.703125 348.238281 179.320312 348.652344 178.972656 C 349.066406 178.621094 349.507812 178.308594 349.976562 178.035156 C 350.441406 177.757812 350.929688 177.523438 351.4375 177.324219 C 351.941406 177.128906 352.460938 176.976562 352.992188 176.867188 C 353.523438 176.757812 354.058594 176.691406 354.601562 176.671875 L 538.632812 176.671875 C 539.117188 176.652344 539.597656 176.691406 540.070312 176.785156 C 540.546875 176.878906 541.007812 177.027344 541.449219 177.226562 C 541.890625 177.425781 542.300781 177.675781 542.6875 177.972656 C 543.070312 178.269531 543.414062 178.605469 543.71875 178.980469 C 544.023438 179.359375 544.28125 179.765625 544.492188 180.203125 C 544.703125 180.640625 544.863281 181.09375 544.964844 181.566406 C 545.070312 182.042969 545.121094 182.519531 545.113281 183.007812 C 545.105469 183.492188 545.042969 183.96875 544.925781 184.4375 Z M 544.925781 184.4375 " fill-opacity="1" fill-rule="nonzero"/><path fill="#aecdff" d="M 330.769531 314.085938 L 355.054688 184.941406 L 534.414062 184.941406 L 510.132812 314.085938 Z M 330.769531 314.085938 " fill-opacity="1" fill-rule="nonzero"/><path fill="#190d2d" d="M 279.574219 321.769531 L 508.242188 321.769531 C 508.789062 321.769531 509.332031 321.820312 509.867188 321.929688 C 510.40625 322.035156 510.925781 322.191406 511.429688 322.402344 C 511.9375 322.613281 512.417969 322.867188 512.871094 323.171875 C 513.328125 323.476562 513.746094 323.820312 514.132812 324.210938 C 514.519531 324.597656 514.867188 325.015625 515.171875 325.472656 C 515.472656 325.925781 515.730469 326.40625 515.941406 326.914062 C 516.148438 327.417969 516.308594 327.941406 516.414062 328.476562 C 516.519531 329.011719 516.574219 329.554688 516.574219 330.101562 L 516.574219 332.3125 C 516.574219 332.859375 516.519531 333.402344 516.414062 333.9375 C 516.308594 334.472656 516.148438 334.996094 515.941406 335.5 C 515.730469 336.007812 515.472656 336.488281 515.171875 336.941406 C 514.867188 337.398438 514.519531 337.816406 514.132812 338.203125 C 513.746094 338.59375 513.328125 338.9375 512.871094 339.242188 C 512.417969 339.546875 511.9375 339.800781 511.429688 340.011719 C 510.925781 340.222656 510.40625 340.378906 509.867188 340.484375 C 509.332031 340.59375 508.789062 340.644531 508.242188 340.644531 L 279.574219 340.644531 C 279.027344 340.644531 278.484375 340.59375 277.949219 340.484375 C 277.414062 340.378906 276.890625 340.222656 276.386719 340.011719 C 275.878906 339.800781 275.398438 339.546875 274.945312 339.242188 C 274.492188 338.9375 274.070312 338.59375 273.683594 338.203125 C 273.296875 337.816406 272.949219 337.398438 272.644531 336.941406 C 272.34375 336.488281 272.085938 336.007812 271.875 335.5 C 271.667969 334.996094 271.507812 334.472656 271.402344 333.9375 C 271.296875 333.402344 271.242188 332.859375 271.242188 332.3125 L 271.242188 330.101562 C 271.242188 329.554688 271.296875 329.011719 271.402344 328.476562 C 271.507812 327.941406 271.667969 327.417969 271.875 326.914062 C 272.085938 326.40625 272.34375 325.925781 272.644531 325.472656 C 272.949219 325.015625 273.296875 324.597656 273.683594 324.210938 C 274.070312 323.820312 274.492188 323.476562 274.945312 323.171875 C 275.398438 322.867188 275.878906 322.613281 276.386719 322.402344 C 276.890625 322.191406 277.414062 322.035156 277.949219 321.929688 C 278.484375 321.820312 279.027344 321.769531 279.574219 321.769531 Z M 279.574219 321.769531 " fill-opacity="1" fill-rule="nonzero"/><path fill="#15183d" d="M 543.097656 178.316406 C 542.488281 177.765625 541.796875 177.347656 541.023438 177.0625 C 540.25 176.777344 539.453125 176.644531 538.632812 176.664062 L 446.6875 176.664062 L 445.351562 184.945312 L 436.125 241.832031 C 436.050781 242.1875 435.996094 242.542969 435.960938 242.902344 C 435.925781 243.261719 435.914062 243.621094 435.917969 243.980469 C 435.925781 244.34375 435.953125 244.703125 436 245.058594 C 436.046875 245.417969 436.113281 245.769531 436.203125 246.121094 C 436.289062 246.46875 436.398438 246.8125 436.523438 247.152344 C 436.648438 247.492188 436.792969 247.820312 436.957031 248.140625 C 437.121094 248.464844 437.304688 248.773438 437.5 249.074219 C 437.699219 249.375 437.914062 249.664062 438.148438 249.941406 C 438.378906 250.21875 438.625 250.480469 438.886719 250.730469 C 439.148438 250.976562 439.421875 251.210938 439.710938 251.429688 C 439.996094 251.644531 440.296875 251.847656 440.605469 252.03125 C 440.917969 252.214844 441.238281 252.378906 441.566406 252.527344 C 441.894531 252.675781 442.230469 252.800781 442.574219 252.910156 C 442.917969 253.019531 443.269531 253.109375 443.621094 253.179688 C 443.976562 253.25 444.332031 253.300781 444.691406 253.328125 C 445.050781 253.359375 445.410156 253.367188 445.773438 253.355469 L 531.863281 253.355469 L 541.113281 204.515625 L 542.5625 196.886719 L 544.925781 184.433594 C 545.050781 183.886719 545.105469 183.335938 545.089844 182.777344 C 545.070312 182.214844 544.984375 181.667969 544.824219 181.132812 C 544.664062 180.597656 544.4375 180.089844 544.144531 179.613281 C 543.851562 179.132812 543.503906 178.703125 543.097656 178.316406 Z M 543.097656 178.316406 " fill-opacity="0.14" fill-rule="nonzero"/><g clip-path="url(#15da01ace6)"><g clip-path="url(#e960e0c1d8)"><path fill="url(#cdb853100f)" d="M 422.113281 95.65625 L 422.113281 239.558594 L 661.035156 239.558594 L 661.035156 95.65625 Z M 422.113281 95.65625 " fill-rule="nonzero"/></g></g><g clip-path="url(#82cc0653f6)"><g clip-path="url(#5ea20710aa)"><path fill="url(#576af6bb4c)" d="M 439.121094 95.667969 L 439.121094 124.429688 L 478.058594 124.429688 L 478.058594 95.667969 Z M 439.121094 95.667969 " fill-rule="nonzero"/></g></g><path fill="#ffffff" d="M 640.703125 113.710938 C 641.023438 114.0625 641.257812 114.472656 641.398438 114.941406 C 641.539062 115.410156 641.578125 115.902344 641.515625 116.417969 C 641.449219 116.933594 641.292969 117.433594 641.035156 117.917969 C 640.777344 118.402344 640.445312 118.835938 640.03125 119.214844 C 639.621094 119.59375 639.164062 119.894531 638.660156 120.109375 C 638.15625 120.328125 637.644531 120.445312 637.125 120.464844 C 636.605469 120.488281 636.117188 120.410156 635.664062 120.230469 C 635.207031 120.050781 634.820312 119.789062 634.496094 119.4375 C 634.171875 119.089844 633.941406 118.679688 633.800781 118.210938 C 633.660156 117.742188 633.621094 117.25 633.683594 116.734375 C 633.746094 116.21875 633.90625 115.714844 634.164062 115.230469 C 634.417969 114.746094 634.753906 114.316406 635.164062 113.933594 C 635.578125 113.554688 636.035156 113.257812 636.539062 113.039062 C 637.042969 112.824219 637.554688 112.707031 638.070312 112.683594 C 638.589844 112.664062 639.078125 112.742188 639.535156 112.921875 C 639.988281 113.097656 640.378906 113.363281 640.703125 113.710938 Z M 640.703125 113.710938 " fill-opacity="1" fill-rule="nonzero"/><path fill="#ffffff" d="M 618.410156 113.710938 C 618.734375 114.0625 618.964844 114.472656 619.105469 114.941406 C 619.246094 115.410156 619.285156 115.902344 619.222656 116.417969 C 619.160156 116.933594 619 117.433594 618.742188 117.917969 C 618.488281 118.402344 618.152344 118.835938 617.742188 119.214844 C 617.332031 119.59375 616.871094 119.894531 616.371094 120.109375 C 615.867188 120.328125 615.355469 120.445312 614.835938 120.464844 C 614.316406 120.488281 613.828125 120.410156 613.371094 120.230469 C 612.917969 120.050781 612.527344 119.789062 612.207031 119.4375 C 611.882812 119.089844 611.652344 118.679688 611.511719 118.210938 C 611.371094 117.742188 611.332031 117.25 611.394531 116.734375 C 611.457031 116.21875 611.617188 115.714844 611.871094 115.230469 C 612.128906 114.746094 612.464844 114.316406 612.875 113.933594 C 613.285156 113.554688 613.742188 113.257812 614.246094 113.039062 C 614.75 112.824219 615.261719 112.707031 615.78125 112.683594 C 616.300781 112.664062 616.789062 112.742188 617.242188 112.921875 C 617.699219 113.097656 618.089844 113.363281 618.410156 113.710938 Z M 618.410156 113.710938 " fill-opacity="1" fill-rule="nonzero"/><path fill="#ffffff" d="M 596.121094 113.710938 C 596.441406 114.0625 596.675781 114.472656 596.816406 114.941406 C 596.957031 115.410156 596.996094 115.902344 596.933594 116.417969 C 596.871094 116.933594 596.710938 117.433594 596.453125 117.917969 C 596.195312 118.402344 595.863281 118.835938 595.453125 119.214844 C 595.039062 119.59375 594.582031 119.894531 594.078125 120.109375 C 593.574219 120.328125 593.0625 120.445312 592.542969 120.464844 C 592.023438 120.488281 591.539062 120.410156 591.082031 120.230469 C 590.625 120.050781 590.238281 119.789062 589.914062 119.4375 C 589.589844 119.089844 589.359375 118.679688 589.21875 118.210938 C 589.078125 117.742188 589.039062 117.25 589.101562 116.734375 C 589.164062 116.21875 589.324219 115.714844 589.582031 115.230469 C 589.839844 114.746094 590.171875 114.316406 590.582031 113.933594 C 590.996094 113.554688 591.453125 113.257812 591.957031 113.039062 C 592.460938 112.824219 592.972656 112.707031 593.492188 112.683594 C 594.007812 112.664062 594.496094 112.742188 594.953125 112.921875 C 595.410156 113.097656 595.796875 113.363281 596.121094 113.710938 Z M 596.121094 113.710938 " fill-opacity="1" fill-rule="nonzero"/><path fill="#ffffff" d="M 603.726562 164.519531 L 480.429688 164.519531 C 480.1875 164.527344 479.953125 164.507812 479.71875 164.464844 C 479.480469 164.417969 479.253906 164.347656 479.035156 164.25 C 478.816406 164.152344 478.613281 164.03125 478.421875 163.890625 C 478.230469 163.746094 478.054688 163.582031 477.902344 163.398438 C 477.746094 163.214844 477.617188 163.019531 477.507812 162.804688 C 477.398438 162.59375 477.3125 162.371094 477.253906 162.136719 C 477.195312 161.90625 477.164062 161.671875 477.15625 161.429688 C 477.152344 161.191406 477.175781 160.953125 477.222656 160.71875 C 477.320312 160.199219 477.503906 159.707031 477.765625 159.246094 C 478.03125 158.785156 478.367188 158.382812 478.769531 158.035156 C 479.171875 157.691406 479.621094 157.417969 480.117188 157.226562 C 480.609375 157.03125 481.121094 156.925781 481.652344 156.910156 L 604.949219 156.910156 C 605.1875 156.898438 605.425781 156.917969 605.660156 156.964844 C 605.894531 157.011719 606.121094 157.082031 606.339844 157.179688 C 606.558594 157.277344 606.765625 157.398438 606.957031 157.542969 C 607.148438 157.6875 607.320312 157.851562 607.472656 158.035156 C 607.628906 158.21875 607.757812 158.417969 607.867188 158.632812 C 607.976562 158.84375 608.058594 159.070312 608.117188 159.300781 C 608.175781 159.535156 608.207031 159.769531 608.210938 160.007812 C 608.214844 160.25 608.191406 160.484375 608.140625 160.71875 C 608.042969 161.238281 607.859375 161.730469 607.597656 162.1875 C 607.332031 162.644531 607 163.046875 606.597656 163.390625 C 606.195312 163.734375 605.75 164.003906 605.257812 164.199219 C 604.765625 164.390625 604.253906 164.5 603.726562 164.519531 Z M 603.726562 164.519531 " fill-opacity="1" fill-rule="nonzero"/><path fill="#ffffff" d="M 547.644531 190.714844 L 476.179688 190.714844 C 475.941406 190.722656 475.703125 190.703125 475.46875 190.65625 C 475.234375 190.609375 475.007812 190.539062 474.789062 190.4375 C 474.570312 190.339844 474.363281 190.21875 474.171875 190.074219 C 473.980469 189.929688 473.808594 189.765625 473.65625 189.582031 C 473.503906 189.398438 473.371094 189.199219 473.261719 188.988281 C 473.152344 188.773438 473.070312 188.550781 473.011719 188.316406 C 472.953125 188.085938 472.921875 187.847656 472.917969 187.609375 C 472.914062 187.371094 472.9375 187.132812 472.988281 186.898438 C 473.085938 186.375 473.265625 185.886719 473.53125 185.425781 C 473.796875 184.964844 474.132812 184.5625 474.535156 184.214844 C 474.9375 183.867188 475.382812 183.597656 475.878906 183.40625 C 476.375 183.210938 476.886719 183.105469 477.417969 183.085938 L 548.878906 183.085938 C 549.121094 183.078125 549.355469 183.097656 549.589844 183.144531 C 549.828125 183.1875 550.054688 183.261719 550.273438 183.359375 C 550.492188 183.457031 550.695312 183.578125 550.886719 183.722656 C 551.078125 183.867188 551.25 184.03125 551.40625 184.214844 C 551.558594 184.398438 551.691406 184.597656 551.796875 184.808594 C 551.90625 185.023438 551.992188 185.246094 552.046875 185.480469 C 552.105469 185.710938 552.136719 185.949219 552.140625 186.1875 C 552.144531 186.425781 552.121094 186.664062 552.074219 186.898438 C 551.976562 187.421875 551.792969 187.910156 551.527344 188.371094 C 551.265625 188.832031 550.929688 189.238281 550.527344 189.582031 C 550.125 189.929688 549.675781 190.199219 549.183594 190.394531 C 548.6875 190.585938 548.175781 190.695312 547.644531 190.714844 Z M 547.644531 190.714844 " fill-opacity="1" fill-rule="nonzero"/><g clip-path="url(#306679df49)"><g clip-path="url(#44b2e371ea)"><path fill="url(#f245b3ca9b)" d="M 335.996094 269.382812 L 335.996094 370.140625 L 482.144531 370.140625 L 482.144531 269.382812 Z M 335.996094 269.382812 " fill-rule="nonzero"/></g></g><path fill="#3c4f9e" d="M 229.378906 775.570312 C 229.675781 775.070312 230.078125 774.679688 230.589844 774.398438 C 231.101562 774.117188 231.648438 773.980469 232.230469 773.996094 C 232.8125 774.011719 233.351562 774.175781 233.84375 774.484375 C 234.339844 774.789062 234.722656 775.203125 234.992188 775.71875 L 252.976562 810.023438 C 253.230469 810.507812 253.449219 811.003906 253.640625 811.515625 C 253.828125 812.027344 253.984375 812.550781 254.109375 813.082031 C 254.230469 813.613281 254.320312 814.152344 254.371094 814.691406 C 254.425781 815.234375 254.445312 815.78125 254.429688 816.324219 C 254.410156 816.871094 254.359375 817.414062 254.273438 817.953125 C 254.1875 818.488281 254.066406 819.019531 253.914062 819.542969 C 253.757812 820.066406 253.570312 820.578125 253.351562 821.078125 C 253.132812 821.578125 252.878906 822.058594 252.597656 822.527344 C 252.316406 822.992188 252.003906 823.441406 251.667969 823.867188 C 251.328125 824.292969 250.960938 824.699219 250.570312 825.078125 C 250.179688 825.457031 249.765625 825.808594 249.328125 826.136719 C 248.890625 826.464844 248.433594 826.761719 247.960938 827.027344 C 247.484375 827.296875 246.996094 827.535156 246.488281 827.738281 C 245.984375 827.941406 245.46875 828.113281 244.941406 828.253906 C 244.414062 828.390625 243.878906 828.496094 243.335938 828.566406 C 242.796875 828.636719 242.253906 828.671875 241.707031 828.671875 L 153.882812 828.671875 C 153.640625 828.667969 153.402344 828.644531 153.167969 828.589844 C 152.933594 828.535156 152.707031 828.457031 152.492188 828.351562 C 152.273438 828.246094 152.070312 828.121094 151.882812 827.972656 C 151.695312 827.820312 151.523438 827.652344 151.375 827.464844 C 151.222656 827.277344 151.09375 827.074219 150.992188 826.859375 C 150.886719 826.640625 150.804688 826.414062 150.75 826.179688 C 150.695312 825.945312 150.667969 825.710938 150.667969 825.46875 C 150.664062 825.226562 150.691406 824.988281 150.742188 824.753906 L 163.910156 765.289062 " fill-opacity="1" fill-rule="nonzero"/><path fill="#26153f" d="M 285.867188 522.828125 L 270.894531 596.257812 L 234.433594 775.570312 L 162.261719 775.570312 L 178.769531 570.097656 L 182.066406 522.828125 Z M 285.867188 522.828125 " fill-opacity="1" fill-rule="nonzero"/><path fill="#190d2d" d="M 285.871094 522.828125 L 270.902344 596.257812 C 245.128906 589.242188 206.414062 578.105469 178.777344 570.097656 L 182.074219 522.828125 Z M 285.871094 522.828125 " fill-opacity="1" fill-rule="nonzero"/><path fill="#26153f" d="M 389.425781 695.925781 C 374.21875 739.464844 358.292969 775.574219 358.292969 775.574219 C 358.292969 775.574219 293.53125 766.714844 292.84375 765.304688 C 292.308594 764.253906 320.957031 645.707031 335.648438 585.015625 C 340.574219 564.757812 343.949219 550.941406 344.128906 550.117188 L 344.148438 550.078125 C 344.148438 550.078125 188.449219 550.433594 121.9375 541.933594 C 55.425781 533.429688 65.308594 452.292969 65.308594 452.292969 L 262.40625 452.394531 C 262.40625 452.394531 380.9375 450.605469 432.242188 462.304688 C 483.550781 474.003906 404.632812 652.386719 389.425781 695.925781 Z M 389.425781 695.925781 " fill-opacity="1" fill-rule="nonzero"/><g clip-path="url(#0f32661342)"><g clip-path="url(#1268f4132a)"><path fill="url(#72a1bbef4a)" d="M 176.773438 41.5625 L 176.773438 172.171875 L 266.472656 172.171875 L 266.472656 41.5625 Z M 176.773438 41.5625 " fill-rule="nonzero"/></g></g><path fill="#26153f" d="M 224.527344 58.035156 C 231.238281 76.347656 219.035156 96.949219 219.035156 96.949219 C 219.035156 96.949219 217.660156 81.382812 204.238281 84.128906 C 190.820312 86.875 191.117188 114.652344 211.867188 111.140625 C 211.867188 111.140625 200.730469 135.863281 180.289062 136.472656 C 159.847656 137.085938 163.964844 123.5 166.40625 118.765625 C 168.847656 114.03125 144.136719 97.71875 149.625 81.378906 C 155.117188 65.039062 163.648438 67.511719 163.648438 67.511719 C 163.648438 67.511719 150.984375 62.019531 155.5625 45.234375 C 160.140625 28.445312 220.867188 2.179688 231.394531 1.113281 C 241.917969 0.0429688 243.136719 9.65625 234.59375 18.664062 C 275.476562 11.796875 280.863281 24.265625 281.121094 36.058594 C 281.378906 47.855469 262.355469 62.460938 224.527344 58.035156 Z M 224.527344 58.035156 " fill-opacity="1" fill-rule="nonzero"/><g clip-path="url(#a82d302f7c)"><g clip-path="url(#b503bcf608)"><path fill="url(#f5ecf04bc8)" d="M 201.976562 136.492188 L 201.976562 158.015625 L 226.945312 158.015625 L 226.945312 136.492188 Z M 201.976562 136.492188 " fill-rule="nonzero"/></g></g><g clip-path="url(#bd8f37c0e9)"><g clip-path="url(#d0ef673616)"><path fill="url(#caab25a006)" d="M 57.496094 162.492188 L 57.496094 472.585938 L 385.535156 472.585938 L 385.535156 162.492188 Z M 57.496094 162.492188 " fill-rule="nonzero"/></g></g><g clip-path="url(#397866bc74)"><g clip-path="url(#a6ecc64d97)"><path fill="url(#2f0313eeea)" d="M 248.238281 247.4375 L 248.238281 310.578125 L 282.570312 310.578125 L 282.570312 247.4375 Z M 248.238281 247.4375 " fill-rule="nonzero"/></g></g><path fill="#9fc1f7" d="M 163.671875 571.667969 L 191.507812 571.667969 L 191.507812 823.476562 L 163.671875 823.476562 Z M 163.671875 571.667969 " fill-opacity="1" fill-rule="nonzero"/><path fill="#6896d8" d="M 134.34375 555.382812 L 223.199219 555.382812 C 223.9375 555.382812 224.667969 555.457031 225.390625 555.597656 C 226.117188 555.742188 226.820312 555.957031 227.5 556.238281 C 228.183594 556.523438 228.832031 556.867188 229.445312 557.28125 C 230.058594 557.691406 230.628906 558.15625 231.152344 558.679688 C 231.671875 559.199219 232.140625 559.769531 232.550781 560.382812 C 232.960938 560.996094 233.304688 561.644531 233.589844 562.328125 C 233.871094 563.011719 234.085938 563.714844 234.230469 564.441406 C 234.371094 565.164062 234.445312 565.894531 234.445312 566.636719 L 234.445312 569.617188 C 234.445312 570.355469 234.371094 571.089844 234.230469 571.8125 C 234.085938 572.539062 233.871094 573.242188 233.589844 573.925781 C 233.304688 574.605469 232.960938 575.253906 232.550781 575.871094 C 232.140625 576.484375 231.671875 577.050781 231.152344 577.574219 C 230.628906 578.097656 230.058594 578.5625 229.445312 578.972656 C 228.832031 579.382812 228.183594 579.730469 227.5 580.011719 C 226.820312 580.296875 226.117188 580.507812 225.390625 580.652344 C 224.667969 580.796875 223.9375 580.871094 223.199219 580.871094 L 134.34375 580.871094 C 133.605469 580.871094 132.875 580.796875 132.152344 580.652344 C 131.425781 580.507812 130.722656 580.296875 130.042969 580.011719 C 129.359375 579.730469 128.710938 579.382812 128.097656 578.972656 C 127.484375 578.5625 126.914062 578.097656 126.390625 577.574219 C 125.871094 577.050781 125.402344 576.484375 124.992188 575.871094 C 124.582031 575.253906 124.238281 574.605469 123.953125 573.925781 C 123.671875 573.242188 123.457031 572.539062 123.3125 571.8125 C 123.171875 571.089844 123.097656 570.355469 123.097656 569.617188 L 123.097656 566.636719 C 123.097656 565.894531 123.171875 565.164062 123.3125 564.441406 C 123.457031 563.714844 123.671875 563.011719 123.953125 562.328125 C 124.238281 561.644531 124.582031 560.996094 124.992188 560.382812 C 125.402344 559.769531 125.871094 559.199219 126.390625 558.679688 C 126.914062 558.15625 127.484375 557.691406 128.097656 557.28125 C 128.710938 556.867188 129.359375 556.523438 130.042969 556.238281 C 130.722656 555.957031 131.425781 555.742188 132.152344 555.597656 C 132.875 555.457031 133.605469 555.382812 134.34375 555.382812 Z M 134.34375 555.382812 " fill-opacity="1" fill-rule="nonzero"/><path fill="#d2e1ff" d="M 224.761719 571.667969 L 55.476562 571.667969 C 54.472656 571.671875 53.472656 571.589844 52.480469 571.425781 C 51.484375 571.265625 50.511719 571.023438 49.558594 570.703125 C 48.605469 570.378906 47.683594 569.984375 46.792969 569.511719 C 45.90625 569.042969 45.058594 568.5 44.257812 567.890625 C 43.457031 567.28125 42.710938 566.609375 42.019531 565.878906 C 41.328125 565.148438 40.703125 564.367188 40.136719 563.53125 C 39.574219 562.699219 39.082031 561.824219 38.660156 560.910156 C 38.238281 559.996094 37.894531 559.054688 37.628906 558.082031 L 24.394531 510.164062 C 24.207031 509.476562 24.054688 508.785156 23.945312 508.082031 C 23.835938 507.378906 23.769531 506.671875 23.742188 505.960938 C 23.714844 505.25 23.726562 504.542969 23.78125 503.832031 C 23.835938 503.125 23.929688 502.421875 24.0625 501.722656 C 24.199219 501.023438 24.371094 500.335938 24.585938 499.660156 C 24.800781 498.980469 25.050781 498.316406 25.34375 497.667969 C 25.632812 497.019531 25.957031 496.390625 26.320312 495.777344 C 26.683594 495.167969 27.082031 494.578125 27.511719 494.011719 C 27.941406 493.445312 28.402344 492.90625 28.894531 492.394531 C 29.386719 491.882812 29.910156 491.398438 30.457031 490.949219 C 31.003906 490.496094 31.578125 490.074219 32.171875 489.6875 C 32.769531 489.300781 33.386719 488.949219 34.023438 488.632812 C 34.660156 488.320312 35.3125 488.039062 35.980469 487.800781 C 36.648438 487.558594 37.328125 487.359375 38.023438 487.195312 C 38.714844 487.035156 39.414062 486.910156 40.117188 486.832031 C 40.824219 486.75 41.53125 486.707031 42.242188 486.707031 L 211.53125 486.707031 C 212.539062 486.707031 213.539062 486.789062 214.535156 486.949219 C 215.527344 487.113281 216.5 487.355469 217.457031 487.675781 C 218.410156 488 219.332031 488.394531 220.21875 488.867188 C 221.109375 489.339844 221.953125 489.882812 222.753906 490.492188 C 223.554688 491.101562 224.300781 491.773438 224.992188 492.503906 C 225.683594 493.238281 226.3125 494.019531 226.875 494.855469 C 227.4375 495.691406 227.929688 496.566406 228.351562 497.480469 C 228.773438 498.394531 229.117188 499.339844 229.382812 500.3125 L 238.4375 533.082031 L 242.605469 548.21875 C 242.796875 548.90625 242.945312 549.601562 243.054688 550.300781 C 243.164062 551.003906 243.234375 551.710938 243.261719 552.421875 C 243.289062 553.132812 243.277344 553.839844 243.222656 554.550781 C 243.167969 555.257812 243.074219 555.960938 242.941406 556.660156 C 242.808594 557.359375 242.632812 558.046875 242.417969 558.722656 C 242.203125 559.402344 241.953125 560.066406 241.664062 560.714844 C 241.371094 561.363281 241.046875 561.992188 240.683594 562.605469 C 240.320312 563.214844 239.925781 563.804688 239.492188 564.371094 C 239.0625 564.9375 238.601562 565.476562 238.109375 565.988281 C 237.617188 566.5 237.097656 566.980469 236.546875 567.433594 C 236 567.886719 235.429688 568.308594 234.832031 568.695312 C 234.234375 569.078125 233.617188 569.429688 232.980469 569.746094 C 232.34375 570.0625 231.691406 570.339844 231.023438 570.578125 C 230.355469 570.820312 229.675781 571.019531 228.980469 571.183594 C 228.289062 571.34375 227.589844 571.464844 226.886719 571.546875 C 226.179688 571.628906 225.472656 571.667969 224.761719 571.667969 Z M 224.761719 571.667969 " fill-opacity="1" fill-rule="nonzero"/><path fill="#9fc1f7" d="M 340.945312 552.382812 C 340.945312 553.015625 340.914062 553.644531 340.855469 554.273438 C 340.792969 554.902344 340.699219 555.527344 340.578125 556.144531 C 340.453125 556.765625 340.300781 557.378906 340.117188 557.980469 C 339.933594 558.585938 339.722656 559.179688 339.480469 559.765625 C 339.238281 560.347656 338.96875 560.917969 338.671875 561.476562 C 338.375 562.03125 338.050781 562.574219 337.699219 563.097656 C 337.347656 563.625 336.972656 564.128906 336.570312 564.617188 C 336.171875 565.105469 335.746094 565.574219 335.300781 566.023438 C 334.855469 566.46875 334.386719 566.890625 333.898438 567.292969 C 333.410156 567.691406 332.902344 568.070312 332.378906 568.421875 C 331.855469 568.769531 331.3125 569.09375 330.757812 569.394531 C 330.199219 569.691406 329.628906 569.960938 329.046875 570.203125 C 328.460938 570.445312 327.867188 570.65625 327.265625 570.839844 C 326.660156 571.023438 326.046875 571.175781 325.429688 571.300781 C 324.808594 571.421875 324.1875 571.515625 323.558594 571.578125 C 322.929688 571.636719 322.300781 571.667969 321.667969 571.667969 L 224.761719 571.667969 C 225.472656 571.667969 226.179688 571.628906 226.886719 571.546875 C 227.589844 571.464844 228.289062 571.34375 228.980469 571.183594 C 229.671875 571.023438 230.351562 570.820312 231.023438 570.582031 C 231.691406 570.339844 232.34375 570.0625 232.980469 569.746094 C 233.617188 569.433594 234.234375 569.082031 234.828125 568.695312 C 235.425781 568.308594 235.996094 567.890625 236.546875 567.4375 C 237.09375 566.984375 237.613281 566.503906 238.105469 565.992188 C 238.597656 565.480469 239.0625 564.941406 239.492188 564.375 C 239.921875 563.808594 240.316406 563.222656 240.679688 562.609375 C 241.042969 562 241.371094 561.371094 241.660156 560.722656 C 241.949219 560.070312 242.203125 559.410156 242.417969 558.730469 C 242.632812 558.054688 242.804688 557.367188 242.941406 556.667969 C 243.074219 555.96875 243.167969 555.265625 243.222656 554.558594 C 243.277344 553.851562 243.289062 553.140625 243.261719 552.429688 C 243.234375 551.71875 243.167969 551.015625 243.058594 550.3125 C 242.949219 549.609375 242.800781 548.914062 242.609375 548.230469 L 238.453125 533.09375 L 229.398438 500.320312 C 229.132812 499.347656 228.789062 498.40625 228.367188 497.492188 C 227.949219 496.574219 227.457031 495.699219 226.894531 494.867188 C 226.328125 494.03125 225.703125 493.246094 225.011719 492.515625 C 224.320312 491.785156 223.574219 491.113281 222.773438 490.5 C 221.972656 489.890625 221.125 489.351562 220.238281 488.878906 C 219.347656 488.40625 218.425781 488.007812 217.472656 487.6875 C 216.519531 487.363281 215.542969 487.121094 214.550781 486.960938 C 213.558594 486.796875 212.554688 486.714844 211.550781 486.71875 L 240.359375 486.71875 C 241.367188 486.714844 242.367188 486.796875 243.359375 486.960938 C 244.355469 487.121094 245.328125 487.363281 246.28125 487.6875 C 247.234375 488.007812 248.15625 488.40625 249.046875 488.878906 C 249.9375 489.351562 250.78125 489.890625 251.582031 490.5 C 252.382812 491.113281 253.128906 491.785156 253.820312 492.515625 C 254.511719 493.246094 255.140625 494.03125 255.703125 494.867188 C 256.265625 495.699219 256.757812 496.574219 257.179688 497.492188 C 257.597656 498.40625 257.941406 499.351562 258.207031 500.320312 L 267.261719 533.09375 L 321.695312 533.09375 C 322.328125 533.09375 322.957031 533.125 323.585938 533.183594 C 324.214844 533.246094 324.835938 533.339844 325.457031 533.460938 C 326.078125 533.582031 326.6875 533.738281 327.292969 533.917969 C 327.898438 534.101562 328.492188 534.316406 329.074219 534.558594 C 329.660156 534.796875 330.230469 535.066406 330.789062 535.367188 C 331.34375 535.664062 331.886719 535.988281 332.410156 536.339844 C 332.9375 536.691406 333.441406 537.066406 333.929688 537.464844 C 334.417969 537.867188 334.886719 538.289062 335.332031 538.738281 C 335.78125 539.183594 336.203125 539.652344 336.605469 540.140625 C 337.003906 540.628906 337.378906 541.136719 337.730469 541.660156 C 338.082031 542.1875 338.40625 542.730469 338.703125 543.285156 C 339 543.84375 339.269531 544.414062 339.511719 545 C 339.753906 545.582031 339.964844 546.175781 340.148438 546.78125 C 340.332031 547.386719 340.484375 548 340.605469 548.617188 C 340.730469 549.238281 340.820312 549.863281 340.882812 550.492188 C 340.945312 551.121094 340.972656 551.75 340.972656 552.382812 Z M 340.945312 552.382812 " fill-opacity="1" fill-rule="nonzero"/><path fill="#3c4f9e" d="M 358.289062 775.570312 L 360.386719 776.792969 L 424.734375 814.308594 C 425.464844 814.734375 426.109375 815.265625 426.667969 815.90625 C 427.222656 816.542969 427.664062 817.253906 427.984375 818.039062 C 428.308594 818.820312 428.496094 819.636719 428.550781 820.480469 C 428.605469 821.328125 428.519531 822.160156 428.300781 822.976562 C 428.078125 823.796875 427.730469 824.558594 427.261719 825.261719 C 426.789062 825.964844 426.214844 826.574219 425.542969 827.089844 C 424.871094 827.605469 424.132812 827.996094 423.332031 828.269531 C 422.527344 828.539062 421.703125 828.675781 420.855469 828.671875 L 288.382812 828.671875 C 287.808594 828.671875 287.238281 828.609375 286.675781 828.480469 C 286.113281 828.355469 285.570312 828.164062 285.050781 827.917969 C 284.53125 827.667969 284.046875 827.363281 283.59375 827.003906 C 283.140625 826.644531 282.734375 826.242188 282.375 825.792969 C 282.015625 825.339844 281.707031 824.855469 281.457031 824.339844 C 281.203125 823.820312 281.011719 823.277344 280.878906 822.71875 C 280.75 822.15625 280.683594 821.585938 280.679688 821.007812 C 280.675781 820.433594 280.738281 819.863281 280.863281 819.300781 L 292.820312 765.304688 " fill-opacity="1" fill-rule="nonzero"/><path fill="#190d2d" d="M 389.1875 550.078125 L 335.628906 585.015625 C 340.550781 564.757812 343.929688 550.941406 344.109375 550.117188 L 344.128906 550.078125 Z M 389.1875 550.078125 " fill-opacity="1" fill-rule="nonzero"/><g clip-path="url(#f327daefb7)"><g clip-path="url(#b6acec663c)"><path fill="url(#255cb0d195)" d="M 395.046875 45.875 L 366.582031 116.191406 L 476.894531 116.191406 L 505.359375 45.875 Z M 395.046875 45.875 " fill-rule="nonzero"/></g></g><path fill="#ffffff" d="M 419.304688 82.664062 L 429.894531 77.769531 L 421.289062 72.859375 L 422.105469 68.949219 L 434.042969 75.773438 L 433.238281 79.75 L 418.546875 86.59375 Z M 419.304688 82.664062 " fill-opacity="1" fill-rule="nonzero"/><path fill="#ffffff" d="M 434.125 89.226562 L 450.652344 89.226562 L 449.863281 93.132812 L 433.332031 93.132812 Z M 434.125 89.226562 " fill-opacity="1" fill-rule="nonzero"/><path fill="#ffffff" d="M 559.671875 827.726562 C 559.007812 827.726562 558.34375 827.664062 557.6875 827.539062 C 557.035156 827.417969 556.394531 827.238281 555.773438 826.996094 C 555.152344 826.753906 554.554688 826.457031 553.988281 826.109375 C 553.421875 825.757812 552.890625 825.355469 552.398438 824.90625 C 551.90625 824.457031 551.457031 823.96875 551.054688 823.433594 C 550.652344 822.902344 550.304688 822.335938 550.003906 821.742188 C 549.707031 821.144531 549.46875 820.523438 549.285156 819.882812 C 549.101562 819.242188 548.980469 818.585938 548.917969 817.921875 L 505.722656 355.75 L 527.425781 355.75 L 570.4375 815.910156 C 570.507812 816.660156 570.496094 817.410156 570.410156 818.15625 C 570.324219 818.902344 570.164062 819.632812 569.921875 820.347656 C 569.683594 821.058594 569.375 821.742188 568.992188 822.390625 C 568.613281 823.039062 568.167969 823.640625 567.664062 824.195312 C 567.15625 824.753906 566.597656 825.25 565.988281 825.691406 C 565.378906 826.128906 564.726562 826.5 564.039062 826.804688 C 563.351562 827.109375 562.640625 827.335938 561.90625 827.492188 C 561.167969 827.648438 560.425781 827.726562 559.671875 827.726562 Z M 559.671875 827.726562 " fill-opacity="1" fill-rule="nonzero"/><g clip-path="url(#92751bea39)"><path fill="#ffffff" d="M 740.839844 827.726562 C 740.175781 827.726562 739.511719 827.664062 738.855469 827.539062 C 738.203125 827.417969 737.5625 827.238281 736.941406 826.996094 C 736.320312 826.753906 735.722656 826.457031 735.15625 826.109375 C 734.589844 825.757812 734.058594 825.355469 733.566406 824.90625 C 733.074219 824.457031 732.625 823.964844 732.222656 823.433594 C 731.820312 822.902344 731.472656 822.335938 731.171875 821.738281 C 730.875 821.144531 730.636719 820.523438 730.453125 819.882812 C 730.269531 819.242188 730.148438 818.585938 730.085938 817.921875 L 686.890625 355.75 L 708.59375 355.75 L 751.605469 815.910156 C 751.675781 816.660156 751.664062 817.410156 751.578125 818.15625 C 751.492188 818.902344 751.332031 819.632812 751.089844 820.347656 C 750.851562 821.058594 750.542969 821.742188 750.160156 822.390625 C 749.78125 823.039062 749.335938 823.640625 748.832031 824.195312 C 748.324219 824.753906 747.765625 825.25 747.15625 825.6875 C 746.546875 826.128906 745.894531 826.5 745.207031 826.804688 C 744.519531 827.109375 743.808594 827.335938 743.074219 827.492188 C 742.335938 827.648438 741.59375 827.726562 740.839844 827.726562 Z M 740.839844 827.726562 " fill-opacity="1" fill-rule="nonzero"/></g></svg>