<svg xmlns="http://www.w3.org/2000/svg" xmlns:xlink="http://www.w3.org/1999/xlink" width="500" zoomAndPan="magnify" viewBox="0 0 375 374.999991" height="500" preserveAspectRatio="xMidYMid meet" version="1.0"><defs><clipPath id="fabb7a25f1"><path d="M 2 103.894531 L 373 103.894531 L 373 238.894531 L 2 238.894531 Z M 2 103.894531 " clip-rule="nonzero"/></clipPath></defs><rect x="-37.5" width="450" fill="#ffffff" y="-37.499999" height="449.999989" fill-opacity="1"/><rect x="-37.5" width="450" fill="#ffffff" y="-37.499999" height="449.999989" fill-opacity="1"/><g clip-path="url(#fabb7a25f1)"><path fill="#222c37" d="M 209.203125 144.75 L 196.230469 144.75 L 196.230469 174.734375 C 196.230469 182.425781 193.066406 188.574219 183.769531 188.574219 C 174.570312 188.675781 171.902344 182.34375 171.902344 174.332031 L 171.902344 144.773438 L 158.921875 144.773438 L 158.921875 177.597656 C 158.921875 187.09375 162.285156 200.59375 180.074219 200.730469 C 189.867188 200.828125 194.707031 196.082031 196.976562 191.828125 L 196.976562 199.042969 L 209.15625 199.042969 Z M 214.328125 199.007812 L 227.28125 199.007812 L 227.28125 169.058594 C 227.28125 161.449219 230.445312 155.324219 239.636719 155.21875 C 248.730469 155.21875 251.402344 161.449219 251.402344 169.554688 L 251.402344 199.007812 L 264.351562 199.007812 L 264.351562 166.289062 C 264.351562 156.703125 260.988281 143.15625 243.296875 143.058594 C 233.609375 142.957031 228.761719 147.703125 226.398438 151.957031 L 226.496094 144.746094 L 214.332031 144.746094 L 214.332031 199.003906 Z M 269.292969 137.421875 L 282.246094 137.421875 L 282.246094 125.851562 L 269.292969 125.851562 Z M 269.292969 199.003906 L 282.246094 199.003906 L 282.246094 144.746094 L 269.292969 144.746094 Z M 295.792969 199.011719 L 308.742188 199.011719 L 308.742188 154.730469 L 318.035156 154.730469 L 314.1875 144.746094 L 308.777344 144.746094 L 308.777344 125.851562 L 295.796875 125.851562 L 295.796875 144.753906 L 286.804688 144.753906 L 286.804688 154.734375 L 295.796875 154.734375 Z M 330.53125 217.988281 L 344.367188 217.988281 L 372.925781 144.75 L 359.082031 144.75 L 346.027344 180.824219 L 332.808594 144.75 L 318.945312 144.75 L 339.410156 196.945312 Z M 133.832031 157.511719 L 119.371094 103.867188 L 65.480469 118.25 L 57.515625 132.253906 L 41.382812 132.140625 L 2.058594 171.40625 L 41.457031 210.664062 L 57.613281 210.542969 L 65.589844 224.546875 L 119.367188 238.921875 L 133.78125 185.285156 L 125.636719 171.394531 Z M 100.082031 123.960938 L 76.457031 164.773438 L 29.207031 164.773438 L 58.953125 134.507812 Z M 76.457031 178.109375 L 100.082031 218.917969 L 58.917969 208.339844 L 29.171875 178.121094 L 76.421875 178.121094 Z M 87.957031 171.480469 L 111.625 130.597656 L 123.046875 171.410156 L 111.625 212.207031 Z M 87.957031 171.480469 " fill-opacity="1" fill-rule="nonzero"/></g></svg>